<svg width="33" height="33" viewBox="0 0 33 33" fill="none" xmlns="http://www.w3.org/2000/svg">
<path d="M19.6602 16.502C19.6602 18.2462 18.2462 19.6602 16.502 19.6602C14.7577 19.6602 13.3438 18.2462 13.3438 16.502C13.3438 14.7577 14.7577 13.3438 16.502 13.3438C18.2462 13.3438 19.6602 14.7577 19.6602 16.502Z" fill="#2F87FF"/>
<path d="M23.8879 10.91C23.7361 10.4986 23.4939 10.1263 23.1792 9.82063C22.8735 9.50592 22.5014 9.26372 22.0898 9.1119C21.7559 8.98224 21.2544 8.8279 20.3306 8.78586C19.3314 8.74029 19.0318 8.73047 16.502 8.73047C13.9719 8.73047 13.6723 8.74004 12.6733 8.78561C11.7496 8.8279 11.2478 8.98224 10.9142 9.1119C10.5026 9.26372 10.1302 9.50592 9.82479 9.82063C9.51008 10.1263 9.26788 10.4984 9.11581 10.91C8.98614 11.2439 8.83181 11.7457 8.78976 12.6694C8.74419 13.6684 8.73438 13.968 8.73438 16.4981C8.73438 19.0279 8.74419 19.3275 8.78976 20.3267C8.83181 21.2505 8.98614 21.752 9.11581 22.0859C9.26788 22.4975 9.50983 22.8696 9.82454 23.1753C10.1302 23.49 10.5023 23.7322 10.9139 23.884C11.2478 24.0139 11.7496 24.1683 12.6733 24.2103C13.6723 24.2559 13.9717 24.2654 16.5017 24.2654C19.032 24.2654 19.3316 24.2559 20.3304 24.2103C21.2541 24.1683 21.7559 24.0139 22.0898 23.884C22.9161 23.5653 23.5692 22.9122 23.8879 22.0859C24.0176 21.752 24.1719 21.2505 24.2142 20.3267C24.2598 19.3275 24.2693 19.0279 24.2693 16.4981C24.2693 13.968 24.2598 13.6684 24.2142 12.6694C24.1722 11.7457 24.0178 11.2439 23.8879 10.91ZM16.502 21.363C13.8148 21.363 11.6365 19.185 11.6365 16.4978C11.6365 13.8107 13.8148 11.6326 16.502 11.6326C19.1889 11.6326 21.3672 13.8107 21.3672 16.4978C21.3672 19.185 19.1889 21.363 16.502 21.363ZM21.5595 12.5773C20.9316 12.5773 20.4225 12.0682 20.4225 11.4403C20.4225 10.8124 20.9316 10.3033 21.5595 10.3033C22.1875 10.3033 22.6965 10.8124 22.6965 11.4403C22.6963 12.0682 22.1875 12.5773 21.5595 12.5773Z" fill="#2F87FF"/>
<path d="M16.5 0C7.38869 0 0 7.38869 0 16.5C0 25.6113 7.38869 33 16.5 33C25.6113 33 33 25.6113 33 16.5C33 7.38869 25.6113 0 16.5 0ZM25.9175 20.4062C25.8716 21.4148 25.7113 22.1034 25.4771 22.7061C24.9849 23.9788 23.9788 24.9849 22.7061 25.4771C22.1036 25.7113 21.4148 25.8714 20.4065 25.9175C19.3961 25.9635 19.0733 25.9746 16.5003 25.9746C13.9269 25.9746 13.6044 25.9635 12.5938 25.9175C11.5854 25.8714 10.8966 25.7113 10.2941 25.4771C9.66167 25.2392 9.08915 24.8663 8.61582 24.3842C8.13393 23.9111 7.76106 23.3383 7.52314 22.7061C7.28899 22.1036 7.12862 21.4148 7.08279 20.4065C7.03622 19.3959 7.02539 19.0731 7.02539 16.5C7.02539 13.9269 7.03622 13.6041 7.08254 12.5938C7.12836 11.5852 7.28849 10.8966 7.52264 10.2939C7.76056 9.66167 8.13368 9.0889 8.61582 8.61582C9.0889 8.13368 9.66167 7.76081 10.2939 7.52289C10.8966 7.28874 11.5852 7.12862 12.5938 7.08254C13.6041 7.03647 13.9269 7.02539 16.5 7.02539C19.0731 7.02539 19.3959 7.03647 20.4062 7.08279C21.4148 7.12862 22.1034 7.28874 22.7061 7.52264C23.3383 7.76056 23.9111 8.13368 24.3844 8.61582C24.8663 9.08915 25.2394 9.66167 25.4771 10.2939C25.7115 10.8966 25.8716 11.5852 25.9177 12.5938C25.9638 13.6041 25.9746 13.9269 25.9746 16.5C25.9746 19.0731 25.9638 19.3959 25.9175 20.4062Z" fill="#2F87FF"/>
</svg>
