<svg width="33" height="33" viewBox="0 0 33 33" fill="none" xmlns="http://www.w3.org/2000/svg">
<path fill-rule="evenodd" clip-rule="evenodd" d="M15.6351 0.0332661C15.6351 0.0537248 15.4688 0.0665323 15.2026 0.0665323C14.9365 0.0665323 14.7702 0.0793397 14.7702 0.0997984C14.7702 0.119193 14.6593 0.133065 14.504 0.133065C14.3488 0.133065 14.2379 0.146937 14.2379 0.166331C14.2379 0.185326 14.1381 0.199597 14.005 0.199597C13.872 0.199597 13.7722 0.213868 13.7722 0.232863C13.7722 0.251359 13.6835 0.266129 13.5726 0.266129C13.4617 0.266129 13.373 0.280899 13.373 0.299395C13.373 0.317692 13.2981 0.332661 13.2067 0.332661C13.1152 0.332661 13.0403 0.347631 13.0403 0.365927C13.0403 0.384224 12.9804 0.399194 12.9073 0.399194C12.8341 0.399194 12.7742 0.414163 12.7742 0.43246C12.7742 0.450756 12.7143 0.465726 12.6411 0.465726C12.5679 0.465726 12.5081 0.480696 12.5081 0.498992C12.5081 0.517288 12.4482 0.532258 12.375 0.532258C12.3018 0.532258 12.2419 0.547228 12.2419 0.565524C12.2419 0.583821 12.1821 0.59879 12.1089 0.59879C12.0357 0.59879 11.9758 0.61376 11.9758 0.632056C11.9758 0.650353 11.9309 0.665323 11.876 0.665323C11.8211 0.665323 11.7762 0.680292 11.7762 0.698589C11.7762 0.716885 11.7163 0.731855 11.6431 0.731855C11.57 0.731855 11.5101 0.746825 11.5101 0.765121C11.5101 0.783417 11.4652 0.798387 11.4103 0.798387C11.3554 0.798387 11.3105 0.813357 11.3105 0.831653C11.3105 0.84995 11.2656 0.864919 11.2107 0.864919C11.1558 0.864919 11.1109 0.879889 11.1109 0.898186C11.1109 0.916482 11.066 0.931452 11.0111 0.931452C10.9562 0.931452 10.9113 0.946421 10.9113 0.964718C10.9113 0.983014 10.8814 0.997984 10.8448 0.997984C10.8082 0.997984 10.7782 1.01295 10.7782 1.03125C10.7782 1.04955 10.7333 1.06452 10.6784 1.06452C10.6235 1.06452 10.5786 1.07949 10.5786 1.09778C10.5786 1.11608 10.5487 1.13105 10.5121 1.13105C10.4755 1.13105 10.4456 1.14602 10.4456 1.16431C10.4456 1.18261 10.4007 1.19758 10.3458 1.19758C10.2909 1.19758 10.246 1.21255 10.246 1.23085C10.246 1.24914 10.216 1.26411 10.1794 1.26411C10.1428 1.26411 10.1129 1.27908 10.1129 1.29738C10.1129 1.31568 10.068 1.33065 10.0131 1.33065C9.95822 1.33065 9.91331 1.34562 9.91331 1.36391C9.91331 1.38221 9.88337 1.39718 9.84678 1.39718C9.81018 1.39718 9.78024 1.41215 9.78024 1.43044C9.78024 1.44874 9.7503 1.46371 9.71371 1.46371C9.67712 1.46371 9.64718 1.47868 9.64718 1.49698C9.64718 1.51527 9.61724 1.53024 9.58065 1.53024C9.54405 1.53024 9.51411 1.54521 9.51411 1.56351C9.51411 1.5818 9.4725 1.59677 9.42167 1.59677C9.36738 1.59677 9.30943 1.62425 9.28125 1.66331C9.25487 1.6999 9.20667 1.72984 9.1741 1.72984C9.14157 1.72984 9.11492 1.74481 9.11492 1.7631C9.11492 1.7814 9.08498 1.79637 9.04839 1.79637C9.0118 1.79637 8.98186 1.81134 8.98186 1.82964C8.98186 1.84793 8.95192 1.8629 8.91532 1.8629C8.87873 1.8629 8.84879 1.87787 8.84879 1.89617C8.84879 1.91447 8.81885 1.92944 8.78226 1.92944C8.74567 1.92944 8.71573 1.94441 8.71573 1.9627C8.71573 1.981 8.68579 1.99597 8.64919 1.99597C8.6126 1.99597 8.58266 2.01094 8.58266 2.02923C8.58266 2.04753 8.55272 2.0625 8.51613 2.0625C8.47954 2.0625 8.4496 2.07747 8.4496 2.09577C8.4496 2.11406 8.42295 2.12903 8.39042 2.12903C8.35785 2.12903 8.30965 2.15897 8.28327 2.19556C8.25689 2.23216 8.20868 2.2621 8.17612 2.2621C8.14358 2.2621 8.11694 2.27707 8.11694 2.29536C8.11694 2.31366 8.087 2.32863 8.0504 2.32863C8.01381 2.32863 7.98387 2.3436 7.98387 2.3619C7.98387 2.38019 7.95722 2.39516 7.92469 2.39516C7.89212 2.39516 7.84392 2.4251 7.81754 2.46169C7.79116 2.49829 7.74625 2.52823 7.71774 2.52823C7.68923 2.52823 7.64432 2.55817 7.61794 2.59476C7.59156 2.63135 7.54665 2.66129 7.51815 2.66129C7.48964 2.66129 7.44473 2.69123 7.41835 2.72782C7.39197 2.76442 7.34706 2.79435 7.31855 2.79435C7.29004 2.79435 7.24513 2.82429 7.21875 2.86089C7.19237 2.89748 7.15016 2.92742 7.12494 2.92742C7.09976 2.92742 7.03715 2.97233 6.98589 3.02722C6.93462 3.08211 6.87202 3.12702 6.84684 3.12702C6.82162 3.12702 6.7794 3.15696 6.75302 3.19355C6.72664 3.23014 6.68476 3.26008 6.65991 3.26008C6.63506 3.26008 6.55722 3.31996 6.4869 3.39315C6.41657 3.46633 6.34142 3.52621 6.3199 3.52621C6.29834 3.52621 6.23876 3.57112 6.1875 3.62601C6.13624 3.6809 6.07699 3.72581 6.05587 3.72581C6.03478 3.72581 5.92932 3.81563 5.82157 3.9254C5.71382 4.03518 5.60977 4.125 5.59037 4.125C5.54423 4.125 4.125 5.54423 4.125 5.59037C4.125 5.60977 4.03518 5.71382 3.9254 5.82157C3.81563 5.92932 3.72581 6.03444 3.72581 6.0552C3.72581 6.07596 3.66593 6.15044 3.59274 6.22077C3.51956 6.29109 3.45968 6.36624 3.45968 6.38776C3.45968 6.40932 3.41477 6.4689 3.35988 6.52016C3.30499 6.57142 3.26008 6.63403 3.26008 6.65921C3.26008 6.68443 3.23014 6.72664 3.19355 6.75302C3.15696 6.7794 3.12702 6.82162 3.12702 6.84684C3.12702 6.87202 3.08211 6.93462 3.02722 6.98589C2.97233 7.03715 2.92742 7.09976 2.92742 7.12494C2.92742 7.15016 2.89748 7.19237 2.86089 7.21875C2.82429 7.24513 2.79435 7.29004 2.79435 7.31855C2.79435 7.34706 2.76442 7.39197 2.72782 7.41835C2.69123 7.44473 2.66129 7.48964 2.66129 7.51815C2.66129 7.54665 2.63135 7.59156 2.59476 7.61794C2.55817 7.64432 2.52823 7.68923 2.52823 7.71774C2.52823 7.74625 2.49829 7.79116 2.46169 7.81754C2.4251 7.84392 2.39516 7.89212 2.39516 7.92469C2.39516 7.95722 2.38019 7.98387 2.3619 7.98387C2.3436 7.98387 2.32863 8.01381 2.32863 8.0504C2.32863 8.087 2.31366 8.11694 2.29536 8.11694C2.27707 8.11694 2.2621 8.14358 2.2621 8.17612C2.2621 8.20868 2.23216 8.25689 2.19556 8.28327C2.15897 8.30965 2.12903 8.35785 2.12903 8.39042C2.12903 8.42295 2.11406 8.4496 2.09577 8.4496C2.07747 8.4496 2.0625 8.47954 2.0625 8.51613C2.0625 8.55272 2.04753 8.58266 2.02923 8.58266C2.01094 8.58266 1.99597 8.6126 1.99597 8.64919C1.99597 8.68579 1.981 8.71573 1.9627 8.71573C1.94441 8.71573 1.92944 8.74567 1.92944 8.78226C1.92944 8.81885 1.91447 8.84879 1.89617 8.84879C1.87787 8.84879 1.8629 8.87873 1.8629 8.91532C1.8629 8.95192 1.84793 8.98186 1.82964 8.98186C1.81134 8.98186 1.79637 9.0085 1.79637 9.04104C1.79637 9.0736 1.76643 9.12181 1.72984 9.14819C1.69325 9.17457 1.66331 9.22277 1.66331 9.25534C1.66331 9.28787 1.64834 9.31452 1.63004 9.31452C1.61174 9.31452 1.59677 9.35943 1.59677 9.41432C1.59677 9.4692 1.5818 9.51411 1.56351 9.51411C1.54521 9.51411 1.53024 9.54405 1.53024 9.58065C1.53024 9.61724 1.51527 9.64718 1.49698 9.64718C1.47868 9.64718 1.46371 9.67712 1.46371 9.71371C1.46371 9.7503 1.44874 9.78024 1.43044 9.78024C1.41215 9.78024 1.39718 9.81018 1.39718 9.84678C1.39718 9.88337 1.38221 9.91331 1.36391 9.91331C1.34562 9.91331 1.33065 9.95822 1.33065 10.0131C1.33065 10.068 1.31568 10.1129 1.29738 10.1129C1.27908 10.1129 1.26411 10.1428 1.26411 10.1794C1.26411 10.216 1.24914 10.246 1.23085 10.246C1.21255 10.246 1.19758 10.2909 1.19758 10.3458C1.19758 10.4007 1.18261 10.4456 1.16431 10.4456C1.14602 10.4456 1.13105 10.4755 1.13105 10.5121C1.13105 10.5487 1.11608 10.5786 1.09778 10.5786C1.07949 10.5786 1.06452 10.6235 1.06452 10.6784C1.06452 10.7333 1.04955 10.7782 1.03125 10.7782C1.01295 10.7782 0.997984 10.8082 0.997984 10.8448C0.997984 10.8814 0.983014 10.9113 0.964718 10.9113C0.946421 10.9113 0.931452 10.9562 0.931452 11.0111C0.931452 11.066 0.916482 11.1109 0.898186 11.1109C0.879889 11.1109 0.864919 11.1558 0.864919 11.2107C0.864919 11.2656 0.84995 11.3105 0.831653 11.3105C0.813357 11.3105 0.798387 11.3554 0.798387 11.4103C0.798387 11.4652 0.783417 11.5101 0.765121 11.5101C0.746825 11.5101 0.731855 11.57 0.731855 11.6431C0.731855 11.7163 0.716885 11.7762 0.698589 11.7762C0.680292 11.7762 0.665323 11.8211 0.665323 11.876C0.665323 11.9309 0.650353 11.9758 0.632056 11.9758C0.61376 11.9758 0.59879 12.0357 0.59879 12.1089C0.59879 12.1821 0.583821 12.2419 0.565524 12.2419C0.547228 12.2419 0.532258 12.3018 0.532258 12.375C0.532258 12.4482 0.517288 12.5081 0.498992 12.5081C0.480696 12.5081 0.465726 12.5679 0.465726 12.6411C0.465726 12.7143 0.450756 12.7742 0.43246 12.7742C0.414163 12.7742 0.399194 12.8341 0.399194 12.9073C0.399194 12.9804 0.384224 13.0403 0.365927 13.0403C0.347631 13.0403 0.332661 13.1152 0.332661 13.2067C0.332661 13.2981 0.317692 13.373 0.299395 13.373C0.280899 13.373 0.266129 13.4617 0.266129 13.5726C0.266129 13.6835 0.251359 13.7722 0.232863 13.7722C0.213868 13.7722 0.199597 13.872 0.199597 14.005C0.199597 14.1381 0.185326 14.2379 0.166331 14.2379C0.146937 14.2379 0.133065 14.3488 0.133065 14.504C0.133065 14.6593 0.119193 14.7702 0.0997984 14.7702C0.0793397 14.7702 0.0665323 14.9365 0.0665323 15.2026C0.0665323 15.4688 0.0537248 15.6351 0.0332661 15.6351C0.0119758 15.6351 0 15.9345 0 16.4667C0 16.999 0.0119758 17.2984 0.0332661 17.2984C0.0537248 17.2984 0.0665323 17.4647 0.0665323 17.7308C0.0665323 17.997 0.0793397 18.1633 0.0997984 18.1633C0.119193 18.1633 0.133065 18.2742 0.133065 18.4294C0.133065 18.5847 0.146937 18.6956 0.166331 18.6956C0.185326 18.6956 0.199597 18.7954 0.199597 18.9284C0.199597 19.0615 0.213868 19.1613 0.232863 19.1613C0.251359 19.1613 0.266129 19.25 0.266129 19.3609C0.266129 19.4718 0.280899 19.5605 0.299395 19.5605C0.317692 19.5605 0.332661 19.6353 0.332661 19.7268C0.332661 19.8183 0.347631 19.8931 0.365927 19.8931C0.384224 19.8931 0.399194 19.953 0.399194 20.0262C0.399194 20.0994 0.414163 20.1593 0.43246 20.1593C0.450756 20.1593 0.465726 20.2341 0.465726 20.3256C0.465726 20.4171 0.480696 20.4919 0.498992 20.4919C0.517288 20.4919 0.532258 20.5368 0.532258 20.5917C0.532258 20.6466 0.547228 20.6915 0.565524 20.6915C0.583821 20.6915 0.59879 20.7514 0.59879 20.8246C0.59879 20.8978 0.61376 20.9577 0.632056 20.9577C0.650353 20.9577 0.665323 21.0175 0.665323 21.0907C0.665323 21.1639 0.680292 21.2238 0.698589 21.2238C0.716885 21.2238 0.731855 21.2687 0.731855 21.3236C0.731855 21.3785 0.746825 21.4234 0.765121 21.4234C0.783417 21.4234 0.798387 21.4683 0.798387 21.5232C0.798387 21.5781 0.813357 21.623 0.831653 21.623C0.84995 21.623 0.864919 21.6679 0.864919 21.7228C0.864919 21.7777 0.879889 21.8226 0.898186 21.8226C0.916482 21.8226 0.931452 21.8675 0.931452 21.9224C0.931452 21.9773 0.946421 22.0222 0.964718 22.0222C0.983014 22.0222 0.997984 22.0671 0.997984 22.122C0.997984 22.1769 1.01295 22.2218 1.03125 22.2218C1.04955 22.2218 1.06452 22.2517 1.06452 22.2883C1.06452 22.3249 1.07949 22.3548 1.09778 22.3548C1.11608 22.3548 1.13105 22.3997 1.13105 22.4546C1.13105 22.5095 1.14602 22.5544 1.16431 22.5544C1.18261 22.5544 1.19758 22.5844 1.19758 22.621C1.19758 22.6576 1.21255 22.6875 1.23085 22.6875C1.24914 22.6875 1.26411 22.7324 1.26411 22.7873C1.26411 22.8422 1.27908 22.8871 1.29738 22.8871C1.31568 22.8871 1.33065 22.917 1.33065 22.9536C1.33065 22.9902 1.34562 23.0202 1.36391 23.0202C1.38221 23.0202 1.39718 23.0501 1.39718 23.0867C1.39718 23.1233 1.41215 23.1532 1.43044 23.1532C1.44874 23.1532 1.46371 23.1981 1.46371 23.253C1.46371 23.3079 1.47868 23.3528 1.49698 23.3528C1.51527 23.3528 1.53024 23.3828 1.53024 23.4194C1.53024 23.4559 1.54521 23.4859 1.56351 23.4859C1.5818 23.4859 1.59677 23.5158 1.59677 23.5524C1.59677 23.589 1.61174 23.619 1.63004 23.619C1.64834 23.619 1.66331 23.6489 1.66331 23.6855C1.66331 23.7221 1.67828 23.752 1.69657 23.752C1.71487 23.752 1.72984 23.782 1.72984 23.8186C1.72984 23.8551 1.74481 23.8851 1.7631 23.8851C1.7814 23.8851 1.79637 23.915 1.79637 23.9516C1.79637 23.9882 1.81134 24.0181 1.82964 24.0181C1.84793 24.0181 1.8629 24.0481 1.8629 24.0847C1.8629 24.1213 1.87787 24.1512 1.89617 24.1512C1.91447 24.1512 1.92944 24.1812 1.92944 24.2177C1.92944 24.2543 1.94441 24.2843 1.9627 24.2843C1.981 24.2843 1.99597 24.3109 1.99597 24.3435C1.99597 24.376 2.02591 24.4242 2.0625 24.4506C2.09909 24.477 2.12903 24.5252 2.12903 24.5578C2.12903 24.5903 2.144 24.6169 2.1623 24.6169C2.18059 24.6169 2.19556 24.6469 2.19556 24.6835C2.19556 24.7201 2.21053 24.75 2.22883 24.75C2.24713 24.75 2.2621 24.7766 2.2621 24.8092C2.2621 24.8417 2.29204 24.89 2.32863 24.9163C2.36522 24.9427 2.39516 24.9909 2.39516 25.0235C2.39516 25.056 2.41013 25.0827 2.42843 25.0827C2.44672 25.0827 2.46169 25.1093 2.46169 25.1418C2.46169 25.1744 2.49163 25.2226 2.52823 25.249C2.56482 25.2754 2.59476 25.3203 2.59476 25.3488C2.59476 25.3773 2.6247 25.4222 2.66129 25.4486C2.69788 25.475 2.72782 25.5199 2.72782 25.5484C2.72782 25.5769 2.75776 25.6218 2.79435 25.6482C2.83095 25.6746 2.86089 25.7195 2.86089 25.748C2.86089 25.7765 2.89083 25.8214 2.92742 25.8478C2.96401 25.8742 2.99395 25.9191 2.99395 25.9476C2.99395 25.9761 3.02389 26.021 3.06048 26.0474C3.09708 26.0738 3.12702 26.116 3.12702 26.1412C3.12702 26.1664 3.17193 26.229 3.22681 26.2802C3.2817 26.3315 3.32661 26.3911 3.32661 26.4126C3.32661 26.4342 3.38649 26.5093 3.45968 26.5796C3.53286 26.65 3.59274 26.7248 3.59274 26.746C3.59274 26.7671 3.65262 26.842 3.72581 26.9123C3.79899 26.9826 3.85887 27.0571 3.85887 27.0779C3.85887 27.0986 3.94869 27.2037 4.05847 27.3115C4.16825 27.4192 4.25806 27.5233 4.25806 27.5428C4.25806 27.5888 5.411 28.7419 5.45701 28.7419C5.47634 28.7419 5.59546 28.8467 5.72177 28.9748C5.84809 29.1029 5.96828 29.2077 5.9889 29.2077C6.00953 29.2077 6.08391 29.2675 6.15423 29.3407C6.22456 29.4139 6.29941 29.4738 6.32056 29.4738C6.34172 29.4738 6.41657 29.5337 6.4869 29.6069C6.55722 29.68 6.63506 29.7399 6.65991 29.7399C6.68476 29.7399 6.72664 29.7699 6.75302 29.8065C6.7794 29.843 6.82162 29.873 6.84684 29.873C6.87202 29.873 6.93462 29.9179 6.98589 29.9728C7.03715 30.0277 7.09976 30.0726 7.12494 30.0726C7.15016 30.0726 7.19237 30.1025 7.21875 30.1391C7.24513 30.1757 7.29004 30.2056 7.31855 30.2056C7.34706 30.2056 7.39197 30.2356 7.41835 30.2722C7.44473 30.3088 7.49293 30.3387 7.5255 30.3387C7.55803 30.3387 7.58468 30.3537 7.58468 30.372C7.58468 30.3903 7.61132 30.4052 7.64386 30.4052C7.67643 30.4052 7.72463 30.4352 7.75101 30.4718C7.77739 30.5084 7.8223 30.5383 7.85081 30.5383C7.87932 30.5383 7.92423 30.5682 7.95061 30.6048C7.97699 30.6414 8.02519 30.6714 8.05776 30.6714C8.09029 30.6714 8.11694 30.6863 8.11694 30.7046C8.11694 30.7229 8.14358 30.7379 8.17612 30.7379C8.20868 30.7379 8.25689 30.7678 8.28327 30.8044C8.30965 30.841 8.35785 30.871 8.39042 30.871C8.42295 30.871 8.4496 30.8859 8.4496 30.9042C8.4496 30.9225 8.47954 30.9375 8.51613 30.9375C8.55272 30.9375 8.58266 30.9525 8.58266 30.9708C8.58266 30.9891 8.6126 31.004 8.64919 31.004C8.68579 31.004 8.71573 31.019 8.71573 31.0373C8.71573 31.0556 8.74567 31.0706 8.78226 31.0706C8.81885 31.0706 8.84879 31.0855 8.84879 31.1038C8.84879 31.1221 8.87873 31.1371 8.91532 31.1371C8.95192 31.1371 8.98186 31.1521 8.98186 31.1704C8.98186 31.1887 9.0118 31.2036 9.04839 31.2036C9.08498 31.2036 9.11492 31.2186 9.11492 31.2369C9.11492 31.2552 9.14486 31.2702 9.18145 31.2702C9.21805 31.2702 9.24798 31.2851 9.24798 31.3034C9.24798 31.3217 9.27792 31.3367 9.31452 31.3367C9.35111 31.3367 9.38105 31.3517 9.38105 31.37C9.38105 31.3883 9.41099 31.4032 9.44758 31.4032C9.48417 31.4032 9.51411 31.4182 9.51411 31.4365C9.51411 31.4548 9.54405 31.4698 9.58065 31.4698C9.61724 31.4698 9.64718 31.4847 9.64718 31.503C9.64718 31.5213 9.67712 31.5363 9.71371 31.5363C9.7503 31.5363 9.78024 31.5513 9.78024 31.5696C9.78024 31.5879 9.81018 31.6028 9.84678 31.6028C9.88337 31.6028 9.91331 31.6178 9.91331 31.6361C9.91331 31.6544 9.95822 31.6694 10.0131 31.6694C10.068 31.6694 10.1129 31.6843 10.1129 31.7026C10.1129 31.7209 10.1428 31.7359 10.1794 31.7359C10.216 31.7359 10.246 31.7509 10.246 31.7692C10.246 31.7875 10.2759 31.8024 10.3125 31.8024C10.3491 31.8024 10.379 31.8174 10.379 31.8357C10.379 31.854 10.4239 31.869 10.4788 31.869C10.5337 31.869 10.5786 31.8839 10.5786 31.9022C10.5786 31.9205 10.6235 31.9355 10.6784 31.9355C10.7333 31.9355 10.7782 31.9505 10.7782 31.9688C10.7782 31.987 10.8082 32.002 10.8448 32.002C10.8814 32.002 10.9113 32.017 10.9113 32.0353C10.9113 32.0536 10.9562 32.0686 11.0111 32.0686C11.066 32.0686 11.1109 32.0835 11.1109 32.1018C11.1109 32.1201 11.1558 32.1351 11.2107 32.1351C11.2656 32.1351 11.3105 32.1501 11.3105 32.1684C11.3105 32.1866 11.3554 32.2016 11.4103 32.2016C11.4652 32.2016 11.5101 32.2166 11.5101 32.2349C11.5101 32.2532 11.57 32.2681 11.6431 32.2681C11.7163 32.2681 11.7762 32.2831 11.7762 32.3014C11.7762 32.3197 11.8211 32.3347 11.876 32.3347C11.9309 32.3347 11.9758 32.3496 11.9758 32.3679C11.9758 32.3862 12.0357 32.4012 12.1089 32.4012C12.1821 32.4012 12.2419 32.4162 12.2419 32.4345C12.2419 32.4528 12.3018 32.4677 12.375 32.4677C12.4482 32.4677 12.5081 32.4827 12.5081 32.501C12.5081 32.5193 12.5679 32.5343 12.6411 32.5343C12.7143 32.5343 12.7742 32.5492 12.7742 32.5675C12.7742 32.5858 12.8341 32.6008 12.9073 32.6008C12.9804 32.6008 13.0403 32.6158 13.0403 32.6341C13.0403 32.6524 13.1152 32.6673 13.2067 32.6673C13.2981 32.6673 13.373 32.6823 13.373 32.7006C13.373 32.7191 13.4617 32.7339 13.5726 32.7339C13.6835 32.7339 13.7722 32.7486 13.7722 32.7671C13.7722 32.7861 13.872 32.8004 14.005 32.8004C14.1381 32.8004 14.2379 32.8147 14.2379 32.8337C14.2379 32.8531 14.3488 32.8669 14.504 32.8669C14.6593 32.8669 14.7702 32.8808 14.7702 32.9002C14.7702 32.9207 14.9365 32.9335 15.2026 32.9335C15.4688 32.9335 15.6351 32.9463 15.6351 32.9667C15.6351 32.988 15.9345 33 16.4667 33C16.999 33 17.2984 32.988 17.2984 32.9667C17.2984 32.9463 17.4647 32.9335 17.7308 32.9335C17.997 32.9335 18.1633 32.9207 18.1633 32.9002C18.1633 32.8808 18.2742 32.8669 18.4294 32.8669C18.5847 32.8669 18.6956 32.8531 18.6956 32.8337C18.6956 32.8147 18.7954 32.8004 18.9284 32.8004C19.0615 32.8004 19.1613 32.7861 19.1613 32.7671C19.1613 32.7486 19.25 32.7339 19.3609 32.7339C19.4718 32.7339 19.5605 32.7191 19.5605 32.7006C19.5605 32.6823 19.6353 32.6673 19.7268 32.6673C19.8183 32.6673 19.8931 32.6524 19.8931 32.6341C19.8931 32.6158 19.953 32.6008 20.0262 32.6008C20.0994 32.6008 20.1593 32.5858 20.1593 32.5675C20.1593 32.5492 20.2341 32.5343 20.3256 32.5343C20.4171 32.5343 20.4919 32.5193 20.4919 32.501C20.4919 32.4827 20.5368 32.4677 20.5917 32.4677C20.6466 32.4677 20.6915 32.4528 20.6915 32.4345C20.6915 32.4162 20.7514 32.4012 20.8246 32.4012C20.8978 32.4012 20.9577 32.3862 20.9577 32.3679C20.9577 32.3496 21.0026 32.3347 21.0575 32.3347C21.1124 32.3347 21.1573 32.3197 21.1573 32.3014C21.1573 32.2831 21.2171 32.2681 21.2903 32.2681C21.3635 32.2681 21.4234 32.2532 21.4234 32.2349C21.4234 32.2166 21.4683 32.2016 21.5232 32.2016C21.5781 32.2016 21.623 32.1866 21.623 32.1684C21.623 32.1501 21.6679 32.1351 21.7228 32.1351C21.7777 32.1351 21.8226 32.1201 21.8226 32.1018C21.8226 32.0835 21.8675 32.0686 21.9224 32.0686C21.9773 32.0686 22.0222 32.0536 22.0222 32.0353C22.0222 32.017 22.0521 32.002 22.0887 32.002C22.1253 32.002 22.1552 31.987 22.1552 31.9688C22.1552 31.9505 22.2002 31.9355 22.255 31.9355C22.3099 31.9355 22.3548 31.9205 22.3548 31.9022C22.3548 31.8839 22.3997 31.869 22.4546 31.869C22.5095 31.869 22.5544 31.854 22.5544 31.8357C22.5544 31.8174 22.5844 31.8024 22.621 31.8024C22.6576 31.8024 22.6875 31.7875 22.6875 31.7692C22.6875 31.7509 22.7324 31.7359 22.7873 31.7359C22.8422 31.7359 22.8871 31.7209 22.8871 31.7026C22.8871 31.6843 22.917 31.6694 22.9536 31.6694C22.9902 31.6694 23.0202 31.6544 23.0202 31.6361C23.0202 31.6178 23.0501 31.6028 23.0867 31.6028C23.1233 31.6028 23.1532 31.5879 23.1532 31.5696C23.1532 31.5513 23.1981 31.5363 23.253 31.5363C23.3079 31.5363 23.3528 31.5213 23.3528 31.503C23.3528 31.4847 23.3828 31.4698 23.4194 31.4698C23.4559 31.4698 23.4859 31.4548 23.4859 31.4365C23.4859 31.4182 23.5158 31.4032 23.5524 31.4032C23.589 31.4032 23.619 31.3883 23.619 31.37C23.619 31.3517 23.6489 31.3367 23.6855 31.3367C23.7221 31.3367 23.752 31.3217 23.752 31.3034C23.752 31.2851 23.782 31.2702 23.8186 31.2702C23.8551 31.2702 23.8851 31.2552 23.8851 31.2369C23.8851 31.2186 23.915 31.2036 23.9516 31.2036C23.9882 31.2036 24.0181 31.1887 24.0181 31.1704C24.0181 31.1521 24.0481 31.1371 24.0847 31.1371C24.1213 31.1371 24.1512 31.1221 24.1512 31.1038C24.1512 31.0855 24.1812 31.0706 24.2177 31.0706C24.2543 31.0706 24.2843 31.0556 24.2843 31.0373C24.2843 31.019 24.3109 31.004 24.3435 31.004C24.376 31.004 24.4242 30.9741 24.4506 30.9375C24.477 30.9009 24.5252 30.871 24.5578 30.871C24.5903 30.871 24.6169 30.856 24.6169 30.8377C24.6169 30.8194 24.6469 30.8044 24.6835 30.8044C24.7201 30.8044 24.75 30.7895 24.75 30.7712C24.75 30.7529 24.7766 30.7379 24.8092 30.7379C24.8417 30.7379 24.89 30.708 24.9163 30.6714C24.9427 30.6348 24.9909 30.6048 25.0235 30.6048C25.056 30.6048 25.0827 30.5899 25.0827 30.5716C25.0827 30.5533 25.1093 30.5383 25.1418 30.5383C25.1744 30.5383 25.2226 30.5084 25.249 30.4718C25.2754 30.4352 25.3203 30.4052 25.3488 30.4052C25.3773 30.4052 25.4222 30.3753 25.4486 30.3387C25.475 30.3021 25.5199 30.2722 25.5484 30.2722C25.5769 30.2722 25.6218 30.2422 25.6482 30.2056C25.6746 30.1691 25.7195 30.1391 25.748 30.1391C25.7765 30.1391 25.8214 30.1092 25.8478 30.0726C25.8742 30.036 25.9164 30.0061 25.9416 30.0061C25.9668 30.0061 26.0294 29.9611 26.0806 29.9063C26.1319 29.8514 26.1945 29.8065 26.2197 29.8065C26.2449 29.8065 26.2871 29.7765 26.3135 29.7399C26.3399 29.7033 26.3818 29.6734 26.4066 29.6734C26.4315 29.6734 26.5093 29.6135 26.5796 29.5403C26.65 29.4671 26.7248 29.4073 26.746 29.4073C26.7671 29.4073 26.842 29.3474 26.9123 29.2742C26.9826 29.201 27.057 29.1411 27.0776 29.1411C27.0983 29.1411 27.2184 29.0363 27.3448 28.9083C27.4711 28.7802 27.5902 28.6754 27.6096 28.6754C27.6554 28.6754 28.6089 27.7221 28.6089 27.6763C28.6089 27.6571 28.7286 27.5228 28.875 27.378C29.0214 27.2332 29.1411 27.098 29.1411 27.0774C29.1411 27.0569 29.201 26.9826 29.2742 26.9123C29.3474 26.842 29.4073 26.7668 29.4073 26.7453C29.4073 26.7237 29.4522 26.6642 29.5071 26.6129C29.5619 26.5616 29.6069 26.5018 29.6069 26.4798C29.6069 26.4579 29.6518 26.398 29.7067 26.3468C29.7615 26.2955 29.8065 26.2356 29.8065 26.2137C29.8065 26.1918 29.8514 26.1319 29.9063 26.0806C29.9611 26.0294 30.0061 25.9668 30.0061 25.9416C30.0061 25.9164 30.036 25.8742 30.0726 25.8478C30.1092 25.8214 30.1391 25.7765 30.1391 25.748C30.1391 25.7195 30.1691 25.6746 30.2056 25.6482C30.2422 25.6218 30.2722 25.5769 30.2722 25.5484C30.2722 25.5199 30.3021 25.475 30.3387 25.4486C30.3753 25.4222 30.4052 25.374 30.4052 25.3414C30.4052 25.3089 30.4202 25.2823 30.4385 25.2823C30.4568 25.2823 30.4718 25.2556 30.4718 25.2231C30.4718 25.1905 30.5017 25.1423 30.5383 25.1159C30.5749 25.0895 30.6048 25.0446 30.6048 25.0161C30.6048 24.9876 30.6348 24.9427 30.6714 24.9163C30.708 24.89 30.7379 24.8417 30.7379 24.8092C30.7379 24.7766 30.7529 24.75 30.7712 24.75C30.7895 24.75 30.8044 24.7201 30.8044 24.6835C30.8044 24.6469 30.8194 24.6169 30.8377 24.6169C30.856 24.6169 30.871 24.5903 30.871 24.5578C30.871 24.5252 30.9009 24.477 30.9375 24.4506C30.9741 24.4242 31.004 24.376 31.004 24.3435C31.004 24.3109 31.019 24.2843 31.0373 24.2843C31.0556 24.2843 31.0706 24.2543 31.0706 24.2177C31.0706 24.1812 31.0855 24.1512 31.1038 24.1512C31.1221 24.1512 31.1371 24.1213 31.1371 24.0847C31.1371 24.0481 31.1521 24.0181 31.1704 24.0181C31.1887 24.0181 31.2036 23.9882 31.2036 23.9516C31.2036 23.915 31.2186 23.8851 31.2369 23.8851C31.2552 23.8851 31.2702 23.8551 31.2702 23.8186C31.2702 23.782 31.2851 23.752 31.3034 23.752C31.3217 23.752 31.3367 23.7221 31.3367 23.6855C31.3367 23.6489 31.3517 23.619 31.37 23.619C31.3883 23.619 31.4032 23.589 31.4032 23.5524C31.4032 23.5158 31.4182 23.4859 31.4365 23.4859C31.4548 23.4859 31.4698 23.441 31.4698 23.3861C31.4698 23.3312 31.4847 23.2863 31.503 23.2863C31.5213 23.2863 31.5363 23.2564 31.5363 23.2198C31.5363 23.1832 31.5513 23.1532 31.5696 23.1532C31.5879 23.1532 31.6028 23.1233 31.6028 23.0867C31.6028 23.0501 31.6178 23.0202 31.6361 23.0202C31.6544 23.0202 31.6694 22.9902 31.6694 22.9536C31.6694 22.917 31.6843 22.8871 31.7026 22.8871C31.7209 22.8871 31.7359 22.8422 31.7359 22.7873C31.7359 22.7324 31.7509 22.6875 31.7692 22.6875C31.7875 22.6875 31.8024 22.6576 31.8024 22.621C31.8024 22.5844 31.8174 22.5544 31.8357 22.5544C31.854 22.5544 31.869 22.5095 31.869 22.4546C31.869 22.3997 31.8839 22.3548 31.9022 22.3548C31.9205 22.3548 31.9355 22.3099 31.9355 22.255C31.9355 22.2002 31.9505 22.1552 31.9688 22.1552C31.987 22.1552 32.002 22.1253 32.002 22.0887C32.002 22.0521 32.017 22.0222 32.0353 22.0222C32.0536 22.0222 32.0686 21.9773 32.0686 21.9224C32.0686 21.8675 32.0835 21.8226 32.1018 21.8226C32.1201 21.8226 32.1351 21.7777 32.1351 21.7228C32.1351 21.6679 32.1501 21.623 32.1684 21.623C32.1866 21.623 32.2016 21.5781 32.2016 21.5232C32.2016 21.4683 32.2166 21.4234 32.2349 21.4234C32.2532 21.4234 32.2681 21.3635 32.2681 21.2903C32.2681 21.2171 32.2831 21.1573 32.3014 21.1573C32.3197 21.1573 32.3347 21.1124 32.3347 21.0575C32.3347 21.0026 32.3496 20.9577 32.3679 20.9577C32.3862 20.9577 32.4012 20.8978 32.4012 20.8246C32.4012 20.7514 32.4162 20.6915 32.4345 20.6915C32.4528 20.6915 32.4677 20.6317 32.4677 20.5585C32.4677 20.4853 32.4827 20.4254 32.501 20.4254C32.5193 20.4254 32.5343 20.3655 32.5343 20.2923C32.5343 20.2192 32.5492 20.1593 32.5675 20.1593C32.5858 20.1593 32.6008 20.0994 32.6008 20.0262C32.6008 19.953 32.6158 19.8931 32.6341 19.8931C32.6524 19.8931 32.6673 19.8183 32.6673 19.7268C32.6673 19.6353 32.6823 19.5605 32.7006 19.5605C32.7191 19.5605 32.7339 19.4718 32.7339 19.3609C32.7339 19.25 32.7486 19.1613 32.7671 19.1613C32.7861 19.1613 32.8004 19.0615 32.8004 18.9284C32.8004 18.7954 32.8147 18.6956 32.8337 18.6956C32.8531 18.6956 32.8669 18.5847 32.8669 18.4294C32.8669 18.2742 32.8808 18.1633 32.9002 18.1633C32.9207 18.1633 32.9335 17.997 32.9335 17.7308C32.9335 17.4647 32.9463 17.2984 32.9667 17.2984C32.988 17.2984 33 16.999 33 16.4667C33 15.9345 32.988 15.6351 32.9667 15.6351C32.9463 15.6351 32.9335 15.4688 32.9335 15.2026C32.9335 14.9365 32.9207 14.7702 32.9002 14.7702C32.8808 14.7702 32.8669 14.6593 32.8669 14.504C32.8669 14.3488 32.8531 14.2379 32.8337 14.2379C32.8147 14.2379 32.8004 14.1381 32.8004 14.005C32.8004 13.872 32.7861 13.7722 32.7671 13.7722C32.7486 13.7722 32.7339 13.6835 32.7339 13.5726C32.7339 13.4617 32.7191 13.373 32.7006 13.373C32.6823 13.373 32.6673 13.2981 32.6673 13.2067C32.6673 13.1152 32.6524 13.0403 32.6341 13.0403C32.6158 13.0403 32.6008 12.9804 32.6008 12.9073C32.6008 12.8341 32.5858 12.7742 32.5675 12.7742C32.5492 12.7742 32.5343 12.7143 32.5343 12.6411C32.5343 12.5679 32.5193 12.5081 32.501 12.5081C32.4827 12.5081 32.4677 12.4482 32.4677 12.375C32.4677 12.3018 32.4528 12.2419 32.4345 12.2419C32.4162 12.2419 32.4012 12.1821 32.4012 12.1089C32.4012 12.0357 32.3862 11.9758 32.3679 11.9758C32.3496 11.9758 32.3347 11.9309 32.3347 11.876C32.3347 11.8211 32.3197 11.7762 32.3014 11.7762C32.2831 11.7762 32.2681 11.7163 32.2681 11.6431C32.2681 11.57 32.2532 11.5101 32.2349 11.5101C32.2166 11.5101 32.2016 11.4652 32.2016 11.4103C32.2016 11.3554 32.1866 11.3105 32.1684 11.3105C32.1501 11.3105 32.1351 11.2656 32.1351 11.2107C32.1351 11.1558 32.1201 11.1109 32.1018 11.1109C32.0835 11.1109 32.0686 11.066 32.0686 11.0111C32.0686 10.9562 32.0536 10.9113 32.0353 10.9113C32.017 10.9113 32.002 10.8814 32.002 10.8448C32.002 10.8082 31.987 10.7782 31.9688 10.7782C31.9505 10.7782 31.9355 10.7333 31.9355 10.6784C31.9355 10.6235 31.9205 10.5786 31.9022 10.5786C31.8839 10.5786 31.869 10.5337 31.869 10.4788C31.869 10.4239 31.854 10.379 31.8357 10.379C31.8174 10.379 31.8024 10.3491 31.8024 10.3125C31.8024 10.2759 31.7875 10.246 31.7692 10.246C31.7509 10.246 31.7359 10.216 31.7359 10.1794C31.7359 10.1428 31.7209 10.1129 31.7026 10.1129C31.6843 10.1129 31.6694 10.068 31.6694 10.0131C31.6694 9.95822 31.6544 9.91331 31.6361 9.91331C31.6178 9.91331 31.6028 9.88337 31.6028 9.84678C31.6028 9.81018 31.5879 9.78024 31.5696 9.78024C31.5513 9.78024 31.5363 9.7503 31.5363 9.71371C31.5363 9.67712 31.5213 9.64718 31.503 9.64718C31.4847 9.64718 31.4698 9.61724 31.4698 9.58065C31.4698 9.54405 31.4548 9.51411 31.4365 9.51411C31.4182 9.51411 31.4032 9.48417 31.4032 9.44758C31.4032 9.41099 31.3883 9.38105 31.37 9.38105C31.3517 9.38105 31.3367 9.35111 31.3367 9.31452C31.3367 9.27792 31.3217 9.24798 31.3034 9.24798C31.2851 9.24798 31.2702 9.21805 31.2702 9.18145C31.2702 9.14486 31.2552 9.11492 31.2369 9.11492C31.2186 9.11492 31.2036 9.08498 31.2036 9.04839C31.2036 9.0118 31.1887 8.98186 31.1704 8.98186C31.1521 8.98186 31.1371 8.95192 31.1371 8.91532C31.1371 8.87873 31.1221 8.84879 31.1038 8.84879C31.0855 8.84879 31.0706 8.81885 31.0706 8.78226C31.0706 8.74567 31.0556 8.71573 31.0373 8.71573C31.019 8.71573 31.004 8.68579 31.004 8.64919C31.004 8.6126 30.9891 8.58266 30.9708 8.58266C30.9525 8.58266 30.9375 8.55272 30.9375 8.51613C30.9375 8.47954 30.9225 8.4496 30.9042 8.4496C30.8859 8.4496 30.871 8.42295 30.871 8.39042C30.871 8.35785 30.841 8.30965 30.8044 8.28327C30.7678 8.25689 30.7379 8.20868 30.7379 8.17612C30.7379 8.14358 30.7229 8.11694 30.7046 8.11694C30.6863 8.11694 30.6714 8.09029 30.6714 8.05776C30.6714 8.02519 30.6414 7.97699 30.6048 7.95061C30.5682 7.92423 30.5383 7.87602 30.5383 7.84346C30.5383 7.81092 30.5233 7.78427 30.505 7.78427C30.4867 7.78427 30.4718 7.75763 30.4718 7.72509C30.4718 7.69253 30.4418 7.64432 30.4052 7.61794C30.3687 7.59156 30.3387 7.54665 30.3387 7.51815C30.3387 7.48964 30.3088 7.44473 30.2722 7.41835C30.2356 7.39197 30.2056 7.34706 30.2056 7.31855C30.2056 7.29004 30.1757 7.24513 30.1391 7.21875C30.1025 7.19237 30.0726 7.15016 30.0726 7.12494C30.0726 7.09976 30.0277 7.03715 29.9728 6.98589C29.9179 6.93462 29.873 6.87202 29.873 6.84684C29.873 6.82162 29.843 6.7794 29.8065 6.75302C29.7699 6.72664 29.7399 6.68476 29.7399 6.65991C29.7399 6.63506 29.68 6.55722 29.6069 6.4869C29.5337 6.41657 29.4738 6.34172 29.4738 6.32056C29.4738 6.29941 29.4139 6.22456 29.3407 6.15423C29.2675 6.08391 29.2077 6.00953 29.2077 5.9889C29.2077 5.96828 29.1029 5.84809 28.9748 5.72177C28.8467 5.59546 28.7419 5.47634 28.7419 5.45704C28.7419 5.41104 27.5222 4.19153 27.4762 4.19153C27.4568 4.19153 27.3527 4.10171 27.245 3.99194C27.1372 3.88216 27.0321 3.79234 27.0113 3.79234C26.9906 3.79234 26.9161 3.73246 26.8458 3.65927C26.7754 3.58609 26.7003 3.52621 26.6788 3.52621C26.6572 3.52621 26.5976 3.4813 26.5464 3.42641C26.4951 3.37152 26.4352 3.32661 26.4133 3.32661C26.3914 3.32661 26.3315 3.2817 26.2802 3.22681C26.229 3.17193 26.1664 3.12702 26.1412 3.12702C26.116 3.12702 26.0738 3.09708 26.0474 3.06048C26.021 3.02389 25.9761 2.99395 25.9476 2.99395C25.9191 2.99395 25.8742 2.96401 25.8478 2.92742C25.8214 2.89083 25.7765 2.86089 25.748 2.86089C25.7195 2.86089 25.6746 2.83095 25.6482 2.79435C25.6218 2.75776 25.5769 2.72782 25.5484 2.72782C25.5199 2.72782 25.475 2.69788 25.4486 2.66129C25.4222 2.6247 25.3773 2.59476 25.3488 2.59476C25.3203 2.59476 25.2754 2.56482 25.249 2.52823C25.2226 2.49163 25.1777 2.46169 25.1492 2.46169C25.1207 2.46169 25.0758 2.43175 25.0494 2.39516C25.023 2.35857 24.9748 2.32863 24.9422 2.32863C24.9097 2.32863 24.8831 2.31366 24.8831 2.29536C24.8831 2.27707 24.8531 2.2621 24.8165 2.2621C24.7799 2.2621 24.75 2.24713 24.75 2.22883C24.75 2.21053 24.7234 2.19556 24.6908 2.19556C24.6583 2.19556 24.6101 2.16563 24.5837 2.12903C24.5573 2.09244 24.5091 2.0625 24.4765 2.0625C24.444 2.0625 24.4173 2.04753 24.4173 2.02923C24.4173 2.01094 24.3874 1.99597 24.3508 1.99597C24.3142 1.99597 24.2843 1.981 24.2843 1.9627C24.2843 1.94441 24.2543 1.92944 24.2177 1.92944C24.1812 1.92944 24.1512 1.91447 24.1512 1.89617C24.1512 1.87787 24.1213 1.8629 24.0847 1.8629C24.0481 1.8629 24.0181 1.84793 24.0181 1.82964C24.0181 1.81134 23.9882 1.79637 23.9516 1.79637C23.915 1.79637 23.8851 1.7814 23.8851 1.7631C23.8851 1.74481 23.8551 1.72984 23.8186 1.72984C23.782 1.72984 23.752 1.71487 23.752 1.69657C23.752 1.67828 23.7221 1.66331 23.6855 1.66331C23.6489 1.66331 23.619 1.64834 23.619 1.63004C23.619 1.61174 23.589 1.59677 23.5524 1.59677C23.5158 1.59677 23.4859 1.5818 23.4859 1.56351C23.4859 1.54521 23.4559 1.53024 23.4194 1.53024C23.3828 1.53024 23.3528 1.51527 23.3528 1.49698C23.3528 1.47868 23.3079 1.46371 23.253 1.46371C23.1981 1.46371 23.1532 1.44874 23.1532 1.43044C23.1532 1.41215 23.1233 1.39718 23.0867 1.39718C23.0501 1.39718 23.0202 1.38221 23.0202 1.36391C23.0202 1.34562 22.9902 1.33065 22.9536 1.33065C22.917 1.33065 22.8871 1.31568 22.8871 1.29738C22.8871 1.27908 22.8422 1.26411 22.7873 1.26411C22.7324 1.26411 22.6875 1.24914 22.6875 1.23085C22.6875 1.21255 22.6576 1.19758 22.621 1.19758C22.5844 1.19758 22.5544 1.18261 22.5544 1.16431C22.5544 1.14602 22.5095 1.13105 22.4546 1.13105C22.3997 1.13105 22.3548 1.11608 22.3548 1.09778C22.3548 1.07949 22.3249 1.06452 22.2883 1.06452C22.2517 1.06452 22.2218 1.04955 22.2218 1.03125C22.2218 1.01295 22.1769 0.997984 22.122 0.997984C22.0671 0.997984 22.0222 0.983014 22.0222 0.964718C22.0222 0.946421 21.9773 0.931452 21.9224 0.931452C21.8675 0.931452 21.8226 0.916482 21.8226 0.898186C21.8226 0.879889 21.7777 0.864919 21.7228 0.864919C21.6679 0.864919 21.623 0.84995 21.623 0.831653C21.623 0.813357 21.5781 0.798387 21.5232 0.798387C21.4683 0.798387 21.4234 0.783417 21.4234 0.765121C21.4234 0.746825 21.3785 0.731855 21.3236 0.731855C21.2687 0.731855 21.2238 0.716885 21.2238 0.698589C21.2238 0.680292 21.1639 0.665323 21.0907 0.665323C21.0175 0.665323 20.9577 0.650353 20.9577 0.632056C20.9577 0.61376 20.9128 0.59879 20.8579 0.59879C20.803 0.59879 20.7581 0.583821 20.7581 0.565524C20.7581 0.547228 20.6982 0.532258 20.625 0.532258C20.5518 0.532258 20.4919 0.517288 20.4919 0.498992C20.4919 0.480696 20.4171 0.465726 20.3256 0.465726C20.2341 0.465726 20.1593 0.450756 20.1593 0.43246C20.1593 0.414163 20.0994 0.399194 20.0262 0.399194C19.953 0.399194 19.8931 0.384224 19.8931 0.365927C19.8931 0.347631 19.8183 0.332661 19.7268 0.332661C19.6353 0.332661 19.5605 0.317692 19.5605 0.299395C19.5605 0.280899 19.4718 0.266129 19.3609 0.266129C19.25 0.266129 19.1613 0.251359 19.1613 0.232863C19.1613 0.213868 19.0615 0.199597 18.9284 0.199597C18.7954 0.199597 18.6956 0.185326 18.6956 0.166331C18.6956 0.146937 18.5847 0.133065 18.4294 0.133065C18.2742 0.133065 18.1633 0.119193 18.1633 0.0997984C18.1633 0.0792067 17.9859 0.0665323 17.6976 0.0665323C17.4093 0.0665323 17.2319 0.0538579 17.2319 0.0332661C17.2319 0.0120091 16.9435 0 16.4335 0C15.9234 0 15.6351 0.0120091 15.6351 0.0332661ZM17.6976 9.94657C17.6976 9.96487 17.7425 9.97984 17.7974 9.97984C17.8523 9.97984 17.8972 9.99481 17.8972 10.0131C17.8972 10.0314 17.9201 10.0464 17.9482 10.0464C18.0144 10.0464 18.2298 10.2618 18.2298 10.328C18.2298 10.3561 18.2448 10.379 18.2631 10.379C18.2814 10.379 18.2964 10.409 18.2964 10.4456C18.2964 10.4822 18.3113 10.5121 18.3296 10.5121C18.3479 10.5121 18.3629 10.557 18.3629 10.6119C18.3629 10.6668 18.3779 10.7117 18.3962 10.7117C18.4181 10.7117 18.4294 11.5433 18.4294 13.1401C18.4294 14.7369 18.4408 15.5685 18.4627 15.5685C18.481 15.5685 18.496 15.6135 18.496 15.6683C18.496 15.7232 18.5109 15.7681 18.5292 15.7681C18.5475 15.7681 18.5625 15.7981 18.5625 15.8347C18.5625 15.8713 18.5775 15.9012 18.5958 15.9012C18.6141 15.9012 18.629 15.9243 18.629 15.9526C18.629 16.0192 18.7772 16.1673 18.8438 16.1673C18.872 16.1673 18.8952 16.1823 18.8952 16.2006C18.8952 16.2196 18.995 16.2339 19.128 16.2339C19.2611 16.2339 19.3609 16.2196 19.3609 16.2006C19.3609 16.1823 19.3836 16.1673 19.4113 16.1673C19.4686 16.1673 19.9597 15.6888 19.9597 15.633C19.9597 15.613 20.0196 15.5391 20.0927 15.4688C20.1659 15.3984 20.2258 15.3233 20.2258 15.3018C20.2258 15.2802 20.2707 15.2206 20.3256 15.1694C20.3805 15.1181 20.4254 15.0555 20.4254 15.0303C20.4254 15.0051 20.4553 14.9629 20.4919 14.9365C20.5285 14.9101 20.5585 14.8652 20.5585 14.8367C20.5585 14.8082 20.5884 14.7633 20.625 14.7369C20.6616 14.7105 20.6915 14.6656 20.6915 14.6371C20.6915 14.6086 20.7215 14.5637 20.7581 14.5373C20.7947 14.5109 20.8246 14.466 20.8246 14.4375C20.8246 14.409 20.8545 14.3641 20.8911 14.3377C20.9277 14.3113 20.9577 14.2631 20.9577 14.2306C20.9577 14.198 20.9726 14.1714 20.9909 14.1714C21.0092 14.1714 21.0242 14.1414 21.0242 14.1048C21.0242 14.0682 21.0392 14.0383 21.0575 14.0383C21.0758 14.0383 21.0907 14.0117 21.0907 13.9791C21.0907 13.9466 21.1207 13.8984 21.1573 13.872C21.1939 13.8456 21.2238 13.7974 21.2238 13.7648C21.2238 13.7323 21.2388 13.7056 21.2571 13.7056C21.2754 13.7056 21.2903 13.6757 21.2903 13.6391C21.2903 13.6025 21.3053 13.5726 21.3236 13.5726C21.3419 13.5726 21.3569 13.5426 21.3569 13.506C21.3569 13.4695 21.3718 13.4395 21.3901 13.4395C21.4084 13.4395 21.4234 13.4096 21.4234 13.373C21.4234 13.3364 21.4384 13.3065 21.4567 13.3065C21.475 13.3065 21.4899 13.2765 21.4899 13.2399C21.4899 13.2033 21.5049 13.1734 21.5232 13.1734C21.5415 13.1734 21.5565 13.1434 21.5565 13.1069C21.5565 13.0703 21.5714 13.0403 21.5897 13.0403C21.608 13.0403 21.623 13.0104 21.623 12.9738C21.623 12.9372 21.638 12.9073 21.6563 12.9073C21.6745 12.9073 21.6895 12.8773 21.6895 12.8407C21.6895 12.8041 21.7045 12.7742 21.7228 12.7742C21.7411 12.7742 21.7561 12.7443 21.7561 12.7077C21.7561 12.6711 21.771 12.6411 21.7893 12.6411C21.8076 12.6411 21.8226 12.6112 21.8226 12.5746C21.8226 12.538 21.8376 12.5081 21.8558 12.5081C21.8741 12.5081 21.8891 12.4781 21.8891 12.4415C21.8891 12.4049 21.9041 12.375 21.9224 12.375C21.9407 12.375 21.9556 12.3451 21.9556 12.3085C21.9556 12.2719 21.9706 12.2419 21.9889 12.2419C22.0072 12.2419 22.0222 12.212 22.0222 12.1754C22.0222 12.1388 22.0371 12.1089 22.0554 12.1089C22.0737 12.1089 22.0887 12.0789 22.0887 12.0423C22.0887 12.0057 22.1037 11.9758 22.122 11.9758C22.1403 11.9758 22.1552 11.9459 22.1552 11.9093C22.1552 11.8727 22.1702 11.8427 22.1885 11.8427C22.2068 11.8427 22.2218 11.8128 22.2218 11.7762C22.2218 11.7396 22.2367 11.7097 22.255 11.7097C22.2733 11.7097 22.2883 11.6648 22.2883 11.6099C22.2883 11.555 22.3033 11.5101 22.3216 11.5101C22.3399 11.5101 22.3548 11.4801 22.3548 11.4435C22.3548 11.407 22.3698 11.377 22.3881 11.377C22.4064 11.377 22.4214 11.3471 22.4214 11.3105C22.4214 11.2739 22.4363 11.244 22.4546 11.244C22.4729 11.244 22.4879 11.199 22.4879 11.1442C22.4879 11.0893 22.5029 11.0444 22.5212 11.0444C22.5395 11.0444 22.5544 11.0144 22.5544 10.9778C22.5544 10.9412 22.5694 10.9113 22.5877 10.9113C22.606 10.9113 22.621 10.8735 22.621 10.8273C22.621 10.7333 22.8836 10.4456 22.9694 10.4456C22.9973 10.4456 23.0202 10.4306 23.0202 10.4123C23.0202 10.394 23.08 10.379 23.1532 10.379C23.2264 10.379 23.2863 10.3641 23.2863 10.3458C23.2863 10.324 23.9627 10.3125 25.249 10.3125C26.5353 10.3125 27.2117 10.324 27.2117 10.3458C27.2117 10.3641 27.2416 10.379 27.2782 10.379C27.3148 10.379 27.3448 10.394 27.3448 10.4123C27.3448 10.4306 27.3897 10.4456 27.4446 10.4456C27.4994 10.4456 27.5444 10.4605 27.5444 10.4788C27.5444 10.4971 27.6042 10.5121 27.6774 10.5121C27.7506 10.5121 27.8105 10.5271 27.8105 10.5454C27.8105 10.5637 27.8336 10.5786 27.8619 10.5786C27.957 10.5786 28.0766 10.7338 28.0766 10.8571C28.0766 10.9204 28.0953 10.981 28.1182 10.9917C28.1515 11.0072 28.1515 11.015 28.1182 11.0305C28.0932 11.0422 28.0766 11.1151 28.0766 11.2134C28.0766 11.3034 28.0616 11.377 28.0433 11.377C28.0251 11.377 28.0101 11.407 28.0101 11.4435C28.0101 11.4801 27.9951 11.5101 27.9768 11.5101C27.9585 11.5101 27.9436 11.555 27.9436 11.6099C27.9436 11.6648 27.9286 11.7097 27.9103 11.7097C27.892 11.7097 27.877 11.7396 27.877 11.7762C27.877 11.8128 27.862 11.8427 27.8438 11.8427C27.8255 11.8427 27.8105 11.8727 27.8105 11.9093C27.8105 11.9459 27.7955 11.9758 27.7772 11.9758C27.7589 11.9758 27.744 12.0057 27.744 12.0423C27.744 12.0789 27.729 12.1089 27.7107 12.1089C27.6924 12.1089 27.6774 12.1388 27.6774 12.1754C27.6774 12.212 27.6625 12.2419 27.6442 12.2419C27.6259 12.2419 27.6109 12.2719 27.6109 12.3085C27.6109 12.3451 27.5959 12.375 27.5776 12.375C27.5593 12.375 27.5444 12.4016 27.5444 12.4342C27.5444 12.4667 27.5144 12.515 27.4778 12.5413C27.4412 12.5677 27.4113 12.6126 27.4113 12.6411C27.4113 12.6696 27.3814 12.7145 27.3448 12.7409C27.3082 12.7673 27.2782 12.8122 27.2782 12.8407C27.2782 12.8692 27.2483 12.9141 27.2117 12.9405C27.1751 12.9669 27.1452 13.0118 27.1452 13.0403C27.1452 13.0688 27.1152 13.1137 27.0786 13.1401C27.042 13.1665 27.0121 13.2114 27.0121 13.2399C27.0121 13.2684 26.9822 13.3133 26.9456 13.3397C26.909 13.3661 26.879 13.411 26.879 13.4395C26.879 13.468 26.8491 13.5129 26.8125 13.5393C26.7759 13.5657 26.746 13.6106 26.746 13.6391C26.746 13.6676 26.716 13.7125 26.6794 13.7389C26.6428 13.7653 26.6129 13.8075 26.6129 13.8327C26.6129 13.8579 26.568 13.9205 26.5131 13.9718C26.4582 14.023 26.4133 14.0829 26.4133 14.1048C26.4133 14.1268 26.3684 14.1866 26.3135 14.2379C26.2586 14.2892 26.2137 14.349 26.2137 14.371C26.2137 14.3929 26.1688 14.4528 26.1139 14.504C26.059 14.5553 26.0141 14.6152 26.0141 14.6371C26.0141 14.659 25.9692 14.7189 25.9143 14.7702C25.8594 14.8214 25.8145 14.8813 25.8145 14.9032C25.8145 14.9251 25.7696 14.985 25.7147 15.0363C25.6598 15.0876 25.6149 15.1474 25.6149 15.1694C25.6149 15.1913 25.57 15.2512 25.5151 15.3024C25.4602 15.3537 25.4153 15.4136 25.4153 15.4355C25.4153 15.4574 25.3704 15.5173 25.3155 15.5685C25.2606 15.6198 25.2157 15.6797 25.2157 15.7016C25.2157 15.7235 25.1708 15.7834 25.1159 15.8347C25.061 15.8859 25.0161 15.9458 25.0161 15.9677C25.0161 15.9897 24.9712 16.0495 24.9163 16.1008C24.8614 16.1521 24.8165 16.2147 24.8165 16.2399C24.8165 16.2651 24.7866 16.3073 24.75 16.3337C24.7134 16.3601 24.6835 16.405 24.6835 16.4335C24.6835 16.462 24.6535 16.5069 24.6169 16.5333C24.5803 16.5596 24.5504 16.6046 24.5504 16.6331C24.5504 16.6616 24.5205 16.7065 24.4839 16.7329C24.4473 16.7592 24.4173 16.8074 24.4173 16.84C24.4173 16.8725 24.4024 16.8992 24.3841 16.8992C24.3658 16.8992 24.3508 16.9441 24.3508 16.999C24.3508 17.0539 24.3358 17.0988 24.3175 17.0988C24.299 17.0988 24.2843 17.1875 24.2843 17.2984C24.2843 17.4093 24.299 17.498 24.3175 17.498C24.3358 17.498 24.3508 17.5396 24.3508 17.5904C24.3508 17.6447 24.3783 17.7027 24.4173 17.7308C24.4539 17.7572 24.4839 17.7981 24.4839 17.8216C24.4839 17.8821 25.5038 18.8952 25.5648 18.8952C25.5927 18.8952 25.6149 18.9246 25.6149 18.9617C25.6149 18.9989 25.6371 19.0282 25.6653 19.0282C25.7215 19.0282 26.3468 19.6395 26.3468 19.6945C26.3468 19.7139 26.4665 19.8481 26.6129 19.9929C26.7593 20.1378 26.879 20.2728 26.879 20.2931C26.879 20.3133 26.9539 20.4028 27.0454 20.4919C27.1368 20.5811 27.2117 20.6709 27.2117 20.6915C27.2117 20.7122 27.2865 20.802 27.378 20.8911C27.4695 20.9802 27.5444 21.0733 27.5444 21.0978C27.5444 21.1225 27.5743 21.1641 27.6109 21.1905C27.6475 21.2169 27.6774 21.2618 27.6774 21.2903C27.6774 21.3188 27.7074 21.3637 27.744 21.3901C27.7805 21.4165 27.8105 21.4647 27.8105 21.4973C27.8105 21.5298 27.8255 21.5565 27.8438 21.5565C27.862 21.5565 27.877 21.5864 27.877 21.623C27.877 21.6596 27.892 21.6895 27.9103 21.6895C27.9286 21.6895 27.9436 21.7195 27.9436 21.7561C27.9436 21.7926 27.9585 21.8226 27.9768 21.8226C27.9951 21.8226 28.0101 21.8825 28.0101 21.9556C28.0101 22.0288 28.0251 22.0887 28.0433 22.0887C28.0616 22.0887 28.0766 22.1486 28.0766 22.2218C28.0766 22.295 28.0616 22.3548 28.0433 22.3548C28.0251 22.3548 28.0101 22.4147 28.0101 22.4879C28.0101 22.5611 27.9951 22.621 27.9768 22.621C27.9585 22.621 27.9436 22.6438 27.9436 22.6717C27.9436 22.7575 27.6558 23.0202 27.5619 23.0202C27.5156 23.0202 27.4778 23.0351 27.4778 23.0534C27.4778 23.0752 26.8125 23.0867 25.5484 23.0867C24.2843 23.0867 23.619 23.0752 23.619 23.0534C23.619 23.0351 23.5441 23.0202 23.4526 23.0202C23.3611 23.0202 23.2863 23.0052 23.2863 22.9869C23.2863 22.9686 23.2264 22.9536 23.1532 22.9536C23.08 22.9536 23.0202 22.9387 23.0202 22.9204C23.0202 22.9021 22.9902 22.8871 22.9536 22.8871C22.917 22.8871 22.8871 22.8721 22.8871 22.8538C22.8871 22.8355 22.8572 22.8206 22.8206 22.8206C22.784 22.8206 22.754 22.8056 22.754 22.7873C22.754 22.769 22.7241 22.754 22.6875 22.754C22.6509 22.754 22.621 22.7391 22.621 22.7208C22.621 22.7025 22.597 22.6875 22.5678 22.6875C22.5385 22.6875 22.4726 22.6426 22.4214 22.5877C22.3701 22.5328 22.3116 22.4879 22.2914 22.4879C22.2438 22.4879 20.9577 21.2024 20.9577 21.1549C20.9577 21.135 20.8978 21.0613 20.8246 20.9909C20.7514 20.9206 20.6915 20.8466 20.6915 20.8263C20.6915 20.7785 20.405 20.4919 20.3571 20.4919C20.3369 20.4919 20.2629 20.4321 20.1925 20.3589C20.1222 20.2857 20.0471 20.2258 20.0255 20.2258C20.004 20.2258 19.9444 20.1809 19.8931 20.126C19.8358 20.0646 19.7666 20.0262 19.7135 20.0262C19.6659 20.0262 19.627 20.0112 19.627 19.9929C19.627 19.9746 19.5522 19.9597 19.4607 19.9597C19.3692 19.9597 19.2944 19.9746 19.2944 19.9929C19.2944 20.0112 19.2565 20.0262 19.2103 20.0262C19.1163 20.0262 18.8286 20.2888 18.8286 20.3746C18.8286 20.4025 18.8137 20.4254 18.7954 20.4254C18.7771 20.4254 18.7621 20.4553 18.7621 20.4919C18.7621 20.5285 18.7471 20.5585 18.7288 20.5585C18.7105 20.5585 18.6956 20.5884 18.6956 20.625C18.6956 20.6616 18.6806 20.6915 18.6623 20.6915C18.644 20.6915 18.629 20.7364 18.629 20.7913C18.629 20.8462 18.6141 20.8911 18.5958 20.8911C18.5775 20.8911 18.5625 20.951 18.5625 21.0242C18.5625 21.0974 18.5475 21.1573 18.5292 21.1573C18.5098 21.1573 18.496 21.2681 18.496 21.4234C18.496 21.5786 18.4821 21.6895 18.4627 21.6895C18.4425 21.6895 18.4294 21.8337 18.4294 22.0554C18.4294 22.2772 18.4163 22.4214 18.3962 22.4214C18.3779 22.4214 18.3629 22.4663 18.3629 22.5212C18.3629 22.5761 18.3479 22.621 18.3296 22.621C18.3113 22.621 18.2964 22.6445 18.2964 22.6732C18.2964 22.7374 18.2173 22.8206 18.1564 22.8206C18.1317 22.8206 18.0899 22.8505 18.0635 22.8871C18.0353 22.9262 17.9774 22.9536 17.9231 22.9536C17.8723 22.9536 17.8306 22.9686 17.8306 22.9869C17.8306 23.0052 17.7708 23.0202 17.6976 23.0202C17.6244 23.0202 17.5645 23.0351 17.5645 23.0534C17.5645 23.0743 17.3538 23.0867 16.999 23.0867C16.6441 23.0867 16.4335 23.0743 16.4335 23.0534C16.4335 23.0331 16.2782 23.0202 16.0343 23.0202C15.7903 23.0202 15.6351 23.0072 15.6351 22.9869C15.6351 22.9679 15.5353 22.9536 15.4022 22.9536C15.2692 22.9536 15.1694 22.9394 15.1694 22.9204C15.1694 22.9019 15.0806 22.8871 14.9698 22.8871C14.8589 22.8871 14.7702 22.8723 14.7702 22.8538C14.7702 22.8355 14.7103 22.8206 14.6371 22.8206C14.5639 22.8206 14.504 22.8056 14.504 22.7873C14.504 22.769 14.4442 22.754 14.371 22.754C14.2978 22.754 14.2379 22.7391 14.2379 22.7208C14.2379 22.7025 14.193 22.6875 14.1381 22.6875C14.0832 22.6875 14.0383 22.6725 14.0383 22.6542C14.0383 22.6359 13.9784 22.621 13.9052 22.621C13.8321 22.621 13.7722 22.606 13.7722 22.5877C13.7722 22.5694 13.7422 22.5544 13.7056 22.5544C13.6691 22.5544 13.6391 22.5395 13.6391 22.5212C13.6391 22.5029 13.5942 22.4879 13.5393 22.4879C13.4844 22.4879 13.4395 22.4729 13.4395 22.4546C13.4395 22.4363 13.4096 22.4214 13.373 22.4214C13.3364 22.4214 13.3065 22.4064 13.3065 22.3881C13.3065 22.3698 13.2615 22.3548 13.2067 22.3548C13.1518 22.3548 13.1069 22.3399 13.1069 22.3216C13.1069 22.3033 13.0769 22.2883 13.0403 22.2883C13.0037 22.2883 12.9738 22.2733 12.9738 22.255C12.9738 22.2367 12.9439 22.2218 12.9073 22.2218C12.8707 22.2218 12.8407 22.2068 12.8407 22.1885C12.8407 22.1702 12.8108 22.1552 12.7742 22.1552C12.7376 22.1552 12.7077 22.1403 12.7077 22.122C12.7077 22.1037 12.681 22.0887 12.6485 22.0887C12.6159 22.0887 12.5677 22.0588 12.5413 22.0222C12.515 21.9856 12.47 21.9556 12.4415 21.9556C12.413 21.9556 12.3681 21.9257 12.3417 21.8891C12.3154 21.8525 12.2704 21.8226 12.2419 21.8226C12.2134 21.8226 12.1685 21.7926 12.1421 21.7561C12.1158 21.7195 12.0735 21.6895 12.0483 21.6895C12.0231 21.6895 11.9605 21.6446 11.9093 21.5897C11.858 21.5348 11.7981 21.4899 11.7762 21.4899C11.7543 21.4899 11.6944 21.445 11.6431 21.3901C11.5919 21.3352 11.5327 21.2903 11.5118 21.2903C11.4908 21.2903 11.3703 21.1855 11.244 21.0575C11.1176 20.9294 10.9984 20.8246 10.9791 20.8246C10.9331 20.8246 10.246 20.1376 10.246 20.0917C10.246 20.0724 10.1262 19.9382 9.97984 19.7933C9.83347 19.6485 9.71371 19.5135 9.71371 19.4932C9.71371 19.473 9.63886 19.3835 9.54738 19.2944C9.4559 19.2052 9.38105 19.1149 9.38105 19.0936C9.38105 19.0723 9.33614 19.013 9.28125 18.9617C9.22636 18.9104 9.18145 18.8478 9.18145 18.8226C9.18145 18.7974 9.15151 18.7552 9.11492 18.7288C9.07833 18.7025 9.04839 18.6575 9.04839 18.629C9.04839 18.6005 9.01845 18.5556 8.98186 18.5292C8.94526 18.5029 8.91532 18.4579 8.91532 18.4294C8.91532 18.4009 8.88538 18.356 8.84879 18.3296C8.8122 18.3033 8.78226 18.2583 8.78226 18.2298C8.78226 18.2013 8.75232 18.1564 8.71573 18.13C8.67913 18.1037 8.64919 18.0588 8.64919 18.0302C8.64919 18.0017 8.61925 17.9568 8.58266 17.9304C8.54607 17.9041 8.51613 17.8592 8.51613 17.8306C8.51613 17.8021 8.48619 17.7572 8.4496 17.7308C8.413 17.7045 8.38307 17.6563 8.38307 17.6237C8.38307 17.5912 8.3681 17.5645 8.3498 17.5645C8.3315 17.5645 8.31653 17.5379 8.31653 17.5053C8.31653 17.4728 8.28659 17.4246 8.25 17.3982C8.21341 17.3718 8.18347 17.3269 8.18347 17.2984C8.18347 17.2699 8.15353 17.225 8.11694 17.1986C8.08034 17.1722 8.0504 17.124 8.0504 17.0914C8.0504 17.0589 8.03543 17.0323 8.01714 17.0323C7.99884 17.0323 7.98387 17.0056 7.98387 16.9731C7.98387 16.9405 7.95393 16.8923 7.91734 16.8659C7.88075 16.8395 7.85081 16.7913 7.85081 16.7588C7.85081 16.7262 7.83584 16.6996 7.81754 16.6996C7.79924 16.6996 7.78427 16.673 7.78427 16.6404C7.78427 16.6078 7.75433 16.5596 7.71774 16.5333C7.68115 16.5069 7.65121 16.4587 7.65121 16.4261C7.65121 16.3936 7.63624 16.3669 7.61794 16.3669C7.59965 16.3669 7.58468 16.3403 7.58468 16.3078C7.58468 16.2752 7.55474 16.227 7.51815 16.2006C7.48155 16.1742 7.45161 16.126 7.45161 16.0935C7.45161 16.0609 7.43664 16.0343 7.41835 16.0343C7.40005 16.0343 7.38508 16.0043 7.38508 15.9677C7.38508 15.9312 7.37011 15.9012 7.35181 15.9012C7.33352 15.9012 7.31855 15.8746 7.31855 15.842C7.31855 15.8095 7.28861 15.7613 7.25202 15.7349C7.21542 15.7085 7.18548 15.6603 7.18548 15.6277C7.18548 15.5952 7.17051 15.5685 7.15222 15.5685C7.13392 15.5685 7.11895 15.5386 7.11895 15.502C7.11895 15.4654 7.10398 15.4355 7.08569 15.4355C7.06739 15.4355 7.05242 15.4055 7.05242 15.369C7.05242 15.3324 7.03745 15.3024 7.01915 15.3024C7.00086 15.3024 6.98589 15.2758 6.98589 15.2432C6.98589 15.2107 6.95595 15.1625 6.91936 15.1361C6.88276 15.1097 6.85282 15.0615 6.85282 15.0289C6.85282 14.9964 6.83785 14.9698 6.81956 14.9698C6.80126 14.9698 6.78629 14.9398 6.78629 14.9032C6.78629 14.8666 6.77132 14.8367 6.75302 14.8367C6.73473 14.8367 6.71976 14.8068 6.71976 14.7702C6.71976 14.7336 6.70479 14.7036 6.68649 14.7036C6.6682 14.7036 6.65323 14.6737 6.65323 14.6371C6.65323 14.6005 6.63826 14.5706 6.61996 14.5706C6.60166 14.5706 6.58669 14.5406 6.58669 14.504C6.58669 14.4674 6.57172 14.4375 6.55343 14.4375C6.53513 14.4375 6.52016 14.4076 6.52016 14.371C6.52016 14.3344 6.50519 14.3044 6.4869 14.3044C6.4686 14.3044 6.45363 14.2745 6.45363 14.2379C6.45363 14.2013 6.43866 14.1714 6.42036 14.1714C6.40207 14.1714 6.3871 14.1414 6.3871 14.1048C6.3871 14.0682 6.37213 14.0383 6.35383 14.0383C6.33553 14.0383 6.32056 14.0084 6.32056 13.9718C6.32056 13.9352 6.30559 13.9052 6.2873 13.9052C6.269 13.9052 6.25403 13.8753 6.25403 13.8387C6.25403 13.8021 6.23906 13.7722 6.22077 13.7722C6.20247 13.7722 6.1875 13.7422 6.1875 13.7056C6.1875 13.6691 6.17253 13.6391 6.15423 13.6391C6.13594 13.6391 6.12097 13.6092 6.12097 13.5726C6.12097 13.536 6.106 13.506 6.0877 13.506C6.06941 13.506 6.05444 13.4761 6.05444 13.4395C6.05444 13.4029 6.03947 13.373 6.02117 13.373C6.00287 13.373 5.9879 13.343 5.9879 13.3065C5.9879 13.2699 5.97293 13.2399 5.95464 13.2399C5.93634 13.2399 5.92137 13.21 5.92137 13.1734C5.92137 13.1368 5.9064 13.1069 5.88811 13.1069C5.86981 13.1069 5.85484 13.0769 5.85484 13.0403C5.85484 13.0037 5.83987 12.9738 5.82157 12.9738C5.80328 12.9738 5.78831 12.9439 5.78831 12.9073C5.78831 12.8707 5.77334 12.8407 5.75504 12.8407C5.73674 12.8407 5.72177 12.8108 5.72177 12.7742C5.72177 12.7376 5.7068 12.7077 5.68851 12.7077C5.67021 12.7077 5.65524 12.6628 5.65524 12.6079C5.65524 12.553 5.64027 12.5081 5.62198 12.5081C5.60368 12.5081 5.58871 12.4781 5.58871 12.4415C5.58871 12.4049 5.57374 12.375 5.55544 12.375C5.53715 12.375 5.52218 12.3451 5.52218 12.3085C5.52218 12.2719 5.50721 12.2419 5.48891 12.2419C5.47062 12.2419 5.45565 12.212 5.45565 12.1754C5.45565 12.1388 5.44068 12.1089 5.42238 12.1089C5.40408 12.1089 5.38911 12.0789 5.38911 12.0423C5.38911 12.0057 5.37414 11.9758 5.35585 11.9758C5.33755 11.9758 5.32258 11.9309 5.32258 11.876C5.32258 11.8211 5.30761 11.7762 5.28931 11.7762C5.27102 11.7762 5.25605 11.7463 5.25605 11.7097C5.25605 11.6731 5.24108 11.6431 5.22278 11.6431C5.20449 11.6431 5.18952 11.6132 5.18952 11.5766C5.18952 11.54 5.17455 11.5101 5.15625 11.5101C5.13795 11.5101 5.12298 11.4652 5.12298 11.4103C5.12298 11.3554 5.10801 11.3105 5.08972 11.3105C5.07142 11.3105 5.05645 11.2805 5.05645 11.244C5.05645 11.2074 5.04148 11.1774 5.02319 11.1774C5.00489 11.1774 4.98992 11.1475 4.98992 11.1109C4.98992 11.0743 4.97495 11.0444 4.95665 11.0444C4.93836 11.0444 4.92339 10.9695 4.92339 10.878C4.92339 10.7865 4.93836 10.7117 4.95665 10.7117C4.97495 10.7117 4.98992 10.6882 4.98992 10.6594C4.98992 10.5922 5.07002 10.5121 5.13726 10.5121C5.166 10.5121 5.18952 10.4971 5.18952 10.4788C5.18952 10.4605 5.21946 10.4456 5.25605 10.4456C5.29264 10.4456 5.32258 10.4306 5.32258 10.4123C5.32258 10.394 5.38246 10.379 5.45565 10.379C5.52883 10.379 5.58871 10.3641 5.58871 10.3458C5.58871 10.324 6.17642 10.3125 7.28528 10.3125C8.39414 10.3125 8.98186 10.324 8.98186 10.3458C8.98186 10.3641 9.02676 10.379 9.08165 10.379C9.13654 10.379 9.18145 10.394 9.18145 10.4123C9.18145 10.4306 9.21139 10.4456 9.24798 10.4456C9.28458 10.4456 9.31452 10.4605 9.31452 10.4788C9.31452 10.4971 9.33737 10.5121 9.36528 10.5121C9.43131 10.5121 9.71371 10.7945 9.71371 10.8605C9.71371 10.8884 9.72868 10.9113 9.74698 10.9113C9.76527 10.9113 9.78024 10.9562 9.78024 11.0111C9.78024 11.066 9.79521 11.1109 9.81351 11.1109C9.83181 11.1109 9.84678 11.1408 9.84678 11.1774C9.84678 11.214 9.86174 11.244 9.88004 11.244C9.89834 11.244 9.91331 11.2739 9.91331 11.3105C9.91331 11.3471 9.92828 11.377 9.94657 11.377C9.96487 11.377 9.97984 11.407 9.97984 11.4435C9.97984 11.4801 9.99481 11.5101 10.0131 11.5101C10.0314 11.5101 10.0464 11.555 10.0464 11.6099C10.0464 11.6648 10.0613 11.7097 10.0796 11.7097C10.0979 11.7097 10.1129 11.7396 10.1129 11.7762C10.1129 11.8128 10.1279 11.8427 10.1462 11.8427C10.1645 11.8427 10.1794 11.8727 10.1794 11.9093C10.1794 11.9459 10.1944 11.9758 10.2127 11.9758C10.231 11.9758 10.246 12.0057 10.246 12.0423C10.246 12.0789 10.2609 12.1089 10.2792 12.1089C10.2975 12.1089 10.3125 12.1388 10.3125 12.1754C10.3125 12.212 10.3275 12.2419 10.3458 12.2419C10.3641 12.2419 10.379 12.2719 10.379 12.3085C10.379 12.3451 10.394 12.375 10.4123 12.375C10.4306 12.375 10.4456 12.4049 10.4456 12.4415C10.4456 12.4781 10.4605 12.5081 10.4788 12.5081C10.4971 12.5081 10.5121 12.538 10.5121 12.5746C10.5121 12.6112 10.5271 12.6411 10.5454 12.6411C10.5637 12.6411 10.5786 12.6711 10.5786 12.7077C10.5786 12.7443 10.5936 12.7742 10.6119 12.7742C10.6302 12.7742 10.6452 12.8041 10.6452 12.8407C10.6452 12.8773 10.6601 12.9073 10.6784 12.9073C10.6967 12.9073 10.7117 12.9372 10.7117 12.9738C10.7117 13.0104 10.7267 13.0403 10.745 13.0403C10.7633 13.0403 10.7782 13.0703 10.7782 13.1069C10.7782 13.1434 10.7932 13.1734 10.8115 13.1734C10.8298 13.1734 10.8448 13.2 10.8448 13.2326C10.8448 13.2651 10.8747 13.3133 10.9113 13.3397C10.9479 13.3661 10.9778 13.4143 10.9778 13.4469C10.9778 13.4794 10.9928 13.506 11.0111 13.506C11.0294 13.506 11.0444 13.536 11.0444 13.5726C11.0444 13.6092 11.0593 13.6391 11.0776 13.6391C11.0959 13.6391 11.1109 13.6691 11.1109 13.7056C11.1109 13.7422 11.1259 13.7722 11.1442 13.7722C11.1624 13.7722 11.1774 13.7988 11.1774 13.8314C11.1774 13.8639 11.2074 13.9121 11.244 13.9385C11.2805 13.9649 11.3105 14.0131 11.3105 14.0457C11.3105 14.0782 11.3255 14.1048 11.3438 14.1048C11.362 14.1048 11.377 14.1315 11.377 14.164C11.377 14.1966 11.407 14.2448 11.4435 14.2712C11.4801 14.2976 11.5101 14.3458 11.5101 14.3783C11.5101 14.4109 11.5251 14.4375 11.5433 14.4375C11.5616 14.4375 11.5766 14.4641 11.5766 14.4967C11.5766 14.5292 11.6066 14.5775 11.6431 14.6038C11.6797 14.6302 11.7097 14.6751 11.7097 14.7036C11.7097 14.7321 11.7396 14.777 11.7762 14.8034C11.8128 14.8298 11.8427 14.8747 11.8427 14.9032C11.8427 14.9317 11.8727 14.9766 11.9093 15.003C11.9459 15.0294 11.9758 15.0743 11.9758 15.1028C11.9758 15.1313 12.0057 15.1762 12.0423 15.2026C12.0789 15.229 12.1089 15.2712 12.1089 15.2964C12.1089 15.3216 12.1538 15.3842 12.2087 15.4355C12.2636 15.4867 12.3085 15.5454 12.3085 15.5657C12.3085 15.622 12.8658 16.1673 12.9234 16.1673C12.9511 16.1673 12.9738 16.1823 12.9738 16.2006C12.9738 16.2189 13.0037 16.2339 13.0403 16.2339C13.0769 16.2339 13.1069 16.2488 13.1069 16.2671C13.1069 16.2854 13.1896 16.3004 13.2907 16.3004C13.4641 16.3004 13.483 16.2919 13.6233 16.1516C13.7052 16.0697 13.7722 15.9799 13.7722 15.952C13.7722 15.9241 13.7871 15.9012 13.8054 15.9012C13.8237 15.9012 13.8387 15.8563 13.8387 15.8014C13.8387 15.7465 13.8537 15.7016 13.872 15.7016C13.8903 15.7016 13.9052 15.6268 13.9052 15.5353C13.9052 15.4438 13.9202 15.369 13.9385 15.369C13.9568 15.369 13.9718 15.3091 13.9718 15.2359C13.9718 15.1627 13.9867 15.1028 14.005 15.1028C14.0266 15.1028 14.0383 14.6593 14.0383 13.8387C14.0383 13.0181 14.0266 12.5746 14.005 12.5746C13.986 12.5746 13.9718 12.4748 13.9718 12.3417C13.9718 12.2087 13.9575 12.1089 13.9385 12.1089C13.9202 12.1089 13.9052 12.049 13.9052 11.9758C13.9052 11.9026 13.8903 11.8427 13.872 11.8427C13.8537 11.8427 13.8387 11.7978 13.8387 11.7429C13.8387 11.6881 13.8237 11.6431 13.8054 11.6431C13.7871 11.6431 13.7722 11.6015 13.7722 11.5507C13.7722 11.4964 13.7447 11.4385 13.7056 11.4103C13.6691 11.3839 13.6391 11.3425 13.6391 11.3183C13.6391 11.2612 13.4889 11.1109 13.4317 11.1109C13.4075 11.1109 13.3661 11.0809 13.3397 11.0444C13.3133 11.0078 13.2651 10.9778 13.2326 10.9778C13.2 10.9778 13.1734 10.9629 13.1734 10.9446C13.1734 10.9263 13.1135 10.9113 13.0403 10.9113C12.9671 10.9113 12.9073 10.8963 12.9073 10.878C12.9073 10.8597 12.8688 10.8448 12.8217 10.8448C12.7075 10.8448 12.6411 10.7721 12.6411 10.647C12.6411 10.5636 12.6878 10.4976 12.8901 10.2953C13.0679 10.1175 13.163 10.0464 13.2228 10.0464C13.2688 10.0464 13.3065 10.0314 13.3065 10.0131C13.3065 9.99481 13.3514 9.97984 13.4063 9.97984C13.4611 9.97984 13.506 9.96487 13.506 9.94657C13.506 9.92475 14.2268 9.91331 15.6018 9.91331C16.9768 9.91331 17.6976 9.92475 17.6976 9.94657Z" fill="#2F87FF"/>
</svg>
