<svg width="26" height="26" viewBox="0 0 26 26" fill="none" xmlns="http://www.w3.org/2000/svg">
<path d="M23.5227 2.58444H21.3996V1.73338C21.3996 1.28195 21.2206 0.849002 20.9021 0.529792C20.5836 0.210581 20.1515 0.03125 19.7011 0.03125C19.2506 0.03125 18.8185 0.210581 18.5 0.529792C18.1815 0.849002 18.0025 1.28195 18.0025 1.73338V2.58444H14.6055V1.73338C14.6055 1.28195 14.4265 0.849002 14.108 0.529792C13.7894 0.210581 13.3574 0.03125 12.9069 0.03125C12.4565 0.03125 12.0244 0.210581 11.7059 0.529792C11.3874 0.849002 11.2084 1.28195 11.2084 1.73338V2.58444H7.81135V1.73338C7.81135 1.28195 7.6324 0.849002 7.31386 0.529792C6.99533 0.210581 6.5633 0.03125 6.11282 0.03125C5.66234 0.03125 5.23031 0.210581 4.91178 0.529792C4.59324 0.849002 4.41429 1.28195 4.41429 1.73338V2.58444H2.29113C1.72803 2.58444 1.188 2.8086 0.789828 3.20762C0.391658 3.60663 0.167969 4.14781 0.167969 4.7121V21.7334C0.167969 22.2977 0.391658 22.8388 0.789828 23.2379C1.188 23.6369 1.72803 23.861 2.29113 23.861H14.1808C14.2935 23.861 14.4015 23.8162 14.4811 23.7364C14.5607 23.6566 14.6055 23.5484 14.6055 23.4355C14.6055 23.3226 14.5607 23.2144 14.4811 23.1346C14.4015 23.0548 14.2935 23.01 14.1808 23.01H2.29113C1.95358 23.009 1.63015 22.8741 1.39146 22.635C1.15278 22.3958 1.01824 22.0716 1.01723 21.7334V8.54189H24.7966V15.7759C24.7966 15.8888 24.8414 15.997 24.921 16.0768C25.0006 16.1566 25.1087 16.2015 25.2213 16.2015C25.3339 16.2015 25.4419 16.1566 25.5215 16.0768C25.6012 15.997 25.6459 15.8888 25.6459 15.7759V4.7121C25.6459 4.14781 25.4222 3.60663 25.024 3.20762C24.6259 2.8086 24.0858 2.58444 23.5227 2.58444ZM18.8518 1.73338C18.8518 1.50766 18.9413 1.29119 19.1005 1.13158C19.2598 0.971979 19.4758 0.882314 19.7011 0.882314C19.9263 0.882314 20.1423 0.971979 20.3016 1.13158C20.4608 1.29119 20.5503 1.50766 20.5503 1.73338V4.28657C20.5503 4.51229 20.4608 4.72876 20.3016 4.88836C20.1423 5.04797 19.9263 5.13763 19.7011 5.13763C19.4758 5.13763 19.2598 5.04797 19.1005 4.88836C18.9413 4.72876 18.8518 4.51229 18.8518 4.28657V1.73338ZM12.0577 1.73338C12.0577 1.50766 12.1471 1.29119 12.3064 1.13158C12.4657 0.971979 12.6817 0.882314 12.9069 0.882314C13.1322 0.882314 13.3482 0.971979 13.5075 1.13158C13.6667 1.29119 13.7562 1.50766 13.7562 1.73338V4.28657C13.7562 4.51229 13.6667 4.72876 13.5075 4.88836C13.3482 5.04797 13.1322 5.13763 12.9069 5.13763C12.6817 5.13763 12.4657 5.04797 12.3064 4.88836C12.1471 4.72876 12.0577 4.51229 12.0577 4.28657V1.73338ZM5.26356 1.73338C5.26356 1.50766 5.35303 1.29119 5.5123 1.13158C5.67157 0.971979 5.88758 0.882314 6.11282 0.882314C6.33806 0.882314 6.55407 0.971979 6.71334 1.13158C6.87261 1.29119 6.96208 1.50766 6.96208 1.73338V4.28657C6.96208 4.51229 6.87261 4.72876 6.71334 4.88836C6.55407 5.04797 6.33806 5.13763 6.11282 5.13763C5.88758 5.13763 5.67157 5.04797 5.5123 4.88836C5.35303 4.72876 5.26356 4.51229 5.26356 4.28657V1.73338ZM24.7966 7.69082H1.01723V4.7121C1.01824 4.37384 1.15278 4.04972 1.39146 3.81053C1.63015 3.57134 1.95358 3.43652 2.29113 3.43551H4.41429V4.28657C4.41429 4.738 4.59324 5.17094 4.91178 5.49015C5.23031 5.80937 5.66234 5.9887 6.11282 5.9887C6.5633 5.9887 6.99533 5.80937 7.31386 5.49015C7.6324 5.17094 7.81135 4.738 7.81135 4.28657V3.43551H11.2084V4.28657C11.2084 4.738 11.3874 5.17094 11.7059 5.49015C12.0244 5.80937 12.4565 5.9887 12.9069 5.9887C13.3574 5.9887 13.7894 5.80937 14.108 5.49015C14.4265 5.17094 14.6055 4.738 14.6055 4.28657V3.43551H18.0025V4.28657C18.0025 4.738 18.1815 5.17094 18.5 5.49015C18.8185 5.80937 19.2506 5.9887 19.7011 5.9887C20.1515 5.9887 20.5836 5.80937 20.9021 5.49015C21.2206 5.17094 21.3996 4.738 21.3996 4.28657V3.43551H23.5227C23.8603 3.43652 24.1837 3.57134 24.4224 3.81053C24.6611 4.04972 24.7956 4.37384 24.7966 4.7121V7.69082Z" fill="#2F87FF"/>
<path d="M12.0572 11.519C12.0572 11.2933 11.9677 11.0768 11.8085 10.9172C11.6492 10.7576 11.4332 10.668 11.2079 10.668H9.50942C9.28418 10.668 9.06817 10.7576 8.9089 10.9172C8.74963 11.0768 8.66016 11.2933 8.66016 11.519V12.7956C8.66016 13.0213 8.74963 13.2378 8.9089 13.3974C9.06817 13.557 9.28418 13.6467 9.50942 13.6467H11.2079C11.4332 13.6467 11.6492 13.557 11.8085 13.3974C11.9677 13.2378 12.0572 13.0213 12.0572 12.7956V11.519ZM9.50942 12.7956V11.519H11.2079V12.7956H9.50942Z" fill="#2F87FF"/>
<path d="M6.96347 11.519C6.96347 11.2933 6.87399 11.0768 6.71472 10.9172C6.55545 10.7576 6.33944 10.668 6.1142 10.668H4.41567C4.19043 10.668 3.97442 10.7576 3.81515 10.9172C3.65588 11.0768 3.56641 11.2933 3.56641 11.519V12.7956C3.56641 13.0213 3.65588 13.2378 3.81515 13.3974C3.97442 13.557 4.19043 13.6467 4.41567 13.6467H6.1142C6.33944 13.6467 6.55545 13.557 6.71472 13.3974C6.87399 13.2378 6.96347 13.0213 6.96347 12.7956V11.519ZM4.41567 12.7956V11.519H6.1142V12.7956H4.41567Z" fill="#2F87FF"/>
<path d="M21.3994 13.6467C21.6246 13.6467 21.8406 13.557 21.9999 13.3974C22.1591 13.2378 22.2486 13.0213 22.2486 12.7956V11.519C22.2486 11.2933 22.1591 11.0768 21.9999 10.9172C21.8406 10.7576 21.6246 10.668 21.3994 10.668H19.7008C19.4756 10.668 19.2596 10.7576 19.1003 10.9172C18.941 11.0768 18.8516 11.2933 18.8516 11.519V12.7956C18.8516 13.0213 18.941 13.2378 19.1003 13.3974C19.2596 13.557 19.4756 13.6467 19.7008 13.6467H21.3994ZM19.7008 11.519H21.3994V12.7956H19.7008V11.519Z" fill="#2F87FF"/>
<path d="M12.0572 15.3511C12.0572 15.1253 11.9677 14.9089 11.8085 14.7493C11.6492 14.5897 11.4332 14.5 11.2079 14.5H9.50942C9.28418 14.5 9.06817 14.5897 8.9089 14.7493C8.74963 14.9089 8.66016 15.1253 8.66016 15.3511V16.6277C8.66016 16.8534 8.74963 17.0698 8.9089 17.2295C9.06817 17.3891 9.28418 17.4787 9.50942 17.4787H11.2079C11.4332 17.4787 11.6492 17.3891 11.8085 17.2295C11.9677 17.0698 12.0572 16.8534 12.0572 16.6277V15.3511ZM9.50942 16.6277V15.3511H11.2079V16.6277H9.50942Z" fill="#2F87FF"/>
<path d="M6.96347 15.3511C6.96347 15.1253 6.87399 14.9089 6.71472 14.7493C6.55545 14.5897 6.33944 14.5 6.1142 14.5H4.41567C4.19043 14.5 3.97442 14.5897 3.81515 14.7493C3.65588 14.9089 3.56641 15.1253 3.56641 15.3511V16.6277C3.56641 16.8534 3.65588 17.0698 3.81515 17.2295C3.97442 17.3891 4.19043 17.4787 4.41567 17.4787H6.1142C6.33944 17.4787 6.55545 17.3891 6.71472 17.2295C6.87399 17.0698 6.96347 16.8534 6.96347 16.6277V15.3511ZM4.41567 16.6277V15.3511H6.1142V16.6277H4.41567Z" fill="#2F87FF"/>
<path d="M11.2079 18.3281H9.50942C9.28418 18.3281 9.06817 18.4178 8.9089 18.5774C8.74963 18.737 8.66016 18.9535 8.66016 19.1792V20.4558C8.66016 20.6815 8.74963 20.898 8.9089 21.0576C9.06817 21.2172 9.28418 21.3069 9.50942 21.3069H11.2079C11.4332 21.3069 11.6492 21.2172 11.8085 21.0576C11.9677 20.898 12.0572 20.6815 12.0572 20.4558V19.1792C12.0572 18.9535 11.9677 18.737 11.8085 18.5774C11.6492 18.4178 11.4332 18.3281 11.2079 18.3281ZM9.50942 20.4558V19.1792H11.2079V20.4558H9.50942Z" fill="#2F87FF"/>
<path d="M14.6071 13.6467H16.3056C16.5308 13.6467 16.7469 13.557 16.9061 13.3974C17.0654 13.2378 17.1549 13.0213 17.1549 12.7956V11.519C17.1549 11.2933 17.0654 11.0768 16.9061 10.9172C16.7469 10.7576 16.5308 10.668 16.3056 10.668H14.6071C14.3818 10.668 14.1658 10.7576 14.0066 10.9172C13.8473 11.0768 13.7578 11.2933 13.7578 11.519V12.7956C13.7578 13.0213 13.8473 13.2378 14.0066 13.3974C14.1658 13.557 14.3818 13.6467 14.6071 13.6467ZM14.6071 11.519H16.3056V12.7956H14.6071V11.519Z" fill="#2F87FF"/>
<path d="M13.7578 16.6277C13.7578 16.8534 13.8473 17.0698 14.0066 17.2295C14.1658 17.3891 14.3818 17.4787 14.6071 17.4787C14.7197 17.4787 14.8277 17.4339 14.9073 17.3541C14.987 17.2743 15.0317 17.166 15.0317 17.0532C15.0317 16.9403 14.987 16.8321 14.9073 16.7523C14.8277 16.6725 14.7197 16.6277 14.6071 16.6277V15.3511H16.3056C16.4182 15.3511 16.5262 15.3062 16.6059 15.2264C16.6855 15.1466 16.7302 15.0384 16.7302 14.9255C16.7302 14.8127 16.6855 14.7044 16.6059 14.6246C16.5262 14.5448 16.4182 14.5 16.3056 14.5H14.6071C14.3818 14.5 14.1658 14.5897 14.0066 14.7493C13.8473 14.9089 13.7578 15.1253 13.7578 15.3511V16.6277Z" fill="#2F87FF"/>
<path d="M6.1142 18.3281H4.41567C4.19043 18.3281 3.97442 18.4178 3.81515 18.5774C3.65588 18.737 3.56641 18.9535 3.56641 19.1792V20.4558C3.56641 20.6815 3.65588 20.898 3.81515 21.0576C3.97442 21.2172 4.19043 21.3069 4.41567 21.3069H6.1142C6.33944 21.3069 6.55545 21.2172 6.71472 21.0576C6.87399 20.898 6.96347 20.6815 6.96347 20.4558V19.1792C6.96347 18.9535 6.87399 18.737 6.71472 18.5774C6.55545 18.4178 6.33944 18.3281 6.1142 18.3281ZM4.41567 20.4558V19.1792H6.1142V20.4558H4.41567Z" fill="#2F87FF"/>
<path d="M20.1257 14.5C19.0339 14.5 17.9666 14.8244 17.0588 15.4323C16.151 16.0402 15.4435 16.9041 15.0257 17.9149C14.6079 18.9258 14.4985 20.0381 14.7115 21.1111C14.9245 22.1842 15.4503 23.1699 16.2223 23.9436C16.9943 24.7172 17.9779 25.2441 19.0488 25.4575C20.1196 25.671 21.2295 25.5614 22.2382 25.1427C23.2469 24.724 24.109 24.015 24.7156 23.1053C25.3222 22.1956 25.6459 21.126 25.6459 20.0319C25.6442 18.5653 25.0621 17.1592 24.0272 16.1221C22.9923 15.0851 21.5892 14.5017 20.1257 14.5ZM20.1257 24.7128C19.2019 24.7128 18.2988 24.4382 17.5306 23.9239C16.7625 23.4096 16.1638 22.6785 15.8103 21.8232C15.4568 20.9679 15.3643 20.0267 15.5445 19.1187C15.7247 18.2107 16.1696 17.3767 16.8228 16.7221C17.4761 16.0674 18.3084 15.6216 19.2144 15.441C20.1205 15.2604 21.0597 15.3531 21.9132 15.7074C22.7667 16.0617 23.4962 16.6616 24.0095 17.4314C24.5227 18.2011 24.7966 19.1061 24.7966 20.0319C24.7952 21.2729 24.3026 22.4626 23.4269 23.3402C22.5513 24.2177 21.3641 24.7113 20.1257 24.7128Z" fill="#2F87FF"/>
<path d="M22.5782 18.2484L19.2754 21.5581L17.7743 20.0535C17.6942 19.976 17.587 19.9331 17.4756 19.934C17.3643 19.935 17.2578 19.9798 17.1791 20.0586C17.1003 20.1375 17.0557 20.2443 17.0547 20.3558C17.0537 20.4674 17.0965 20.5749 17.1739 20.6552L18.9752 22.4607C19.0548 22.5405 19.1628 22.5853 19.2754 22.5853C19.388 22.5853 19.496 22.5405 19.5756 22.4607L23.1786 18.8501C23.256 18.7698 23.2988 18.6623 23.2978 18.5507C23.2968 18.4392 23.2522 18.3324 23.1734 18.2535C23.0947 18.1746 22.9882 18.1299 22.8769 18.1289C22.7655 18.128 22.6583 18.1708 22.5782 18.2484Z" fill="#2F87FF"/>
</svg>
