<svg width="40" height="40" viewBox="0 0 40 40" fill="none" xmlns="http://www.w3.org/2000/svg">
<path d="M39.5633 5.21793C39.3013 4.95592 38.952 4.78125 38.5153 4.78125H1.48472C1.0917 4.78125 0.69869 4.95592 0.436681 5.21793C0.174672 5.47994 0 5.82929 0 6.26597V33.7332C0.0436681 34.1699 0.174673 34.5192 0.480349 34.7813C0.742358 35.0433 1.13537 35.2179 1.52838 35.2179H38.5153C38.9083 35.2179 39.3013 35.0433 39.5633 34.7813C39.8253 34.5192 40 34.1699 40 33.7332V6.26597C40 5.87295 39.8253 5.47994 39.5633 5.21793ZM38.6463 33.7332C38.6463 33.7769 38.6463 33.7769 38.6026 33.8206C38.6026 33.8206 38.559 33.8642 38.5153 33.8642H1.48472C1.44105 33.8642 1.44105 33.8642 1.39738 33.8206C1.39738 33.8206 1.35371 33.7769 1.35371 33.7332V6.26597H1.39738C1.39738 6.2223 1.39738 6.2223 1.44105 6.17863C1.44105 6.17863 1.48472 6.13496 1.52838 6.13496H38.5153C38.559 6.13496 38.559 6.13496 38.6026 6.17863C38.6026 6.17863 38.6463 6.2223 38.6463 6.26597V33.7332Z" fill="#2F87FF"/>
<path d="M35.6318 9.41184C35.4135 9.1935 35.1078 9.0625 34.7584 9.0625H5.23879C4.88945 9.0625 4.58377 9.1935 4.36543 9.41184C4.14709 9.63019 4.01609 9.93586 4.01609 10.2852V29.8049C3.97242 30.1105 4.10342 30.4162 4.36543 30.6782C4.58377 30.8966 4.88945 31.0276 5.23879 31.0276H5.3698H12.6624H14.8021H19.955H24.7148H34.6274H34.7584C35.1078 31.0276 35.4135 30.8966 35.6318 30.6782C35.8501 30.4599 35.9811 30.1542 35.9811 29.8049V10.2852C35.9811 9.93586 35.8501 9.63019 35.6318 9.41184ZM24.7148 29.7175V29.6739H19.955H14.8021H12.6624H6.54884L9.60561 24.39L12.6624 19.1062L15.7191 24.39V24.4337L16.7672 26.2677C16.8108 26.3551 16.8982 26.4424 17.0292 26.5298C17.3349 26.7044 17.7715 26.6171 17.9462 26.2677L20.348 22.1193L24.7148 14.521L29.0816 22.0756V22.1193L33.4484 29.7175H24.7148ZM34.6711 29.0188L30.2606 21.4206V21.3769L25.2825 12.818C25.1078 12.5123 24.6711 12.3813 24.3654 12.556C24.2781 12.5996 24.1908 12.687 24.1034 12.818L19.1689 21.4206L17.3785 24.521L16.8982 23.6913V23.6477L13.2737 17.3594C13.0991 17.0538 12.6624 16.9228 12.3567 17.0974C12.2694 17.1411 12.182 17.2284 12.0947 17.3594L8.47024 23.6913L5.41347 29.0188V10.3725H34.6711V29.0188Z" fill="#2F87FF"/>
<path d="M19.038 12.7306C18.6013 12.294 17.9463 11.9883 17.2476 11.9883C16.5926 11.9883 15.9812 12.2503 15.5009 12.687L15.4572 12.7306C15.0205 13.1673 14.7148 13.8223 14.7148 14.521C14.7148 15.2197 15.0205 15.8311 15.4572 16.3114C15.8939 16.7481 16.5489 17.0538 17.2476 17.0538C17.9463 17.0538 18.5576 16.7918 19.038 16.3114C19.4747 15.8747 19.7803 15.2197 19.7803 14.521C19.7803 13.8223 19.5183 13.211 19.038 12.7306ZM18.0773 15.3507C17.8589 15.5691 17.5533 15.7001 17.2476 15.7001C16.9419 15.7001 16.6362 15.5691 16.4179 15.3507C16.1996 15.1324 16.0686 14.8267 16.0686 14.521C16.0686 14.1717 16.1996 13.9097 16.4179 13.6913C16.6362 13.473 16.9419 13.342 17.2476 13.342C17.5533 13.342 17.8589 13.473 18.0773 13.6913C18.2956 13.9097 18.4266 14.2154 18.4266 14.521C18.4266 14.8267 18.2956 15.1324 18.0773 15.3507Z" fill="#2F87FF"/>
</svg>
