<svg width="15" height="18" viewBox="0 0 15 18" fill="none" xmlns="http://www.w3.org/2000/svg">
<path d="M8.66732 10.2503V5.66699C8.66732 4.78294 8.31613 3.93509 7.69101 3.30997C7.06589 2.68485 6.21804 2.33366 5.33398 2.33366C4.44993 2.33366 3.60208 2.68485 2.97696 3.30997C2.35184 3.93509 2.00065 4.78294 2.00065 5.66699V10.2503C2.00065 11.6869 2.57133 13.0647 3.58716 14.0805C4.60298 15.0963 5.98073 15.667 7.41732 15.667C8.85391 15.667 10.2317 15.0963 11.2475 14.0805C12.2633 13.0647 12.834 11.6869 12.834 10.2503V2.33366H14.5007V10.2503C14.5007 12.1289 13.7544 13.9306 12.426 15.259C11.0976 16.5874 9.29593 17.3337 7.41732 17.3337C5.5387 17.3337 3.73703 16.5874 2.40864 15.259C1.08026 13.9306 0.333984 12.1289 0.333984 10.2503V5.66699C0.333984 4.34091 0.860769 3.06914 1.79845 2.13146C2.73613 1.19378 4.0079 0.666992 5.33398 0.666992C6.66007 0.666992 7.93184 1.19378 8.86952 2.13146C9.8072 3.06914 10.334 4.34091 10.334 5.66699V10.2503C10.334 11.0239 10.0267 11.7657 9.47971 12.3127C8.93273 12.8597 8.19087 13.167 7.41732 13.167C6.64377 13.167 5.9019 12.8597 5.35492 12.3127C4.80794 11.7657 4.50065 11.0239 4.50065 10.2503V5.66699H6.16732V10.2503C6.16732 10.5818 6.29901 10.8998 6.53343 11.1342C6.76785 11.3686 7.0858 11.5003 7.41732 11.5003C7.74884 11.5003 8.06678 11.3686 8.3012 11.1342C8.53562 10.8998 8.66732 10.5818 8.66732 10.2503Z" fill="#2F87FF"/>
</svg>
