<svg width="29" height="20" viewBox="0 0 29 20" fill="none" xmlns="http://www.w3.org/2000/svg">
<path d="M25.4598 0.820312H3.54624C1.59011 0.820312 0 2.1911 0 3.87742V16.7887C0 18.475 1.59011 19.8458 3.54624 19.8458H25.4538C27.4099 19.8458 29 18.475 29 16.7887V3.88259C29.006 2.19627 27.4159 0.820312 25.4598 0.820312ZM27.3859 16.7887C27.3859 17.7042 26.5218 18.4491 25.4598 18.4491H3.54624C2.48417 18.4491 1.62011 17.7042 1.62011 16.7887V3.88259C1.62011 2.96701 2.48417 2.22213 3.54624 2.22213H25.4538C26.5158 2.22213 27.3799 2.96701 27.3799 3.88259V16.7887H27.3859Z" fill="#2F87FF"/>
<path d="M18.2876 10.1751L25.3801 4.69199C25.7102 4.43335 25.7402 3.99366 25.4401 3.70399C25.1401 3.41949 24.6301 3.39362 24.2941 3.65226L14.5134 11.22L12.6052 9.75096C12.5992 9.74578 12.5932 9.74061 12.5932 9.73544C12.5512 9.69923 12.5092 9.66819 12.4612 9.63715L4.6967 3.64709C4.36068 3.38845 3.85064 3.41431 3.55062 3.70399C3.2506 3.99366 3.2806 4.43335 3.61663 4.69199L10.7931 10.2217L3.64663 15.9893C3.32261 16.2531 3.3046 16.6928 3.61063 16.9773C3.77264 17.1222 3.98865 17.1997 4.20467 17.1997C4.40268 17.1997 4.60069 17.1377 4.7567 17.0135L12.0112 11.1631L13.9793 12.6787C14.1354 12.7977 14.3274 12.8546 14.5194 12.8546C14.7114 12.8546 14.9094 12.7925 15.0594 12.6736L17.0816 11.1114L24.2941 17.0187C24.4501 17.148 24.6541 17.2101 24.8521 17.2101C25.0681 17.2101 25.2781 17.1377 25.4401 16.9928C25.7462 16.7135 25.7342 16.2686 25.4101 16.0048L18.2876 10.1751Z" fill="#2F87FF"/>
</svg>
