<svg width="21" height="20" viewBox="0 0 21 20" fill="none" xmlns="http://www.w3.org/2000/svg">
<path d="M19.9166 18.6996L14.3535 12.8897C15.4086 11.5293 16.0438 9.79975 16.0438 7.9167C16.0438 3.55145 12.6431 0 8.46327 0C4.28341 0 0.882812 3.55145 0.882812 7.9167C0.882812 12.2819 4.28345 15.8334 8.46331 15.8334C10.2664 15.8334 11.9225 15.17 13.2251 14.0681L18.7883 19.878C18.9441 20.0407 19.1967 20.0407 19.3525 19.878L19.9166 19.2888C20.0724 19.1261 20.0724 18.8623 19.9166 18.6996ZM8.46331 14.1667C5.16322 14.1667 2.47872 11.3631 2.47872 7.9167C2.47872 4.47024 5.16322 1.66668 8.46331 1.66668C11.7634 1.66668 14.4479 4.47024 14.4479 7.9167C14.4479 11.3631 11.7634 14.1667 8.46331 14.1667Z" fill="#333333"/>
</svg>
