<svg width="24" height="24" viewBox="0 0 24 24" fill="none" xmlns="http://www.w3.org/2000/svg">
<path d="M7.80562 14.4964L5.7173 13.499L3.95418 17.8529C3.94869 17.8666 3.94338 17.8806 3.9388 17.8945C3.71486 18.5663 3.76466 19.1768 4.07924 19.6129C4.35188 19.9914 4.79024 20.2 5.31355 20.2H5.31374C5.56148 20.2 5.82771 20.1531 6.10494 20.0606C6.11903 20.056 6.13295 20.0509 6.1465 20.0454L10.5004 18.2823L9.50319 16.1938C9.23641 15.6355 8.36391 14.763 7.80562 14.4964Z" fill="#2F87FF"/>
<path d="M23.9399 1.05371L10.2305 14.7632C10.4581 15.0435 10.6476 15.3273 10.7721 15.5877L14.252 22.8746C14.7195 23.8535 15.3358 23.9996 15.6614 23.9996H15.6616C15.9525 23.9996 16.6712 23.873 17.0621 22.7004L23.8607 2.30487C24.013 1.84747 24.0383 1.41864 23.9399 1.05371Z" fill="#2F87FF"/>
<path d="M9.23618 13.7693L22.9464 0.0591431C22.8026 0.0201416 22.6485 0 22.4861 0C22.2379 0 21.9717 0.046875 21.6945 0.139343L1.2991 6.93768C0.220064 7.29749 0.0234092 7.92554 0.00216899 8.26776C-0.0190712 8.61017 0.0986656 9.25763 1.12497 9.74762L8.41184 13.2277C8.67203 13.3522 8.95584 13.5417 9.23618 13.7693Z" fill="#2F87FF"/>
</svg>
