<svg width="24" height="24" viewBox="0 0 24 24" fill="none" xmlns="http://www.w3.org/2000/svg">
<g clip-path="url(#clip0_10421_19875)">
<path d="M7.80953 14.4974L5.72121 13.5L3.95808 17.8539C3.95259 17.8676 3.94728 17.8815 3.9427 17.8954C3.71877 18.5673 3.76857 19.1777 4.08315 19.6139C4.35579 19.9924 4.79414 20.2009 5.31746 20.2009H5.31764C5.56538 20.2009 5.83162 20.1541 6.10884 20.0616C6.12294 20.057 6.13686 20.0519 6.15041 20.0464L10.5043 18.2833L9.5071 16.1948C9.24031 15.6365 8.36781 14.764 7.80953 14.4974Z" fill="white"/>
<path d="M23.9439 1.05469L10.2344 14.7642C10.462 15.0445 10.6515 15.3283 10.776 15.5887L14.2559 22.8755C14.7234 23.8544 15.3397 24.0005 15.6653 24.0005H15.6655C15.9564 24.0005 16.6751 23.874 17.066 22.7014L23.8646 2.30585C24.0169 1.84845 24.0422 1.41962 23.9439 1.05469Z" fill="white"/>
<path d="M9.23618 13.7693L22.9464 0.0591431C22.8026 0.0201416 22.6485 0 22.4861 0C22.2379 0 21.9717 0.046875 21.6945 0.139343L1.2991 6.93768C0.220064 7.29749 0.0234092 7.92554 0.00216899 8.26776C-0.0190712 8.61017 0.0986656 9.25763 1.12497 9.74762L8.41184 13.2277C8.67203 13.3522 8.95584 13.5417 9.23618 13.7693Z" fill="white"/>
</g>
<defs>
<clipPath id="clip0_10421_19875">
<rect width="24" height="24" fill="white"/>
</clipPath>
</defs>
</svg>
