<svg width="360" height="321" viewBox="0 0 360 321" fill="none" xmlns="http://www.w3.org/2000/svg">
<path d="M32.8309 278.804C25.3395 278.804 17.9047 277.996 10.7823 275.713C6.35094 274.294 1.62954 271.801 0.325193 267.301C-0.857302 263.229 1.32405 258.753 4.62096 256.111C7.91788 253.473 12.1244 252.314 16.2417 251.423C25.1679 249.492 34.2966 248.518 43.4271 248.518C43.9968 248.518 44.5666 248.522 45.1364 248.53C47.4087 248.385 49.6828 248.312 51.9585 248.312C58.7463 248.312 65.5358 248.96 72.2 250.252C76.5026 251.084 81.363 252.696 82.9454 256.816C84.7749 261.577 81.0386 266.701 76.8664 269.594C69.1467 274.948 59.5323 276.59 50.2217 277.659C44.4688 278.32 38.6336 278.804 32.8309 278.804Z" fill="#EAF3FF"/>
<path d="M250.362 255.367C244.906 255.367 239.455 255.331 234.001 255.264C194.172 254.784 153.759 253.445 114.317 247.241C110.91 246.705 107.416 246.103 104.464 244.307C101.512 242.513 99.1897 239.233 99.5243 235.775C99.9688 231.2 104.52 228.33 108.643 226.367C116.448 222.652 124.561 219.592 132.869 217.232C156.305 210.572 180.904 209.547 205.238 208.688C219.828 208.174 234.437 207.703 249.04 207.703C255.792 207.703 262.544 207.803 269.29 208.046C272.484 208.162 275.678 208.309 278.871 208.49C290.248 209.144 301.738 211.324 313.058 211.324H313.125C323.333 211.324 333.83 214.099 343.142 218.502C348.602 221.085 357.669 227.602 358.738 233.969C359.951 241.198 352.52 246.866 345.609 249.151C337.867 251.712 329.659 252.426 321.531 253.004C297.851 254.689 274.103 255.367 250.362 255.367Z" fill="#EAF3FF"/>
<path d="M351.448 122.712C349.739 121.956 347.777 122.054 345.946 122.407C338.54 123.831 332.393 129.054 327.546 134.875C323.714 139.481 320.485 144.586 317.918 150.01C320.997 141.896 323.43 133.533 325.174 125.023C326.892 116.634 327.942 107.972 326.629 99.5118C326.207 96.7905 325.349 93.8303 323.017 92.3996C320.734 91 317.655 91.583 315.493 93.1677C313.332 94.7507 311.914 97.1485 310.708 99.5533C306.132 108.658 303.724 118.686 301.354 128.609C300.311 132.976 299.267 137.344 298.224 141.711C298.196 126.573 298.167 111.404 296.564 96.3527C295.94 90.4896 295.057 84.5816 292.828 79.1267C291.784 76.5715 290.271 73.9643 287.751 72.8761C285.259 71.8 282.275 72.5025 280.062 74.0802C277.852 75.658 276.292 77.9936 274.974 80.381C266.111 96.4323 266.446 116.125 270.294 134.081C266.571 129.772 262.095 126.123 257.133 123.359C254.849 122.085 252.314 120.971 249.718 121.243C243.913 121.853 241.04 128.668 240.273 134.5C237.522 155.451 246.378 176.137 256.722 194.52C261.877 203.679 267.452 212.592 273.185 221.395C276.019 225.747 279.297 229.981 281.83 234.515C285.203 234.489 288.573 234.455 291.946 234.43C312.278 217.533 329.36 196.676 341.911 173.32C348.273 161.482 353.528 148.863 355.526 135.552C356.245 130.758 355.85 124.66 351.448 122.712Z" fill="#5CA2FF"/>
<mask id="path-4-inside-1_10560_10947" fill="white">
<path d="M282.612 225.741C284.239 228.144 285.903 230.917 287.925 232.69C290.259 234.739 291.522 234.386 294.933 234.386L295.142 234.337C295.298 234.35 295.456 234.37 295.612 234.386C296.781 234.381 297.952 234.376 299.12 234.379C299.855 234.381 300.591 234.381 301.326 234.381C304.118 234.296 306.909 234.209 309.698 234.099C314.445 233.912 319.188 233.639 323.93 233.35C326.016 231.791 327.981 230.244 329.731 228.82C332.33 226.708 334.466 224.869 335.851 223.67C337.012 222.667 338.204 221.618 338.843 220.219C339.483 218.819 339.402 216.961 338.244 215.958C334.497 212.712 320.386 224.321 312.996 228.348C330.517 218.798 342.528 199.519 348.152 180.257C348.828 177.938 349.259 175.243 347.879 173.265C346.54 171.352 343.849 170.805 341.596 171.381C339.344 171.958 337.436 173.435 335.647 174.93C330.51 179.222 325.756 183.983 321.464 189.133C331.381 174.93 338.331 158.631 341.731 141.602C342.215 139.177 342.516 136.324 340.811 134.542C339.232 132.888 336.586 132.923 334.384 133.516C328.266 135.172 323.46 140.153 320.513 145.806C317.567 151.458 316.219 157.797 314.905 164.043C315.682 150.028 316.429 135.722 312.742 122.188C312.275 120.479 311.702 118.723 310.478 117.449C308.349 115.237 304.696 115.121 301.95 116.479C299.206 117.839 297.222 120.377 295.619 123.001C285.651 139.35 287.597 160.136 290.632 179.082C289.629 172.824 270.981 148.434 266.276 161.837C265.614 163.724 265.729 165.795 265.974 167.783C268.039 184.665 278.366 199.183 288.359 212.888C286.408 213.371 284.539 212.027 282.792 211.027C281.045 210.027 278.529 209.458 277.267 211.034C276.72 211.719 276.579 212.646 276.584 213.525C276.601 217.504 279.097 220.98 281.484 224.149C281.86 224.648 282.236 225.186 282.612 225.741Z"/>
</mask>
<path d="M282.612 225.741C284.239 228.144 285.903 230.917 287.925 232.69C290.259 234.739 291.522 234.386 294.933 234.386L295.142 234.337C295.298 234.35 295.456 234.37 295.612 234.386C296.781 234.381 297.952 234.376 299.12 234.379C299.855 234.381 300.591 234.381 301.326 234.381C304.118 234.296 306.909 234.209 309.698 234.099C314.445 233.912 319.188 233.639 323.93 233.35C326.016 231.791 327.981 230.244 329.731 228.82C332.33 226.708 334.466 224.869 335.851 223.67C337.012 222.667 338.204 221.618 338.843 220.219C339.483 218.819 339.402 216.961 338.244 215.958C334.497 212.712 320.386 224.321 312.996 228.348C330.517 218.798 342.528 199.519 348.152 180.257C348.828 177.938 349.259 175.243 347.879 173.265C346.54 171.352 343.849 170.805 341.596 171.381C339.344 171.958 337.436 173.435 335.647 174.93C330.51 179.222 325.756 183.983 321.464 189.133C331.381 174.93 338.331 158.631 341.731 141.602C342.215 139.177 342.516 136.324 340.811 134.542C339.232 132.888 336.586 132.923 334.384 133.516C328.266 135.172 323.46 140.153 320.513 145.806C317.567 151.458 316.219 157.797 314.905 164.043C315.682 150.028 316.429 135.722 312.742 122.188C312.275 120.479 311.702 118.723 310.478 117.449C308.349 115.237 304.696 115.121 301.95 116.479C299.206 117.839 297.222 120.377 295.619 123.001C285.651 139.35 287.597 160.136 290.632 179.082C289.629 172.824 270.981 148.434 266.276 161.837C265.614 163.724 265.729 165.795 265.974 167.783C268.039 184.665 278.366 199.183 288.359 212.888C286.408 213.371 284.539 212.027 282.792 211.027C281.045 210.027 278.529 209.458 277.267 211.034C276.72 211.719 276.579 212.646 276.584 213.525C276.601 217.504 279.097 220.98 281.484 224.149C281.86 224.648 282.236 225.186 282.612 225.741Z" fill="#FFE6DC" fill-opacity="0.9"/>
<path d="M282.612 225.741L281.784 226.301L281.784 226.302L282.612 225.741ZM287.925 232.69L288.585 231.939L288.585 231.939L287.925 232.69ZM294.933 234.386V235.386H295.047L295.158 235.36L294.933 234.386ZM295.142 234.337L295.219 233.34L295.066 233.329L294.917 233.363L295.142 234.337ZM295.612 234.386L295.513 235.381L295.565 235.386L295.617 235.386L295.612 234.386ZM299.12 234.379L299.117 235.379H299.118L299.12 234.379ZM301.326 234.381V235.381H301.341L301.356 235.38L301.326 234.381ZM309.698 234.099L309.658 233.1L309.658 233.1L309.698 234.099ZM323.93 233.35L323.991 234.348L324.29 234.33L324.529 234.151L323.93 233.35ZM329.731 228.82L329.101 228.044L329.1 228.045L329.731 228.82ZM335.851 223.67L335.197 222.914L335.197 222.914L335.851 223.67ZM338.843 220.219L337.933 219.803L337.933 219.804L338.843 220.219ZM338.244 215.958L337.589 216.713L337.589 216.713L338.244 215.958ZM312.996 228.348L312.518 227.47L313.475 229.226L312.996 228.348ZM348.152 180.257L349.112 180.537L349.112 180.537L348.152 180.257ZM347.879 173.265L348.699 172.693L348.698 172.692L347.879 173.265ZM341.596 171.381L341.348 170.413L341.348 170.413L341.596 171.381ZM335.647 174.93L336.288 175.697L336.289 175.697L335.647 174.93ZM321.464 189.133L320.644 188.561L322.232 189.774L321.464 189.133ZM341.731 141.602L342.712 141.798L342.712 141.798L341.731 141.602ZM340.811 134.542L340.088 135.233L340.089 135.233L340.811 134.542ZM334.384 133.516L334.124 132.551L334.123 132.551L334.384 133.516ZM320.513 145.806L321.4 146.269L321.4 146.269L320.513 145.806ZM314.905 164.043L313.906 163.987L315.883 164.249L314.905 164.043ZM312.742 122.188L313.707 121.925L313.707 121.924L312.742 122.188ZM310.478 117.449L311.199 116.756L311.199 116.756L310.478 117.449ZM301.95 116.479L301.507 115.582L301.506 115.583L301.95 116.479ZM295.619 123.001L294.766 122.48L294.765 122.48L295.619 123.001ZM290.632 179.082L289.644 179.24L291.619 178.924L290.632 179.082ZM266.276 161.837L265.333 161.506L265.333 161.506L266.276 161.837ZM265.974 167.783L266.967 167.662L266.967 167.66L265.974 167.783ZM288.359 212.888L288.6 213.859L290.044 213.502L289.167 212.299L288.359 212.888ZM277.267 211.034L276.487 210.409L276.486 210.41L277.267 211.034ZM276.584 213.525L277.584 213.521L277.584 213.519L276.584 213.525ZM281.484 224.149L280.685 224.751L280.686 224.752L281.484 224.149ZM281.784 226.302C283.353 228.62 285.118 231.559 287.266 233.442L288.585 231.939C286.689 230.276 285.124 227.668 283.44 225.18L281.784 226.302ZM287.266 233.442C288.54 234.56 289.606 235.089 290.865 235.293C292.005 235.478 293.34 235.386 294.933 235.386V233.386C293.115 233.386 292.113 233.47 291.186 233.319C290.377 233.188 289.645 232.869 288.585 231.939L287.266 233.442ZM295.158 235.36L295.367 235.312L294.917 233.363L294.707 233.412L295.158 235.36ZM295.065 235.334C295.213 235.346 295.309 235.361 295.513 235.381L295.711 233.391C295.604 233.38 295.384 233.353 295.219 233.34L295.065 235.334ZM295.617 235.386C296.786 235.381 297.953 235.376 299.117 235.379L299.123 233.379C297.95 233.376 296.776 233.381 295.608 233.386L295.617 235.386ZM299.118 235.379C299.854 235.381 300.591 235.381 301.326 235.381V233.381C300.591 233.381 299.856 233.381 299.123 233.379L299.118 235.379ZM301.356 235.38C304.148 235.296 306.943 235.209 309.737 235.098L309.658 233.1C306.874 233.21 304.088 233.296 301.295 233.381L301.356 235.38ZM309.737 235.098C314.495 234.911 319.248 234.637 323.991 234.348L323.87 232.351C319.129 232.64 314.394 232.913 309.658 233.1L309.737 235.098ZM324.529 234.151C326.627 232.582 328.603 231.027 330.362 229.596L329.1 228.045C327.359 229.461 325.404 230.999 323.332 232.549L324.529 234.151ZM330.362 229.596C332.972 227.474 335.118 225.627 336.506 224.426L335.197 222.914C333.815 224.111 331.687 225.942 329.101 228.044L330.362 229.596ZM336.506 224.426C337.638 223.447 339.009 222.264 339.753 220.634L337.933 219.804C337.4 220.973 336.385 221.887 335.197 222.914L336.506 224.426ZM339.752 220.635C340.501 218.998 340.514 216.601 338.899 215.202L337.589 216.713C338.291 217.321 338.465 218.64 337.933 219.803L339.752 220.635ZM338.899 215.202C338.185 214.583 337.283 214.375 336.367 214.393C335.459 214.411 334.458 214.65 333.424 215.015C331.356 215.746 328.937 217.065 326.466 218.572C323.986 220.084 321.392 221.825 318.98 223.423C316.552 225.032 314.321 226.487 312.518 227.47L313.475 229.226C315.367 228.195 317.671 226.689 320.084 225.09C322.514 223.48 325.067 221.767 327.507 220.279C329.956 218.786 332.228 217.559 334.091 216.901C335.023 216.571 335.797 216.405 336.406 216.393C337.008 216.381 337.366 216.52 337.589 216.713L338.899 215.202ZM313.475 229.226C331.308 219.506 343.442 199.954 349.112 180.537L347.192 179.976C341.613 199.084 329.727 218.09 312.518 227.47L313.475 229.226ZM349.112 180.537C349.785 178.228 350.375 175.094 348.699 172.693L347.059 173.838C348.143 175.392 347.871 177.649 347.192 179.977L349.112 180.537ZM348.698 172.692C347.042 170.325 343.854 169.772 341.348 170.413L341.843 172.35C343.845 171.839 346.038 172.379 347.06 173.839L348.698 172.692ZM341.348 170.413C338.852 171.051 336.787 172.674 335.006 174.162L336.289 175.697C338.084 174.196 339.836 172.864 341.844 172.35L341.348 170.413ZM335.006 174.162C329.823 178.493 325.027 183.297 320.696 188.493L322.232 189.774C326.486 184.669 331.198 179.951 336.288 175.697L335.006 174.162ZM322.284 189.706C332.28 175.389 339.285 158.962 342.712 141.798L340.751 141.407C337.378 158.3 330.482 174.471 320.644 188.561L322.284 189.706ZM342.712 141.798C342.958 140.564 343.176 139.141 343.09 137.769C343.004 136.388 342.604 134.97 341.534 133.851L340.089 135.233C340.723 135.896 341.025 136.796 341.094 137.893C341.163 138.999 340.988 140.215 340.751 141.407L342.712 141.798ZM341.535 133.852C339.552 131.775 336.401 131.937 334.124 132.551L334.644 134.482C336.771 133.909 338.912 134.001 340.088 135.233L341.535 133.852ZM334.123 132.551C327.646 134.304 322.652 139.539 319.627 145.344L321.4 146.269C324.268 140.766 328.886 136.04 334.645 134.481L334.123 132.551ZM319.627 145.344C316.606 151.138 315.236 157.614 313.926 163.837L315.883 164.249C317.203 157.98 318.527 151.779 321.4 146.269L319.627 145.344ZM315.903 164.098C316.679 150.11 317.443 135.641 313.707 121.925L311.777 122.451C315.414 135.803 314.685 149.945 313.906 163.987L315.903 164.098ZM313.707 121.924C313.241 120.22 312.618 118.232 311.199 116.756L309.757 118.142C310.786 119.213 311.309 120.737 311.778 122.451L313.707 121.924ZM311.199 116.756C308.677 114.135 304.513 114.096 301.507 115.582L302.394 117.375C304.88 116.146 308.021 116.338 309.758 118.143L311.199 116.756ZM301.506 115.583C298.501 117.072 296.395 119.813 294.766 122.48L296.473 123.522C298.049 120.94 299.911 118.605 302.394 117.375L301.506 115.583ZM294.765 122.48C284.583 139.18 286.614 160.321 289.644 179.24L291.619 178.924C288.58 159.951 286.719 139.52 296.473 123.522L294.765 122.48ZM291.619 178.924C291.47 177.99 291.014 176.816 290.386 175.55C289.748 174.265 288.897 172.814 287.898 171.31C285.902 168.303 283.286 165.029 280.538 162.368C277.827 159.744 274.849 157.578 272.127 157.018C270.727 156.729 269.332 156.854 268.101 157.626C266.885 158.389 265.968 159.697 265.333 161.506L267.22 162.168C267.761 160.626 268.455 159.765 269.164 159.32C269.857 158.885 270.698 158.765 271.724 158.977C273.853 159.415 276.482 161.226 279.147 163.805C281.775 166.349 284.302 169.508 286.232 172.416C287.196 173.868 288.002 175.245 288.595 176.439C289.197 177.652 289.543 178.609 289.644 179.24L291.619 178.924ZM265.333 161.506C264.588 163.628 264.734 165.899 264.982 167.906L266.967 167.66C266.724 165.691 266.64 163.821 267.22 162.168L265.333 161.506ZM264.982 167.904C267.083 185.085 277.584 199.808 287.551 213.478L289.167 212.299C279.147 198.558 268.995 184.244 266.967 167.662L264.982 167.904ZM288.119 211.918C287.443 212.085 286.726 211.953 285.895 211.595C285.035 211.225 284.23 210.698 283.289 210.159L282.295 211.895C283.101 212.356 284.105 213.002 285.103 213.432C286.132 213.875 287.325 214.174 288.6 213.859L288.119 211.918ZM283.289 210.159C282.324 209.607 281.112 209.15 279.917 209.067C278.713 208.983 277.391 209.278 276.487 210.409L278.048 211.659C278.405 211.213 278.972 211.006 279.778 211.062C280.593 211.119 281.513 211.447 282.295 211.895L283.289 210.159ZM276.486 210.41C275.722 211.366 275.579 212.58 275.584 213.531L277.584 213.519C277.579 212.712 277.718 212.072 278.049 211.658L276.486 210.41ZM275.584 213.529C275.603 217.893 278.333 221.628 280.685 224.751L282.283 223.548C279.86 220.332 277.6 217.116 277.584 213.521L275.584 213.529ZM280.686 224.752C281.047 225.231 281.412 225.753 281.784 226.301L283.44 225.18C283.059 224.618 282.673 224.065 282.282 223.547L280.686 224.752Z" fill="#FF9162" mask="url(#path-4-inside-1_10560_10947)"/>
<path d="M81.5466 218.016L92.3538 233.989C88.2743 236.15 76.8732 243.774 64.3326 248.016C64.2262 248.051 57.7113 249.625 55.1026 244.001C54.1295 241.902 56.2474 239.863 55.7788 238.378C60.3423 235.442 79.149 220.74 81.5466 218.016Z" fill="#DDDDDD"/>
<path d="M62.5092 258.681C63.1528 258.754 63.7947 258.781 64.4348 258.792C66.0841 256.544 67.8793 254.404 69.6762 252.262C71.2775 249.181 75.0464 244.45 69.3742 244.386C67.9995 244.368 66.6368 244.353 65.2827 244.078C63.3536 243.688 61.4537 242.943 59.9932 241.573C58.6322 240.282 58.2872 237.367 56.3942 236.976C55.4056 236.773 53.1539 237.972 52.095 238.185C50.4165 238.523 48.7088 238.697 46.9995 238.706C38.5847 238.746 30.2884 234.805 21.9937 236.222C19.8175 236.595 17.4834 237.526 16.5549 239.545C15.2574 242.367 17.4577 245.675 20.1316 247.228C28.3919 252.027 37.2632 253.152 46.5292 254.769L46.8416 254.757C49.7609 255.166 52.7129 255.397 55.6528 255.494C58.3645 256.757 60.7449 257.861 62.5092 258.681Z" fill="#202B5D"/>
<path d="M286.019 101.338C283.796 98.5038 281.184 95.8724 278.778 93.2238C277.319 91.6217 275.877 89.9038 275.236 87.8278C274.621 85.84 274.798 83.6947 275.114 81.6342C275.73 77.6309 276.852 73.69 276.991 69.6417C277.13 65.5934 276.116 61.2527 273.142 58.5279C269.182 54.8966 262.82 54.983 258.912 51.2929C254.224 46.8657 253.911 39.7639 246.447 38.8297C236.865 37.6308 229.281 44.7066 222.181 50.0334C220.355 51.4036 218.421 52.9278 217.784 55.1318C217.398 56.4726 217.551 57.9155 217.872 59.2735C218.671 62.6592 220.479 65.737 221.301 69.1175C221.548 70.1399 221.704 71.2056 221.52 72.2419C221.347 73.228 220.875 74.1328 220.408 75.0186C219.37 76.9961 218.332 78.9717 217.292 80.9492C216.195 83.039 215.09 85.1428 214.386 87.397C213.313 90.8294 213.784 94.1113 214.437 97.5679C214.801 99.4882 214.54 101.509 214.645 103.474C214.877 107.796 215.694 112.059 216.506 116.299C218.323 125.795 220.504 135.971 227.562 142.523C231.615 146.286 236.934 148.445 242.345 149.498C251.627 151.303 261.48 149.979 269.968 145.789C278.206 141.724 284.847 134.478 288.689 126.084C290.75 121.584 292.034 116.536 291.137 111.664C290.424 107.792 288.456 104.445 286.019 101.338Z" fill="#1F3553"/>
<path d="M49.9027 264.543C51.183 264.975 52.6006 264.953 54.1366 264.259C63.3992 260.069 72.6618 255.88 81.9261 251.69C77.3541 246.358 73.4084 240.35 69.2293 234.672C64.4994 238.229 59.8466 241.893 54.842 245.061C51.5108 247.17 48.2757 249.522 44.8655 251.515C44.1498 253.771 43.1801 256.515 43.7825 257.814C45.1298 260.724 47.2184 263.633 49.9027 264.543Z" fill="white"/>
<path d="M257.522 90.4444L257.522 90.4444C256.807 89.7287 255.966 89.1498 255.078 88.5459L255.002 88.4944C254.149 87.9148 253.255 87.307 252.475 86.5526L252.475 86.5525C249.923 84.0819 249.053 80.4988 248.922 77.1686L257.522 90.4444ZM257.522 90.4444C259.685 92.6101 259.809 95.2919 258.935 97.9921C258.055 100.709 256.183 103.365 254.491 105.313L254.491 105.313C250.917 109.433 245.964 111.945 240.517 111.729C236 111.547 231.949 109.16 228.364 106.354L228.072 106.727L228.364 106.354C226.785 105.119 225.304 103.927 223.926 102.652L223.926 102.652C222.016 100.888 220.308 98.9735 218.821 96.5958C218.115 95.466 217.714 94.2442 217.771 93.1468C217.827 92.0765 218.319 91.0876 219.49 90.358C220.131 89.9594 220.816 89.6861 221.546 89.3944C221.832 89.2803 222.124 89.1635 222.424 89.0352L222.424 89.0351C225.619 87.6667 228.085 85.4765 230.215 82.8248C231.391 81.3606 231.67 79.6034 231.573 77.8722C231.481 76.2435 231.052 74.5796 230.679 73.1311C230.657 73.0481 230.636 72.9658 230.615 72.8842L230.615 72.8838C230.21 71.3124 229.806 69.7409 229.402 68.1679C229.78 68.0066 230.23 67.9485 230.749 67.9403C231.042 67.9356 231.339 67.9466 231.647 67.958C231.686 67.9595 231.725 67.9609 231.764 67.9623C232.106 67.9748 232.463 67.9853 232.803 67.9666L232.803 67.9666C234.571 67.869 236.33 67.6509 238.068 67.4355C238.415 67.3926 238.76 67.3498 239.105 67.308L239.106 67.308M257.522 90.4444L239.106 67.308M239.106 67.308C239.5 67.2598 240.082 67.1541 240.759 67.0314C240.988 66.9899 241.227 66.9464 241.474 66.9026C242.465 66.7265 243.6 66.5381 244.717 66.4208C245.838 66.3029 246.915 66.2596 247.794 66.363C248.699 66.4696 249.265 66.7175 249.525 67.0578C249.793 67.4086 249.938 68.0076 249.951 68.8512M239.106 67.308L249.951 68.8512M249.951 68.8512C249.965 69.6773 249.853 70.6484 249.693 71.6644M249.951 68.8512L249.693 71.6644M249.693 71.6644C249.599 72.2609 249.493 72.8483 249.389 73.4252M249.693 71.6644L249.389 73.4252M249.389 73.4252C249.314 73.8435 249.24 74.2563 249.172 74.6633M249.389 73.4252L249.172 74.6633M249.172 74.6633C249.015 75.6002 248.895 76.4877 248.922 77.1683L249.172 74.6633Z" fill="white" stroke="#2F87FF"/>
<path d="M194.851 115.184L194.851 115.184C195.304 114.218 196.485 112.672 197.798 111.164C199.101 109.666 200.476 108.271 201.269 107.61C203.856 105.458 206.986 104.68 209.985 106.441L210.223 106.034L209.985 106.441C211.304 107.216 212.441 108.429 213.352 109.858L213.352 109.858C216.421 114.672 215.937 120.177 214.77 125.693C212.764 135.163 210.516 144.642 206.142 153.18L206.142 153.18C201.772 161.716 195.038 169.306 186.282 172.892C181.946 174.666 176.975 175.341 172.852 173.409L172.852 173.409C172.258 173.131 171.778 172.822 171.538 172.383L171.537 172.383C171.295 171.941 171.309 171.424 171.526 170.847C171.743 170.266 172.148 169.68 172.587 169.174L172.587 169.174C173.96 167.591 175.549 166.174 177.169 164.729C177.801 164.166 178.438 163.598 179.068 163.014C181.294 160.954 183.41 158.723 184.755 155.896C186.982 151.214 188.306 145.253 189.267 140.239L189.267 140.239C189.506 138.993 189.775 137.509 190.07 135.889C190.58 133.086 191.164 129.874 191.789 126.77C192.778 121.856 193.85 117.32 194.851 115.184Z" fill="white" stroke="#2F87FF"/>
<path d="M257.676 89.6534C257.676 89.6534 249.697 98.9644 236.899 96.6842C228.836 95.2449 225.17 91.5824 223.557 87.6016C220.38 89.1655 216.701 90.207 213.821 91.2433C211.797 91.9717 209.832 92.7155 207.943 93.5581C211.955 97.7361 210.51 114.088 210.191 120.035C210.016 123.308 209.686 130.192 209.686 130.192C209.496 138.11 209.199 143.12 208.173 148.4C206.53 156.836 207.328 158.237 205.797 162.926C204.27 167.607 206.781 171.745 207.441 176.593C207.766 178.963 221.455 178.091 223.591 178.664C227.695 179.764 253.403 186.485 256.37 177.063C257.824 172.448 258.955 161.517 259.998 153.485C260.254 149.442 259.823 140.068 259.698 136.468C259.433 136.406 259.212 136.212 259.159 135.852C258.392 130.671 256.866 125.349 257.63 120.071C258.191 116.197 260.063 112.637 263.122 110.185C267.651 106.556 275.393 110.383 281.074 111.296C278.99 96.0199 270.428 94.2103 257.676 89.6534Z" fill="#202B5D"/>
<path d="M210.259 92.5625C206.35 94.1161 202.716 95.9429 199.569 98.8425C198.403 100.218 197.37 101.688 196.442 103.242C192.618 112.06 191.25 123.359 191.25 123.359C191.25 123.359 214.261 129.116 217.766 128C220.804 117.21 222.501 94.059 210.259 92.5625Z" fill="#202B5D"/>
<path d="M130.385 173.303C136.152 168.725 143.757 167.151 165.78 173.507C179.592 177.495 156.03 190.702 149.542 200.062C133.735 222.858 117.555 218.307 94.1262 232.683C93.2955 233.192 76.1004 226.17 73.8281 220.694C85.3939 210.106 127.904 175.272 130.385 173.303Z" fill="#2F87FF"/>
<path d="M255.203 171.993C254.656 169.128 254.729 166.639 251.688 165.61L251.676 165.606C244.842 165.864 237.989 164.973 231.236 163.731C230.086 163.52 228.934 163.307 227.784 163.094C220.646 162.485 213.114 162.205 206.472 159.719C205.902 160.419 205.416 161.305 204.932 161.914C202.756 164.651 200.311 167.167 197.649 169.423C189.151 176.625 178.003 181.04 167.398 183.986C152.633 188.088 123.088 193.117 108.769 202.485C93.1428 212.71 66.2235 231.917 65.4357 232.588C64.787 233.14 71.3465 244.241 71.8974 245.24C73.2446 247.679 74.6125 250.111 76.0215 252.516C77.8133 255.571 79.1949 254.803 82.3751 253.528C98.8459 246.93 114.071 237.598 129.599 228.981C134.597 226.206 139.876 223.436 145.581 223.31C153.323 223.14 160.688 227.254 168.33 228.206C176.69 229.251 185.113 230.266 193.518 231.062C206.055 232.249 219.242 233.081 231.56 229.849C239.695 227.714 247.585 223.291 252.651 216.388C255.244 212.853 257.427 209.81 258.162 205.317C258.902 200.795 258.467 196.143 257.961 191.619C257.226 185.053 256.446 178.484 255.203 171.993Z" fill="#5CA2FF"/>
<path d="M258.929 175.797L258.929 175.797C253.31 180.344 246.619 183.58 239.599 185.308C229.755 187.729 219.293 187.26 209.503 184.545L209.503 184.545C208.407 184.242 207.398 183.915 206.662 183.244L206.661 183.243C205.924 182.573 205.597 181.513 205.968 180.767L205.968 180.766C206.213 180.271 206.718 179.917 207.341 179.571L207.341 179.571C209.667 178.274 212.25 177.531 214.879 176.774C215.081 176.716 215.284 176.658 215.486 176.599C223.762 174.211 232.034 171.294 239.329 166.575L239.329 166.575C246.188 162.137 253.912 154.982 255.851 146.538C256.331 144.445 256.751 142.334 257.169 140.231L257.224 139.954C257.662 137.757 258.1 135.569 258.609 133.404C259.627 129.074 260.922 124.858 263.031 120.905C263.185 120.618 263.328 120.449 263.46 120.338C263.592 120.228 263.737 120.155 263.926 120.085C264.011 120.054 264.111 120.023 264.224 119.988C264.586 119.875 265.075 119.722 265.604 119.402L265.345 118.974L265.604 119.401C266.088 119.108 266.481 118.537 266.808 117.973C267.042 117.571 267.274 117.113 267.498 116.671C267.596 116.477 267.693 116.285 267.788 116.103C268.112 115.481 268.412 114.963 268.708 114.636C269.009 114.304 269.167 114.309 269.27 114.347C273.241 115.836 275.806 118.037 277.384 120.83C278.969 123.635 279.587 127.087 279.569 131.12C279.516 142.284 276.743 151.472 271.021 161.131L271.021 161.131C269.246 164.129 267.348 167.044 265.136 169.697L265.136 169.697C263.272 171.934 261.188 173.971 258.929 175.797Z" fill="white" stroke="#2F87FF"/>
<path d="M260.111 103.522C264.491 100.017 273.023 102.681 278.465 103.783C279.495 105.546 280.933 108.906 281.534 112.47C282.459 117.945 280.284 136.969 280.284 136.969C273.311 138.169 264.755 135.213 257.597 134.822C256.356 126.713 252.675 109.473 260.111 103.522Z" fill="#202B5D"/>
<path d="M258.448 193.153C257.662 186.691 251.418 182.344 245.154 183.93L245.053 183.956C240.688 185.074 236.217 185.773 231.722 186.051C219.24 186.825 207.995 183.301 196.069 180.292C183.513 177.126 170.942 173.969 158.202 171.628C145.419 169.277 142.44 169.621 134.008 177.422C128.981 182.072 118.503 188.25 114.961 193.968C119.377 195.907 121.515 195.928 126.084 196.97C132.69 198.475 139.299 202.372 145.522 205.038C159.381 210.978 163.373 217.81 177.23 223.749C185.54 227.307 214.625 239.203 223.641 239.701C231.69 240.148 239.591 240.25 246.225 235.11C259.033 225.188 260.324 208.597 258.448 193.153Z" fill="#2F87FF"/>
<path d="M30.0723 233.326C28.6152 231.561 27.1581 229.7 25.1604 228.596C23.161 227.492 20.4321 227.356 18.776 228.933C17.5866 230.065 17.4579 231.138 17.6518 232.774C17.8011 234.03 18.1736 235.385 18.7193 236.53C19.6152 238.412 32.1936 262.993 39.2148 272.212C40.5981 274.03 42.1822 273.871 43.3475 273.278C46.9911 271.43 50.9711 269.088 54.5186 266.922C55.7302 266.183 55.6805 264.401 54.4396 263.714C42.8669 257.296 49.0986 248.973 49.0986 248.973C40.1587 243.682 30.1324 233.293 30.0723 233.326Z" fill="#2E4886"/>
<path d="M237.285 75.2027L237.285 75.2027C234.23 74.9386 230.448 73.2768 228.352 71.0263L228.352 71.0263C227.287 69.883 226.544 68.2676 225.973 66.5006C225.518 65.0956 225.184 63.6359 224.874 62.2842C224.794 61.9369 224.717 61.5968 224.639 61.2665L224.152 61.3813L224.639 61.2665C223.255 55.404 222.456 49.0433 225.354 44.0194L225.354 44.0193C226.674 41.7292 229.162 40.2926 232.006 39.5717C234.845 38.8519 237.965 38.8661 240.434 39.4119C244.988 40.4194 249.264 43.5464 250.93 47.9715L250.93 47.972C251.256 48.8363 251.528 49.6935 251.762 50.5425C252.139 53.1827 252.418 55.8219 252.392 58.4666L252.392 58.4668C252.377 60.1449 252.13 61.7595 251.877 63.4178C251.8 63.9233 251.722 64.433 251.65 64.9497C251.328 66.0918 251.034 67.2416 250.778 68.4004C247.047 72.1155 242.598 75.6628 237.285 75.2027Z" fill="white" stroke="#2F87FF"/>
<path d="M234.567 67.0667C236.038 68.3728 238.182 68.167 239.385 66.5996C239.884 65.9508 240.976 66.6238 240.471 67.2795C238.738 69.5337 235.767 69.8451 233.64 67.9525C233.023 67.4041 233.956 66.5217 234.567 67.0667Z" fill="#202B5D"/>
<path d="M225.612 36.4252C227.954 34.9045 231.588 34.3786 234.31 33.8267C237.909 33.0949 241.653 32.9323 245.254 33.7454C250.894 35.0239 256.147 39.0324 257.779 44.6187C259.053 48.9801 262.061 53.1443 266.131 55.4245C267.557 56.222 269.127 56.7185 270.685 57.2081C270.639 57.1926 267.282 61.8896 266.906 62.3152C263.573 66.0954 259.454 69.0883 257.481 73.9393C256.509 76.3285 256.197 79.0135 254.774 81.1605C254.086 82.1985 252.898 83.1414 251.711 82.7885C250.842 82.529 250.303 81.6605 249.955 80.8162C248.796 78.0101 248.879 74.8441 249.299 71.8356C250.132 65.8808 253.207 60.3049 251.699 54.1927C250.782 50.4731 247.986 45.1602 243.545 45.3003C242.59 45.3297 241.621 45.5857 240.859 46.1653C240.265 46.6186 239.826 47.2414 239.386 47.8469C237.467 50.4749 235.133 53.0699 232.005 53.9072C230.352 54.3484 228.61 54.2602 226.913 54.4782C224.445 54.793 222.136 56.0386 221.685 58.6856C221.453 60.0558 222.787 65.2839 221.184 64.9483C219.529 64.604 218.165 59.9035 217.746 58.5281C216.31 53.8051 216.749 48.5303 218.942 44.11C220.358 41.2607 222.763 38.2729 225.612 36.4252Z" fill="#1F3553"/>
<path d="M249.502 55.7051C249.738 55.11 250.144 54.6152 250.633 54.3021C251.288 53.6793 252.406 53.6377 253.216 53.9422C254.353 54.3678 255.157 55.5875 255.193 56.8729C255.275 59.7067 251.992 61.1859 250.131 59.2551C249.254 58.3469 249.025 56.9057 249.502 55.7051Z" fill="white"/>
<path d="M219.025 114.779C218.993 115.383 219.432 115.945 220.005 116.03C220.578 116.114 221.069 115.694 221.102 115.088C221.133 114.485 220.695 113.924 220.122 113.839C219.549 113.753 219.058 114.173 219.025 114.779Z" fill="#202B5D"/>
<path d="M157.5 171.518L225.815 187.029C226.112 185.699 225.285 184.377 223.965 184.078L158.037 169.109L157.5 171.518Z" fill="white"/>
<path d="M146.255 166.521L214.521 182.021L210.467 142.913C210.328 141.567 209.276 140.436 207.869 140.116L146.332 126.144C144.167 125.653 142.184 127.256 142.399 129.325L146.255 166.521Z" fill="#C8CDD1"/>
<path d="M145.547 168.861L214.138 184.435L214.676 182.027L146.084 166.453L145.547 168.861Z" fill="#C8CDD1"/>
<path d="M178.15 150.558L178.292 150.536L178.395 150.574C179.185 150.795 179.863 151.314 180.089 152.058C180.635 153.84 179.13 154.639 177.784 154.394C175.27 153.935 175.814 150.614 178.15 150.558ZM175.085 152.408C174.977 153.925 176.217 155.12 177.783 155.34C179.353 155.558 180.935 154.747 181.176 153.219C181.421 151.66 180.292 150.031 178.629 149.669L178.354 149.681L178.085 149.617C176.475 149.655 175.191 150.918 175.085 152.408Z" fill="white"/>
<path d="M179.514 98.7319C179.262 97.7111 177.966 96.9482 177.228 96.2942C176.24 95.4206 174.786 96.8756 175.778 97.7527L175.974 97.9274C162.85 97.6748 149.727 97.9516 136.627 98.7492C136.618 89.7513 136.612 80.7568 136.603 71.7606C137.478 72.3142 138.626 71.0133 137.82 70.1084C137.429 69.669 136.924 68.9095 136.335 68.4112L136.102 68.2331C135.671 67.939 135.203 67.8144 134.701 68.0618C134.144 68.3369 133.778 68.9735 133.411 69.4597C132.959 70.0652 132.541 70.6932 132.149 71.3385C131.458 72.4734 133.229 73.5131 133.917 72.38C134.121 72.0443 134.334 71.7156 134.554 71.3904C134.562 80.5509 134.571 89.7115 134.578 98.872C132.233 99.0243 129.889 99.1886 127.545 99.3754C126.24 99.4775 126.23 101.545 127.545 101.439C129.891 101.254 132.235 101.088 134.58 100.934C134.583 102.998 134.585 105.06 134.586 107.123C134.588 108.451 136.636 108.455 136.634 107.123C136.632 105.021 136.63 102.917 136.629 100.813C149.913 100.003 163.217 99.7318 176.525 100.002L176.502 100.026C175.533 100.929 176.983 102.386 177.949 101.486C178.66 100.825 179.784 99.82 179.514 98.7319Z" fill="#E7B484"/>
<path d="M154.846 92.3979C154.824 91.2007 151.5 91.2007 151.524 92.3979C151.556 94.0483 151.587 95.6988 151.62 97.351C151.644 98.5465 154.968 98.5499 154.944 97.351C154.911 95.6988 154.879 94.0483 154.846 92.3979Z" fill="#E7B484"/>
<path d="M159.258 89.032V97.4175C159.258 98.2583 161.753 98.2583 161.753 97.4175V89.032C161.753 87.3539 159.258 87.3539 159.258 89.032Z" fill="#E7B484"/>
<path d="M165.938 85.6714V97.4131C165.938 98.2539 169.265 98.2539 169.265 97.4131V85.6714C169.265 83.995 165.938 83.995 165.938 85.6714Z" fill="#E7B484"/>
<path d="M177.621 72.7877C177.597 72.196 177.089 71.6286 176.48 71.7462C176.27 71.6788 176.056 71.6234 175.846 71.5646L173.859 70.9902C172.589 70.6234 172.047 72.6147 173.313 72.9797C173.569 73.0541 173.823 73.1285 174.08 73.2012C161.564 81.2632 149.047 89.3234 136.531 97.3836C135.424 98.0964 136.448 99.8835 137.564 99.1656C150.015 91.1468 162.467 83.1316 174.915 75.1129L174.842 75.3222C174.393 76.5747 176.372 77.1128 176.816 75.8706C177.108 75.0575 177.854 73.7496 177.621 72.7877Z" fill="#E7B484"/>
</svg>
