<svg width="147" height="45" viewBox="0 0 147 45" fill="none" xmlns="http://www.w3.org/2000/svg">
<mask id="mask0_10560_33024" style="mask-type:alpha" maskUnits="userSpaceOnUse" x="0" y="0" width="45" height="45">
<circle cx="22.3811" cy="22.4514" r="22.3811" fill="#C4C4C4"/>
</mask>
<g mask="url(#mask0_10560_33024)">
<path d="M8.625 40.1352L16.6385 35.7245L45.0898 20.0469C45.0898 20.0469 45.3081 30.9645 41.5961 34.4581L8.625 40.1352Z" fill="#131A3F"/>
<path d="M8.625 40.1328L33.5171 42.098C33.5171 42.098 30.6785 45.3733 24.3463 46.0283C18.0141 46.6834 9.0617 42.9714 9.0617 42.9714L8.625 40.1328Z" fill="#010033"/>
<path d="M41.5968 34.2395L17.0104 35.7025L4.69531 36.423L8.62565 40.135L33.5178 42.1002C33.5178 42.1002 43.8895 36.5322 42.361 35.2221C40.8325 33.912 41.5968 34.2395 41.5968 34.2395Z" fill="#002054"/>
<path d="M17.0244 35.8828C14.1858 37.3458 11.3472 38.7869 8.50866 40.2498C7.24222 38.9834 5.95394 37.6951 4.6875 36.4287C8.44315 36.254 12.177 36.0575 15.9326 35.8828C16.3038 35.8828 16.6532 35.8828 17.0244 35.8828Z" fill="#37649B"/>
<path d="M44.1044 15.5722C43.5803 13.6507 42.2047 9.67671 38.6019 6.09574C37.2481 4.7638 33.2741 1.64136 27.6188 0.396757C13.6443 -2.66017 7.09375 5.85555 7.09375 5.85555C13.4696 7.86439 19.8237 9.85139 26.1995 11.8602C28.7106 10.2881 31.2216 8.7378 33.7327 7.16566C34.5406 8.38844 35.6542 9.85139 37.2263 11.2925C39.7592 13.607 42.3357 14.8735 44.1044 15.5722Z" fill="#B1D3FF"/>
<path d="M7.22083 5.85156C13.553 7.8604 19.8852 9.8474 26.1956 11.8562C23.4662 13.4502 20.7368 15.066 17.9856 16.66C12.1993 16.2888 6.41293 15.9394 0.648438 15.5682C1.12881 14.2799 1.8057 12.7733 2.78829 11.1575C4.25124 8.77747 5.88888 7.0525 7.22083 5.85156Z" fill="#FFECD9"/>
<path d="M0.76429 15.2422C0.76429 15.2422 -1.92144 24.9588 0.196576 26.0069C2.29275 27.0332 18.1888 16.1156 18.1888 16.1156L1.20099 15.264H0.76429V15.2422Z" fill="#FFE6DC"/>
<path d="M-0.854453 26.0959C8.09797 21.3577 17.0286 16.5976 25.981 11.8594C17.4871 17.8204 9.01505 23.8032 0.521164 29.7642C0.521164 29.7642 -1.07281 27.2532 -0.854453 26.0959Z" fill="#FEFFFD"/>
<path d="M0.975841 29.4365L26.0863 11.75C23.073 19.7853 20.038 27.8425 17.0247 35.8779C12.9197 36.0526 8.79284 36.2491 4.68782 36.4238C4.68782 36.4238 -0.33427 30.3099 0.975841 29.4365Z" fill="#2F80ED"/>
<path d="M26.0929 11.748L40.9408 20.0454L34.6086 10.6562L44.2161 15.6783C44.7183 18.5824 44.9803 20.1546 44.9803 20.1546C44.9803 20.1546 35.1981 25.657 17.0312 35.8759C20.0445 27.8405 23.0796 19.7834 26.0929 11.748Z" fill="#9DE6E8"/>
<path d="M33.8452 7.05469C36.3126 9.41289 38.78 11.7711 41.2692 14.1293C39.0857 12.9284 36.9022 11.7493 34.7186 10.5483C36.8367 13.7581 38.9328 16.946 41.0509 20.1558C36.0724 17.3609 31.0722 14.5442 26.0938 11.7493C28.6703 10.1771 31.2687 8.62682 33.8452 7.05469Z" fill="#FEFEFE"/>
</g>
<path d="M56.7757 4.30469H57.7146L64.156 19.5456H62.9987L60.9244 14.5236H53.5659L51.4916 19.5456H50.3125L56.7757 4.30469ZM60.5532 13.6065L57.2561 5.63664L53.9371 13.6065H60.5532Z" fill="black"/>
<path d="M70.7734 19.53V4.28906H77.1056C77.7607 4.28906 78.3502 4.42008 78.8961 4.70394C79.442 4.96596 79.9005 5.33716 80.2936 5.7957C80.6866 6.25423 80.9923 6.75644 81.2107 7.30232C81.429 7.87004 81.5382 8.43775 81.5382 9.0273C81.5382 9.79153 81.3853 10.4903 81.0796 11.1453C80.7739 11.8004 80.3591 12.3462 79.835 12.8048C79.2892 13.2415 78.6778 13.5253 77.9572 13.6127L81.7565 19.53H80.4901L76.8 13.7874H71.8652V19.53H70.7734ZM71.8652 12.783H77.2148C77.8699 12.783 78.4376 12.6083 78.9398 12.2371C79.4202 11.8877 79.7914 11.4073 80.0752 10.8396C80.3373 10.2719 80.4683 9.66052 80.4683 9.00546C80.4683 8.35041 80.3154 7.73902 80.0097 7.17131C79.704 6.60359 79.2892 6.14506 78.7869 5.7957C78.2847 5.44633 77.717 5.27165 77.0838 5.27165H71.887V12.783H71.8652Z" fill="black"/>
<path d="M87.9375 11.7956C87.9375 10.8785 88.0903 9.98324 88.4179 9.08799C88.7454 8.19275 89.2039 7.38485 89.8153 6.64246C90.4267 5.90006 91.1909 5.31051 92.0862 4.87381C92.9814 4.4371 94.0077 4.21875 95.1431 4.21875C96.4969 4.21875 97.6542 4.52444 98.6149 5.15766C99.5757 5.76905 100.296 6.57695 100.755 7.55953L99.8595 8.08358C99.5101 7.38485 99.0516 6.81714 98.5494 6.40227C98.0254 5.9874 97.4576 5.68171 96.8681 5.50702C96.2567 5.33234 95.6672 5.24501 95.0558 5.24501C94.095 5.24501 93.2434 5.44152 92.5011 5.83455C91.7587 6.22759 91.1254 6.7298 90.6014 7.38485C90.0773 8.01807 89.7061 8.73863 89.4223 9.5247C89.1603 10.3108 89.0293 11.0968 89.0293 11.9047C89.0293 12.8 89.1821 13.6515 89.5096 14.4594C89.8153 15.2674 90.252 15.9879 90.7979 16.6211C91.3438 17.2544 91.9988 17.7566 92.7194 18.1278C93.4618 18.499 94.2479 18.6955 95.1213 18.6955C95.7327 18.6955 96.3659 18.5863 96.9991 18.3898C97.6323 18.1933 98.2219 17.8657 98.7896 17.429C99.3573 16.9923 99.794 16.4246 100.143 15.7259L101.082 16.1844C100.755 16.9487 100.253 17.5819 99.5975 18.1059C98.9424 18.63 98.2 19.0448 97.414 19.3069C96.6061 19.5689 95.82 19.7217 95.0339 19.7217C94.0077 19.7217 93.0469 19.5034 92.1735 19.0448C91.3001 18.5863 90.5359 17.9968 89.9027 17.2325C89.2694 16.4901 88.7672 15.6386 88.4397 14.6996C88.1122 13.6952 87.9375 12.7563 87.9375 11.7956Z" fill="black"/>
<path d="M118.72 5.28727H113.152V19.5238H112.06V5.28727H106.492V4.30469H118.742V5.28727H118.72Z" fill="black"/>
<path d="M125.383 19.53V4.28906H126.475V19.53H125.383Z" fill="black"/>
<path d="M133.703 11.7956C133.703 10.8785 133.856 9.98324 134.184 9.08799C134.511 8.19275 134.97 7.38485 135.581 6.64246C136.192 5.90006 136.957 5.31051 137.852 4.87381C138.747 4.4371 139.773 4.21875 140.909 4.21875C142.263 4.21875 143.42 4.52444 144.381 5.15766C145.341 5.76905 146.062 6.57695 146.52 7.55953L145.625 8.08358C145.276 7.38485 144.817 6.81714 144.315 6.40227C143.791 5.9874 143.223 5.68171 142.634 5.50702C142.022 5.33234 141.433 5.24501 140.821 5.24501C139.861 5.24501 139.009 5.44152 138.267 5.83455C137.524 6.22759 136.891 6.7298 136.367 7.38485C135.843 8.01807 135.472 8.73863 135.188 9.5247C134.926 10.3108 134.795 11.0968 134.795 11.9047C134.795 12.8 134.948 13.6515 135.275 14.4594C135.581 15.2674 136.018 15.9879 136.564 16.6211C137.109 17.2544 137.764 17.7566 138.485 18.1278C139.227 18.499 140.013 18.6955 140.887 18.6955C141.498 18.6955 142.132 18.5863 142.765 18.3898C143.398 18.1933 143.988 17.8657 144.555 17.429C145.123 16.9923 145.56 16.4246 145.909 15.7259L146.848 16.1844C146.52 16.9487 146.018 17.5819 145.363 18.1059C144.708 18.63 143.966 19.0448 143.18 19.3069C142.372 19.5689 141.586 19.7217 140.8 19.7217C139.773 19.7217 138.813 19.5034 137.939 19.0448C137.066 18.5863 136.302 17.9968 135.668 17.2325C135.035 16.4901 134.533 15.6386 134.205 14.6996C133.878 13.6952 133.703 12.7563 133.703 11.7956Z" fill="black"/>
<path d="M62.6496 25.7248H57.0816V39.9613H55.9898V25.7248H50.4219V24.7422H62.6714V25.7248H62.6496Z" fill="black"/>
<path d="M69.7913 24.7422H70.7303L77.1716 39.9831H76.0144L73.94 34.9611H66.5816L64.5072 39.9831H63.3281L69.7913 24.7422ZM73.5688 34.0658L70.2717 26.096L66.9528 34.0658H73.5688Z" fill="black"/>
<path d="M79.4844 39.9831V24.7422H80.5761V38.9787H89.6814V39.9613H79.4844V39.9831Z" fill="black"/>
<path d="M102.106 39.0006V39.9831H91.9531V24.7422H101.91V25.7248H93.0449V31.7294H100.796V32.6684H93.0449V39.0006H102.106Z" fill="black"/>
<path d="M106.17 26.7947V39.9831H105.078V24.7422H105.973L116.585 38.149V24.7422H117.677V39.9831H116.607L106.17 26.7947Z" fill="black"/>
<path d="M132.306 25.7248H126.738V39.9613H125.646V25.7248H120.078V24.7422H132.328V25.7248H132.306Z" fill="black"/>
<path d="M143.524 27.2717C143.284 27.0096 143 26.7695 142.716 26.5511C142.41 26.3546 142.104 26.1799 141.755 26.0271C141.406 25.896 141.035 25.7869 140.642 25.7214C140.248 25.6559 139.812 25.6122 139.353 25.6122C137.868 25.6122 136.777 25.896 136.1 26.4638C135.423 27.0315 135.074 27.7957 135.074 28.7346C135.074 29.3678 135.226 29.8919 135.532 30.2631C135.838 30.6343 136.318 30.94 136.973 31.1802C137.628 31.3985 138.48 31.6387 139.528 31.8352C140.62 32.0536 141.58 32.3374 142.388 32.6431C143.196 32.9488 143.808 33.3637 144.244 33.8877C144.681 34.4118 144.899 35.1323 144.899 36.0276C144.899 36.7045 144.768 37.294 144.506 37.7962C144.244 38.2984 143.873 38.7133 143.393 39.0408C142.912 39.3684 142.323 39.6086 141.668 39.7832C141.013 39.9579 140.27 40.0452 139.441 40.0452C138.655 40.0452 137.912 39.9579 137.192 39.7832C136.471 39.6086 135.794 39.3684 135.183 39.0408C134.549 38.7133 133.96 38.2984 133.414 37.7744L134.004 36.901C134.309 37.2504 134.68 37.556 135.074 37.8181C135.467 38.0801 135.903 38.2984 136.362 38.495C136.82 38.6915 137.323 38.8225 137.847 38.9317C138.371 39.0408 138.917 39.0845 139.506 39.0845C140.838 39.0845 141.886 38.8443 142.629 38.3421C143.371 37.8399 143.764 37.1193 143.764 36.1368C143.764 35.4599 143.589 34.914 143.24 34.4991C142.891 34.0842 142.366 33.7349 141.646 33.4729C140.925 33.2108 140.03 32.9706 138.96 32.7305C137.89 32.5121 136.973 32.2501 136.231 31.9662C135.488 31.6824 134.921 31.2893 134.528 30.809C134.156 30.3286 133.96 29.6735 133.96 28.8438C133.96 27.9267 134.178 27.1625 134.637 26.5293C135.095 25.8961 135.729 25.4157 136.536 25.0882C137.344 24.7606 138.283 24.5859 139.353 24.5859C140.008 24.5859 140.62 24.6514 141.187 24.7825C141.755 24.9135 142.279 25.11 142.76 25.372C143.24 25.634 143.677 25.9616 144.091 26.3764L143.524 27.2717Z" fill="black"/>
</svg>
