<svg width="20" height="21" viewBox="0 0 20 21" fill="none" xmlns="http://www.w3.org/2000/svg">
<path d="M13.332 3.83203H14.9987C15.4407 3.83203 15.8646 4.00763 16.1772 4.32019C16.4898 4.63275 16.6654 5.05667 16.6654 5.4987V17.1654C16.6654 17.6074 16.4898 18.0313 16.1772 18.3439C15.8646 18.6564 15.4407 18.832 14.9987 18.832H4.9987C4.55667 18.832 4.13275 18.6564 3.82019 18.3439C3.50763 18.0313 3.33203 17.6074 3.33203 17.1654V5.4987C3.33203 5.05667 3.50763 4.63275 3.82019 4.32019C4.13275 4.00763 4.55667 3.83203 4.9987 3.83203H6.66536" stroke="#2F87FF" stroke-width="1.2" stroke-linecap="round" stroke-linejoin="round"/>
<path d="M12.5013 2.16797H7.5013C7.04106 2.16797 6.66797 2.54106 6.66797 3.0013V4.66797C6.66797 5.12821 7.04106 5.5013 7.5013 5.5013H12.5013C12.9615 5.5013 13.3346 5.12821 13.3346 4.66797V3.0013C13.3346 2.54106 12.9615 2.16797 12.5013 2.16797Z" stroke="#2F87FF" stroke-width="1.2" stroke-linecap="round" stroke-linejoin="round"/>
<path d="M6.66797 12.332L8.20643 13.832L13.3346 8.83203" stroke="#2F87FF" stroke-width="1.2" stroke-linecap="round" stroke-linejoin="round"/>
</svg>
