<svg width="24" height="24" viewBox="0 0 24 24" fill="none" xmlns="http://www.w3.org/2000/svg">
<path d="M12.5679 18.0534C12.7501 18.2992 12.748 18.6334 12.5625 18.8769L11.1563 20.7231C10.9233 21.029 10.4826 21.0909 10.1719 20.8615C9.86122 20.6321 9.79828 20.1981 10.0312 19.8923L10.6236 19.1146C4.56604 18.7704 0 16.1749 0 12.9232C0 11.7679 0.584742 10.6491 1.69097 9.68779C1.98207 9.43482 2.42638 9.46205 2.68339 9.74867L2.68347 9.74874C2.9404 10.0354 2.91274 10.4728 2.62164 10.7259L2.62156 10.726C1.81518 11.4268 1.4063 12.166 1.4063 12.9233C1.4063 14.1088 2.47025 15.3104 4.3254 16.2198C6.02893 17.055 8.21277 17.5763 10.5835 17.725L10.026 16.9729C9.79701 16.6641 9.86567 16.231 10.1793 16.0056C10.493 15.7801 10.9329 15.8477 11.1617 16.1566L12.5679 18.0534ZM22.309 9.68771C22.0179 9.43474 21.5735 9.46197 21.3166 9.74859C21.0596 10.0352 21.0873 10.4728 21.3784 10.7257C22.1849 11.4266 22.5938 12.1659 22.5938 12.9231C22.5938 14.1448 21.5352 15.0915 20.6471 15.6704C19.2995 16.5491 17.3641 17.2115 15.1975 17.5359C14.8136 17.5934 14.5496 17.9464 14.6081 18.3243V18.3244C14.6664 18.7024 15.0249 18.9622 15.4088 18.9048C17.8073 18.5457 19.8873 17.8265 21.4235 16.8249C23.1091 15.726 24 14.3768 24 12.9232C24 11.7679 23.4153 10.6491 22.309 9.68771ZM7.58694 6.92308C8.00201 7.33967 8.25846 7.91017 8.25846 8.53849C8.25846 9.81095 7.20707 10.8462 5.91473 10.8462C4.752 10.8462 3.75409 9.99209 3.59356 8.85946C3.57854 8.75352 3.57091 8.64553 3.57091 8.53849C3.57091 8.15618 3.8857 7.84616 4.27407 7.84616C4.66244 7.84616 4.97722 8.1561 4.97722 8.53849C4.97722 8.58169 4.98032 8.62535 4.98636 8.66815C5.05041 9.1205 5.44959 9.46158 5.91473 9.46158C6.43168 9.46158 6.85224 9.04749 6.85224 8.53849C6.85224 8.02949 6.43168 7.61541 5.91473 7.61541C5.52644 7.61541 5.21158 7.30547 5.21158 6.92308C5.21158 6.54076 5.52636 6.23074 5.91473 6.23074C6.43168 6.23074 6.85224 5.81666 6.85224 5.30774C6.85224 4.79874 6.43168 4.38466 5.91473 4.38466C5.46763 4.38466 5.08077 4.69733 4.99478 5.12808C4.91992 5.50328 4.55031 5.74765 4.16932 5.67394C3.78834 5.60023 3.54008 5.2363 3.61494 4.86118C3.83015 3.78278 4.79738 3.00007 5.91473 3.00007C7.20707 3.00007 8.25846 4.03528 8.25846 5.30774C8.25838 5.93606 8.00201 6.50657 7.58694 6.92308ZM14.4387 8.2651C14.4387 9.68834 13.2628 10.8462 11.8173 10.8462C10.3718 10.8462 9.19589 9.68834 9.19589 8.2651C9.19589 8.1302 9.20654 7.99773 9.22689 7.86838C9.60079 4.82394 11.7677 3.20461 11.8601 3.13685C12.1718 2.90868 12.6122 2.97237 12.844 3.27918C13.0752 3.58528 13.0113 4.01768 12.7016 4.24624C12.6869 4.25727 12.0242 4.7629 11.4433 5.71071C11.5655 5.69342 11.6904 5.68403 11.8174 5.68403C13.2628 5.68403 14.4387 6.84186 14.4387 8.2651ZM13.0325 8.2651C13.0325 7.60531 12.4874 7.06862 11.8174 7.06862C11.1473 7.06862 10.6022 7.60531 10.6022 8.2651C10.6022 8.92488 11.1473 9.46158 11.8174 9.46158C12.4874 9.46158 13.0325 8.92488 13.0325 8.2651ZM20.4291 8.35868V5.48771C20.4291 4.11611 19.2958 3.00015 17.9027 3.00015C16.5097 3.00015 15.3763 4.11611 15.3763 5.48771V8.35868C15.3763 9.73028 16.5097 10.8462 17.9027 10.8462C19.2958 10.8462 20.4291 9.73028 20.4291 8.35868ZM19.0229 5.48763V8.3586C19.0229 8.96674 18.5204 9.46158 17.9027 9.46158C17.2851 9.46158 16.7825 8.96674 16.7825 8.3586V5.48763C16.7825 4.87949 17.2851 4.38466 17.9027 4.38466C18.5204 4.38473 19.0229 4.87949 19.0229 5.48763Z" fill="#2F87FF"/>
</svg>
