<svg width="20" height="21" viewBox="0 0 20 21" fill="none" xmlns="http://www.w3.org/2000/svg">
<path d="M17.0703 10.9716H15.1126C14.8461 10.9716 14.5882 11.008 14.3427 11.0749C13.8584 10.1229 12.8696 9.46875 11.7303 9.46875H8.26973C7.13039 9.46875 6.14164 10.1229 5.65734 11.0749C5.41184 11.008 5.15387 10.9716 4.88742 10.9716H2.92969C1.31426 10.9716 0 12.2858 0 13.9013V17.0309C0 18.0001 0.788555 18.7887 1.75781 18.7887H18.2422C19.2114 18.7887 20 18.0001 20 17.0309V13.9013C20 12.2858 18.6857 10.9716 17.0703 10.9716ZM5.34004 12.3985V17.6168H1.75781C1.43473 17.6168 1.17188 17.354 1.17188 17.0309V13.9013C1.17188 12.932 1.96043 12.1435 2.92969 12.1435H4.88742C5.04648 12.1435 5.20051 12.1651 5.34715 12.2049C5.34293 12.269 5.34004 12.3334 5.34004 12.3985ZM13.4881 17.6168H6.51191V12.3985C6.51191 11.4292 7.30047 10.6407 8.26973 10.6407H11.7303C12.6995 10.6407 13.4881 11.4292 13.4881 12.3985V17.6168ZM18.8281 17.0309C18.8281 17.354 18.5653 17.6168 18.2422 17.6168H14.66V12.3985C14.66 12.3334 14.6571 12.2689 14.6529 12.2048C14.7995 12.1651 14.9535 12.1434 15.1126 12.1434H17.0703C18.0396 12.1434 18.8281 12.932 18.8281 13.9013V17.0309Z" fill="#2F87FF"/>
<path d="M3.91586 5.44531C2.48035 5.44531 1.3125 6.61316 1.3125 8.04867C1.31246 9.48418 2.48035 10.652 3.91586 10.652C5.35133 10.652 6.51922 9.48418 6.51922 8.04867C6.51922 6.61316 5.35137 5.44531 3.91586 5.44531ZM3.91582 9.48016C3.12648 9.48016 2.48434 8.83801 2.48434 8.04867C2.48434 7.25934 3.12648 6.61719 3.91582 6.61719C4.70516 6.61719 5.3473 7.25934 5.3473 8.04867C5.3473 8.83801 4.70516 9.48016 3.91582 9.48016Z" fill="#2F87FF"/>
<path d="M10.0015 2.20312C8.08367 2.20312 6.52344 3.76336 6.52344 5.68117C6.52344 7.59898 8.08367 9.15922 10.0015 9.15922C11.9193 9.15922 13.4795 7.59898 13.4795 5.68117C13.4795 3.7634 11.9193 2.20312 10.0015 2.20312ZM10.0015 7.98734C8.72984 7.98734 7.69531 6.95281 7.69531 5.68117C7.69531 4.40957 8.72984 3.375 10.0015 3.375C11.2731 3.375 12.3077 4.40953 12.3077 5.68117C12.3077 6.95281 11.2731 7.98734 10.0015 7.98734Z" fill="#2F87FF"/>
<path d="M16.0877 5.44531C14.6523 5.44531 13.4844 6.61316 13.4844 8.04867C13.4844 9.48418 14.6523 10.652 16.0877 10.652C17.5232 10.652 18.6911 9.48418 18.6911 8.04867C18.6911 6.61316 17.5232 5.44531 16.0877 5.44531ZM16.0877 9.48016C15.2984 9.48016 14.6563 8.83801 14.6563 8.04867C14.6563 7.25934 15.2984 6.61719 16.0877 6.61719C16.8771 6.61719 17.5192 7.25934 17.5192 8.04867C17.5192 8.83801 16.8771 9.48016 16.0877 9.48016Z" fill="#2F87FF"/>
</svg>
