<svg width="20" height="21" viewBox="0 0 20 21" fill="none" xmlns="http://www.w3.org/2000/svg">
<g clip-path="url(#clip0_10560_23370)">
<path d="M20 10.5C20 4.97311 15.5275 0.5 10 0.5C4.47311 0.5 0 4.9725 0 10.5C0 15.9779 4.43512 20.5 10 20.5C15.542 20.5 20 16.0031 20 10.5ZM10 1.67188C14.8679 1.67188 18.8281 5.63214 18.8281 10.5C18.8281 12.2807 18.2985 13.9923 17.3163 15.442C13.3722 11.1995 6.63498 11.1918 2.68372 15.442C1.70151 13.9923 1.17188 12.2807 1.17188 10.5C1.17188 5.63214 5.13214 1.67188 10 1.67188ZM3.41461 16.3789C6.92139 12.4455 13.0795 12.4464 16.5852 16.3789C13.0667 20.3154 6.93466 20.3166 3.41461 16.3789Z" fill="#2F87FF"/>
<path d="M10 11.0859C11.9385 11.0859 13.5156 9.50879 13.5156 7.57031V6.39844C13.5156 4.45996 11.9385 2.88281 10 2.88281C8.06152 2.88281 6.48438 4.45996 6.48438 6.39844V7.57031C6.48438 9.50879 8.06152 11.0859 10 11.0859ZM7.65625 6.39844C7.65625 5.10602 8.70758 4.05469 10 4.05469C11.2924 4.05469 12.3438 5.10602 12.3438 6.39844V7.57031C12.3438 8.86273 11.2924 9.91406 10 9.91406C8.70758 9.91406 7.65625 8.86273 7.65625 7.57031V6.39844Z" fill="#2F87FF"/>
</g>
<defs>
<clipPath id="clip0_10560_23370">
<rect width="20" height="20" fill="white" transform="translate(0 0.5)"/>
</clipPath>
</defs>
</svg>
