<svg width="21" height="20" viewBox="0 0 21 20" fill="none" xmlns="http://www.w3.org/2000/svg">
<g clip-path="url(#clip0_10742_78000)">
<path d="M10.6616 20H9.40242C8.38397 20 7.55535 19.1741 7.55535 18.1589V17.7342C7.12236 17.5963 6.70168 17.4223 6.29754 17.2138L5.99564 17.5147C5.26444 18.2445 4.09316 18.2231 3.38319 17.5145L2.4932 16.6273C1.78198 15.9192 1.76153 14.752 2.49343 14.0232L2.7951 13.7225C2.58596 13.3197 2.41138 12.9004 2.273 12.4688H1.84703C0.828624 12.4688 0 11.6428 0 10.6276V9.37238C0 8.35719 0.828624 7.53125 1.84707 7.53125H2.27304C2.41142 7.09961 2.586 6.68031 2.79514 6.27746L2.49324 5.97656C1.76176 5.2482 1.78194 4.08094 2.49347 3.37246L3.38354 2.48527C4.09515 1.77496 5.26616 1.75723 5.99595 2.48551L6.29758 2.78617C6.70172 2.57773 7.1224 2.40367 7.55539 2.26574V1.84113C7.55539 0.825937 8.38397 0 9.40246 0H10.6617C11.6801 0 12.5087 0.825937 12.5087 1.84113V2.26578C12.9417 2.40367 13.3624 2.57773 13.7665 2.78621L14.0684 2.48527C14.7996 1.75551 15.9709 1.77691 16.6809 2.48555L17.5709 3.37266C18.2821 4.08082 18.3025 5.24797 17.5706 5.97676L17.269 6.27746C17.4781 6.68031 17.6527 7.09957 17.7911 7.53125H18.217C19.2355 7.53125 20.0641 8.35719 20.0641 9.37238V10.6276C20.0641 11.6428 19.2355 12.4688 18.217 12.4688H17.7911C17.6527 12.9004 17.4781 13.3197 17.269 13.7225L17.5709 14.0235C18.3023 14.7518 18.2822 15.9191 17.5706 16.6276L16.6806 17.5148C15.9689 18.2251 14.7979 18.2428 14.0681 17.5145L13.7665 17.2139C13.3624 17.4223 12.9417 17.5964 12.5087 17.7343V18.1589C12.5087 19.1741 11.6801 20 10.6616 20ZM6.49407 15.9832C7.05551 16.3142 7.65978 16.5642 8.29008 16.7264C8.54966 16.7931 8.73102 17.0265 8.73102 17.2937V18.1589C8.73102 18.5279 9.03226 18.8281 9.40246 18.8281H10.6617C11.0319 18.8281 11.3331 18.5279 11.3331 18.1589V17.2937C11.3331 17.0265 11.5145 16.7931 11.7741 16.7264C12.4044 16.5642 13.0086 16.3142 13.5701 15.9832C13.8011 15.847 14.0952 15.8841 14.285 16.0732L14.8998 16.6861C15.1648 16.9506 15.5905 16.9445 15.849 16.6864L16.7397 15.7986C16.9976 15.5418 17.0062 15.1175 16.7399 14.8523L16.1248 14.2393C15.9351 14.0501 15.8979 13.7569 16.0345 13.5267C16.3665 12.9671 16.6173 12.3647 16.78 11.7364C16.847 11.4777 17.0811 11.2969 17.3492 11.2969H18.2171C18.5873 11.2969 18.8885 10.9967 18.8885 10.6277V9.37242C18.8885 9.0034 18.5873 8.70316 18.2171 8.70316H17.3492C17.0811 8.70316 16.847 8.52238 16.78 8.26367C16.6173 7.63535 16.3665 7.03301 16.0345 6.4734C15.8979 6.24316 15.9351 5.94996 16.1248 5.76082L16.7397 5.14797C17.0054 4.88336 16.9985 4.45914 16.7399 4.20168L15.8493 3.31398C15.5912 3.05633 15.1655 3.04879 14.9 3.31375L14.285 3.92684C14.0953 4.11602 13.801 4.15305 13.5701 4.01688C13.0087 3.6859 12.4044 3.43586 11.7741 3.27371C11.5145 3.20695 11.3332 2.97359 11.3332 2.70637V1.84113C11.3332 1.47211 11.0319 1.17188 10.6617 1.17188H9.4025C9.03229 1.17188 8.73106 1.47211 8.73106 1.84113V2.70629C8.73106 2.97352 8.5497 3.20688 8.29012 3.27363C7.65982 3.43578 7.05555 3.68582 6.49411 4.0168C6.26306 4.15293 5.96895 4.1159 5.77921 3.92676L5.16443 3.31391C4.89936 3.04938 4.47367 3.05551 4.21515 3.31363L3.32453 4.20137C3.06659 4.45816 3.05797 4.8825 3.32429 5.14766L3.93934 5.76074C4.12909 5.94988 4.16624 6.24309 4.02967 6.47332C3.69763 7.03293 3.44683 7.63527 3.28416 8.26359C3.21715 8.52234 2.98305 8.70309 2.715 8.70309H1.84707C1.47687 8.70312 1.17563 9.00336 1.17563 9.37238V10.6276C1.17563 10.9966 1.47687 11.2969 1.84707 11.2969H2.71496C2.98305 11.2969 3.21711 11.4777 3.28413 11.7364C3.44679 12.3647 3.69763 12.967 4.02963 13.5266C4.1662 13.7569 4.12905 14.0501 3.9393 14.2392L3.32449 14.8521C3.05872 15.1167 3.06565 15.5409 3.32425 15.7984L4.21479 16.6861C4.47292 16.9437 4.89866 16.9513 5.16412 16.6863L5.77913 16.0732C5.91895 15.9339 6.20984 15.8156 6.49407 15.9832Z" fill="#2F87FF"/>
<path d="M10.0335 14.3516C7.6263 14.3516 5.66797 12.3995 5.66797 10C5.66797 7.60055 7.6263 5.64844 10.0335 5.64844C12.4407 5.64844 14.399 7.60055 14.399 10C14.399 12.3995 12.4407 14.3516 10.0335 14.3516ZM10.0335 6.82031C8.27454 6.82031 6.8436 8.24672 6.8436 10C6.8436 11.7533 8.27458 13.1797 10.0335 13.1797C11.7924 13.1797 13.2234 11.7533 13.2234 10C13.2234 8.24672 11.7924 6.82031 10.0335 6.82031Z" fill="#2F87FF"/>
</g>
<defs>
<clipPath id="clip0_10742_78000">
<rect width="20.0641" height="20" fill="white"/>
</clipPath>
</defs>
</svg>
