<svg width="20" height="21" viewBox="0 0 20 21" fill="none" xmlns="http://www.w3.org/2000/svg">
<path d="M18.9789 2.84373C18.9399 2.12873 18.3713 1.56015 17.6563 1.52112C16.2135 1.4423 13.3903 1.51898 10.6908 2.91528C9.31457 3.62712 7.8591 4.83399 6.69757 6.22645C6.68326 6.24361 6.66934 6.26087 6.65514 6.27806L4.01912 6.48169C3.58522 6.51523 3.19875 6.74265 2.95877 7.1056L1.16039 9.8257C0.978388 10.101 0.949454 10.4455 1.08294 10.7472C1.21647 11.049 1.49083 11.2593 1.8169 11.3098L4.03775 11.6538C4.02991 11.697 4.02204 11.7401 4.01483 11.7833C3.9409 12.2255 4.08743 12.6802 4.40686 12.9996L7.50033 16.0931C7.76516 16.358 8.12301 16.504 8.48969 16.504C8.56521 16.504 8.64115 16.4977 8.71673 16.4851C8.75991 16.4779 8.80304 16.47 8.84621 16.4622L9.19018 18.6831C9.2407 19.0091 9.45101 19.2835 9.75272 19.417C9.87826 19.4726 10.0111 19.5 10.1434 19.5C10.3291 19.5 10.5135 19.4459 10.6743 19.3396L13.3944 17.5412C13.7574 17.3012 13.9848 16.9147 14.0182 16.4809L14.2219 13.8449C14.239 13.8307 14.2563 13.8168 14.2735 13.8025C15.666 12.6409 16.8729 11.1855 17.5847 9.80925C18.9811 7.10958 19.0576 4.28636 18.9789 2.84373ZM12.8127 16.6614L10.2108 18.3817L9.87552 16.2173C10.9752 15.894 12.063 15.3761 13.0994 14.6824L12.9668 16.3996C12.9585 16.5067 12.9023 16.6021 12.8127 16.6614ZM8.2461 15.3474L5.15259 12.2539C5.07367 12.1749 5.03718 12.064 5.05507 11.9571C5.14704 11.4072 5.28995 10.8837 5.46686 10.3905L10.1085 15.0321C9.51615 15.2443 8.98561 15.3708 8.54282 15.4449C8.4358 15.4627 8.32502 15.4263 8.2461 15.3474ZM4.10037 7.53324L5.81754 7.4006C5.12377 8.43696 4.60591 9.5248 4.28258 10.6245L2.11822 10.2893L3.83856 7.6873C3.89783 7.59765 3.99328 7.5415 4.10037 7.53324ZM13.598 12.9925C12.7461 13.7031 11.9191 14.2171 11.1568 14.589L5.91077 9.34297C6.39797 8.34791 6.99257 7.51932 7.50746 6.90205C8.58237 5.6134 9.91925 4.50173 11.1754 3.85205C13.653 2.5705 16.2633 2.50149 17.5989 2.57419C17.7756 2.58382 17.9162 2.72441 17.9258 2.90121C17.9986 4.23672 17.9295 6.84707 16.6479 9.32469C15.9983 10.5808 14.8866 11.9176 13.598 12.9925Z" fill="#2F87FF"/>
<path d="M13.5 9.5C14.1401 9.49993 14.7805 9.25614 15.2678 8.7686C15.74 8.29619 16 7.66808 16 7.00001C16 6.33194 15.74 5.70382 15.2678 5.23142C14.293 4.25616 12.707 4.25623 11.7323 5.23142C11.26 5.70382 11 6.33194 11 7.00001C11 7.66808 11.2601 8.29619 11.7323 8.7686C12.2197 9.25624 12.8597 9.50007 13.5 9.5ZM12.4393 5.93884C12.7317 5.64626 13.1158 5.49999 13.4999 5.49999C13.8841 5.49999 14.2682 5.64626 14.5606 5.93884C14.8439 6.22228 14.9999 6.59914 14.9999 6.99997C14.9999 7.40081 14.8439 7.7777 14.5606 8.06114C13.9758 8.64627 13.0241 8.64624 12.4393 8.06114C12.156 7.7777 11.9999 7.40084 11.9999 7.00001C11.9999 6.59917 12.156 6.22228 12.4393 5.93884Z" fill="#2F87FF"/>
<path d="M1.5698 16.5078C1.71564 16.5078 1.86148 16.4522 1.97271 16.3409L3.8331 14.4805C4.05563 14.258 4.05563 13.8972 3.8331 13.6747C3.6106 13.4522 3.24979 13.4522 3.02726 13.6747L1.1669 15.5351C0.944366 15.7576 0.944366 16.1184 1.1669 16.3409C1.27813 16.4522 1.42397 16.5078 1.5698 16.5078Z" fill="#2F87FF"/>
<path d="M4.85845 15.6415C4.66975 15.4528 4.36374 15.4528 4.17501 15.6415L1.14155 18.675C0.952817 18.8638 0.952817 19.1697 1.14155 19.3585C1.23592 19.4528 1.35957 19.5 1.48326 19.5C1.60694 19.5 1.73063 19.4528 1.82496 19.3584L4.85842 16.325C5.04719 16.1363 5.04719 15.8303 4.85845 15.6415Z" fill="#2F87FF"/>
<path d="M6.02729 16.6669L4.1669 18.5273C3.94437 18.7498 3.94437 19.1106 4.1669 19.3331C4.27817 19.4443 4.424 19.5 4.5698 19.5C4.7156 19.5 4.86148 19.4444 4.97271 19.3331L6.8331 17.4727C7.05563 17.2502 7.05563 16.8894 6.8331 16.6669C6.6106 16.4444 6.24979 16.4444 6.02729 16.6669Z" fill="#2F87FF"/>
</svg>
