<svg width="20" height="21" viewBox="0 0 20 21" fill="none" xmlns="http://www.w3.org/2000/svg">
<path d="M9.84375 20.8359H8.28125C7.50582 20.8359 6.875 20.2051 6.875 19.4297V9.74219C6.875 8.96676 7.50582 8.33594 8.28125 8.33594H9.84375C10.6192 8.33594 11.25 8.96676 11.25 9.74219V19.4297C11.25 20.2051 10.6191 20.8359 9.84375 20.8359ZM8.28125 9.58594C8.19508 9.58594 8.125 9.65602 8.125 9.74219V19.4297C8.125 19.5159 8.19508 19.5859 8.28125 19.5859H9.84375C9.92992 19.5859 10 19.5159 10 19.4297V9.74219C10 9.65602 9.92992 9.58594 9.84375 9.58594H8.28125Z" fill="#2F87FF"/>
<path d="M3.90625 20.8359H2.34375C1.56832 20.8359 0.9375 20.2051 0.9375 19.4297V12.8672C0.9375 12.0918 1.56832 11.4609 2.34375 11.4609H3.90625C4.68168 11.4609 5.3125 12.0918 5.3125 12.8672V19.4297C5.3125 20.2051 4.68164 20.8359 3.90625 20.8359ZM2.34375 12.7109C2.25758 12.7109 2.1875 12.781 2.1875 12.8672V19.4297C2.1875 19.5159 2.25758 19.5859 2.34375 19.5859H3.90625C3.99242 19.5859 4.0625 19.5159 4.0625 19.4297V12.8672C4.0625 12.781 3.99242 12.7109 3.90625 12.7109H2.34375Z" fill="#2F87FF"/>
<path d="M15.7822 20.8359H14.2197C13.4443 20.8359 12.8135 20.2051 12.8135 19.4297V6.46094H11.9549C11.5535 6.46094 11.1999 6.23438 11.0321 5.86969C10.8644 5.505 10.9225 5.08914 11.1837 4.78434C11.1867 4.78086 11.1898 4.77738 11.1928 4.77398L14.5355 1.04383C14.6541 0.911523 14.8233 0.835938 15.001 0.835938C15.1786 0.835938 15.3478 0.911523 15.4664 1.04383L18.8091 4.77398C18.8122 4.77738 18.8152 4.78086 18.8182 4.78434C19.0794 5.0891 19.1375 5.505 18.9698 5.86969C18.8021 6.23438 18.4485 6.46094 18.0471 6.46094H17.1885V19.4297C17.1885 20.2051 16.5576 20.8359 15.7822 20.8359ZM12.4797 5.21094H13.4385C13.7836 5.21094 14.0635 5.49078 14.0635 5.83594V19.4297C14.0635 19.5159 14.1335 19.5859 14.2197 19.5859H15.7822C15.8684 19.5859 15.9385 19.5159 15.9385 19.4297V5.83594C15.9385 5.49078 16.2183 5.21094 16.5635 5.21094H17.5222L15.001 2.39746L12.4797 5.21094Z" fill="#2F87FF"/>
</svg>
