<svg width="22" height="18" viewBox="0 0 22 18" fill="none" xmlns="http://www.w3.org/2000/svg">
<path d="M21.6031 5.46297L11.2906 0.650473C11.1996 0.607966 11.1003 0.585938 10.9998 0.585938C10.8993 0.585938 10.8001 0.607966 10.709 0.650473L0.396497 5.46297C0.278006 5.51833 0.177764 5.60634 0.107534 5.71667C0.037304 5.82699 0 5.95506 0 6.08585C0 6.21663 0.037304 6.3447 0.107534 6.45503C0.177764 6.56536 0.278006 6.65337 0.396497 6.70872L4.12481 8.44879V13.6483C4.12481 15.6084 7.08106 17.0858 10.9998 17.0858C14.9186 17.0858 17.8748 15.6084 17.8748 13.6483V8.44879L19.2498 7.80666V11.5858C19.2498 11.7682 19.3222 11.9431 19.4512 12.072C19.5801 12.2009 19.755 12.2733 19.9373 12.2733C20.1196 12.2733 20.2945 12.2009 20.4234 12.072C20.5524 11.9431 20.6248 11.7682 20.6248 11.5858V7.16522L21.6031 6.70872C21.7216 6.65337 21.8219 6.56536 21.8921 6.45503C21.9623 6.3447 21.9996 6.21663 21.9996 6.08585C21.9996 5.95506 21.9623 5.82699 21.8921 5.71667C21.8219 5.60634 21.7216 5.51833 21.6031 5.46297ZM16.4998 13.6483C16.4998 14.4898 14.3576 15.7108 10.9998 15.7108C7.64206 15.7108 5.49981 14.4898 5.49981 13.6483V9.09022L10.709 11.5212C10.8001 11.5637 10.8993 11.5858 10.9998 11.5858C11.1003 11.5858 11.1996 11.5637 11.2906 11.5212L14.7281 9.9166C14.8905 9.83774 15.0153 9.69818 15.0757 9.52805C15.136 9.35793 15.1271 9.1709 15.0507 9.00734C14.9743 8.84377 14.8367 8.71681 14.6675 8.65385C14.4984 8.59089 14.3112 8.597 14.1465 8.67085L10.9998 10.1421L2.31256 6.08585L10.9998 2.0296L19.6864 6.08585L16.8965 7.38797C16.7671 7.44921 16.6604 7.54967 16.5914 7.67507C16.5224 7.80046 16.4947 7.94442 16.5122 8.08647C16.507 8.10687 16.5029 8.12753 16.4998 8.14835V13.6483Z" fill="#2F87FF"/>
</svg>
