<svg width="22" height="23" viewBox="0 0 22 23" fill="none" xmlns="http://www.w3.org/2000/svg">
<path d="M18.7773 12.3582H16.6238C16.3307 12.3582 16.047 12.3982 15.7769 12.4719C15.2442 11.4246 14.1566 10.7051 12.9033 10.7051H9.0967C7.84343 10.7051 6.75581 11.4246 6.22308 12.4719C5.95302 12.3982 5.66925 12.3582 5.37616 12.3582H3.22266C1.44568 12.3582 0 13.8039 0 15.5808V19.0234C0 20.0896 0.86741 20.957 1.93359 20.957H20.0664C21.1326 20.957 22 20.0896 22 19.0234V15.5808C22 13.8039 20.5543 12.3582 18.7773 12.3582ZM5.87404 13.9278V19.668H1.93359C1.5782 19.668 1.28906 19.3788 1.28906 19.0234V15.5809C1.28906 14.5147 2.15647 13.6473 3.22266 13.6473H5.37616C5.55113 13.6473 5.72056 13.671 5.88186 13.7148C5.87722 13.7853 5.87404 13.8562 5.87404 13.9278ZM14.8369 19.668H7.16311V13.9278C7.16311 12.8616 8.03052 11.9942 9.0967 11.9942H12.9033C13.9695 11.9942 14.8369 12.8616 14.8369 13.9278V19.668ZM20.7109 19.0234C20.7109 19.3788 20.4218 19.668 20.0664 19.668H16.126V13.9278C16.126 13.8561 16.1228 13.7852 16.1181 13.7148C16.2794 13.671 16.4489 13.6472 16.6238 13.6472H18.7773C19.8435 13.6472 20.7109 14.5146 20.7109 15.5808V19.0234Z" fill="#2F87FF"/>
<path d="M4.29924 6.27148C2.72018 6.27148 1.43555 7.55612 1.43555 9.13518C1.4355 10.7142 2.72018 11.9989 4.29924 11.9989C5.87826 11.9989 7.16294 10.7142 7.16294 9.13518C7.16294 7.55612 5.8783 6.27148 4.29924 6.27148ZM4.2992 10.7098C3.43093 10.7098 2.72457 10.0034 2.72457 9.13518C2.72457 8.26691 3.43093 7.56055 4.2992 7.56055C5.16747 7.56055 5.87383 8.26691 5.87383 9.13518C5.87383 10.0034 5.16747 10.7098 4.2992 10.7098Z" fill="#2F87FF"/>
<path d="M11.0016 2.71289C8.89204 2.71289 7.17578 4.42915 7.17578 6.53874C7.17578 8.64834 8.89204 10.3646 11.0016 10.3646C13.1112 10.3646 14.8275 8.64834 14.8275 6.53874C14.8275 4.42919 13.1112 2.71289 11.0016 2.71289ZM11.0016 9.07553C9.60283 9.07553 8.46484 7.93755 8.46484 6.53874C8.46484 5.13998 9.60283 4.00195 11.0016 4.00195C12.4004 4.00195 13.5384 5.13994 13.5384 6.53874C13.5384 7.93755 12.4004 9.07553 11.0016 9.07553Z" fill="#2F87FF"/>
<path d="M17.7016 6.27148C16.1226 6.27148 14.8379 7.55612 14.8379 9.13518C14.8379 10.7142 16.1226 11.9989 17.7016 11.9989C19.2806 11.9989 20.5653 10.7142 20.5653 9.13518C20.5653 7.55612 19.2806 6.27148 17.7016 6.27148ZM17.7016 10.7098C16.8334 10.7098 16.127 10.0034 16.127 9.13518C16.127 8.26691 16.8334 7.56055 17.7016 7.56055C18.5699 7.56055 19.2762 8.26691 19.2762 9.13518C19.2762 10.0034 18.5699 10.7098 17.7016 10.7098Z" fill="#2F87FF"/>
</svg>
