<svg width="22" height="21" viewBox="0 0 22 21" fill="none" xmlns="http://www.w3.org/2000/svg">
<path d="M20.0664 2.62891H18.5195V1.55469C18.5195 1.19873 18.231 0.910156 17.875 0.910156C17.519 0.910156 17.2305 1.19873 17.2305 1.55469V2.62891H11.6445V1.55469C11.6445 1.19873 11.356 0.910156 11 0.910156C10.644 0.910156 10.3555 1.19873 10.3555 1.55469V2.62891H4.76953V1.55469C4.76953 1.19873 4.48095 0.910156 4.125 0.910156C3.76905 0.910156 3.48047 1.19873 3.48047 1.55469V2.62891H1.93359C0.86741 2.62891 0 3.49632 0 4.5625V18.8281C0 19.8943 0.86741 20.7617 1.93359 20.7617H20.0664C21.1326 20.7617 22 19.8943 22 18.8281C22 18.4121 22 4.92451 22 4.5625C22 3.49632 21.1326 2.62891 20.0664 2.62891ZM1.28906 4.5625C1.28906 4.20711 1.5782 3.91797 1.93359 3.91797H3.48047V4.99219C3.48047 5.34814 3.76905 5.63672 4.125 5.63672C4.48095 5.63672 4.76953 5.34814 4.76953 4.99219V3.91797H10.3555V4.99219C10.3555 5.34814 10.644 5.63672 11 5.63672C11.356 5.63672 11.6445 5.34814 11.6445 4.99219V3.91797H17.2305V4.99219C17.2305 5.34814 17.519 5.63672 17.875 5.63672C18.231 5.63672 18.5195 5.34814 18.5195 4.99219V3.91797H20.0664C20.4218 3.91797 20.7109 4.20711 20.7109 4.5625V7.09766H1.28906V4.5625ZM20.0664 19.4727H1.93359C1.5782 19.4727 1.28906 19.1835 1.28906 18.8281V8.38672H20.7109V18.8281C20.7109 19.1835 20.4218 19.4727 20.0664 19.4727Z" fill="#2F87FF"/>
<path d="M10.7506 10.05C10.8021 9.89161 11.0261 9.89161 11.0775 10.05L11.8402 12.3972C11.8632 12.468 11.9292 12.5159 12.0036 12.5159H14.4717C14.6382 12.5159 14.7074 12.729 14.5727 12.8269L12.576 14.2775C12.5158 14.3213 12.4906 14.3989 12.5136 14.4697L13.2762 16.8169C13.3277 16.9753 13.1465 17.1069 13.0118 17.0091L11.0151 15.5584C10.9548 15.5146 10.8733 15.5146 10.813 15.5584L8.81637 17.0091C8.68167 17.1069 8.50043 16.9753 8.55189 16.8169L9.31454 14.4697C9.33755 14.3989 9.31235 14.3213 9.25211 14.2775L7.25544 12.8269C7.12074 12.729 7.18997 12.5159 7.35647 12.5159H9.82448C9.89894 12.5159 9.96493 12.468 9.98794 12.3972L10.7506 10.05Z" stroke="#2F87FF" stroke-width="0.95"/>
</svg>
