<svg width="20" height="21" viewBox="0 0 20 21" fill="none" xmlns="http://www.w3.org/2000/svg">
<g clip-path="url(#clip0_11151_71751)">
<path d="M18.8839 17.3308L16.9366 14.2838V10.3892C16.9366 7.47968 15.1726 4.95966 12.6525 3.9058V3.49344C12.6525 2.02722 11.4613 0.835938 9.99504 0.835938C8.52882 0.835938 7.33754 2.02722 7.33754 3.49344V3.9058C4.81751 4.95966 3.05346 7.45679 3.05346 10.3892V14.2838L1.10616 17.3308C0.968689 17.537 0.968689 17.8119 1.08327 18.041C1.19781 18.27 1.42692 18.4075 1.67893 18.4075H6.85646C7.223 19.805 8.48304 20.8359 9.97215 20.8359H10.018C11.53 20.8359 12.79 19.805 13.1337 18.4075H18.3112C18.5632 18.4075 18.7923 18.27 18.9069 18.041C19.0443 17.8119 19.0214 17.537 18.8839 17.3308ZM8.71211 3.49344C8.71211 2.78324 9.28484 2.21051 9.99504 2.21051C10.7052 2.21051 11.278 2.78324 11.278 3.49344C10.8656 3.42472 10.4303 3.3789 9.99504 3.3789C9.55978 3.3789 9.12448 3.42472 8.71211 3.49344ZM10.018 19.4385H9.97215C9.23906 19.4385 8.59758 19.0032 8.29974 18.3846H11.6903C11.3925 19.0032 10.7511 19.4385 10.018 19.4385ZM2.93892 17.01L4.3135 14.8566C4.38221 14.742 4.42803 14.6275 4.42803 14.49V10.3892C4.42803 7.27354 6.92517 4.75352 9.99504 4.75352C13.0649 4.75352 15.562 7.2735 15.562 10.3892V14.49C15.562 14.6274 15.6079 14.742 15.6766 14.8565L17.0512 17.01H2.93892V17.01Z" fill="#2F87FF"/>
</g>
<defs>
<clipPath id="clip0_11151_71751">
<rect width="20" height="20" fill="white" transform="translate(0 0.835938)"/>
</clipPath>
</defs>
</svg>
