<svg width="20" height="18" viewBox="0 0 20 18" fill="none" xmlns="http://www.w3.org/2000/svg">
<path d="M19.4141 3.54199H14.1162V2.37762C14.1162 1.07305 13.0548 0.0117188 11.7503 0.0117188H8.24973C6.9452 0.0117188 5.88383 1.07305 5.88383 2.37762V3.54199H0.585938C0.262344 3.54199 0 3.80434 0 4.12793V14.7725C0 16.3637 1.29457 17.6582 2.88574 17.6582H17.1143C18.7054 17.6582 20 16.3637 20 14.7725V4.12793C20 3.80434 19.7377 3.54199 19.4141 3.54199ZM11.3295 11.1885C11.3295 11.9216 10.733 12.518 10 12.518C9.26695 12.518 8.67051 11.9216 8.67051 11.1885V9.85898H11.3295V11.1885ZM11.9154 8.68711H8.08457C7.76098 8.68711 7.49863 8.94945 7.49863 9.27305V10.3374C4.09129 9.59785 1.53703 7.38777 1.2084 4.71387H18.7916C18.4629 7.38777 15.9087 9.59785 12.5014 10.3374V9.27309C12.5014 8.94945 12.239 8.68711 11.9154 8.68711ZM7.05566 2.37762C7.05566 1.71922 7.59133 1.18359 8.24969 1.18359H11.7503C12.4086 1.18359 12.9443 1.71922 12.9443 2.37762V3.54199H7.05562V2.37762H7.05566ZM18.8281 14.7725C18.8281 15.7175 18.0593 16.4863 17.1143 16.4863H2.88574C1.94074 16.4863 1.17188 15.7175 1.17188 14.7725V7.73551C1.64492 8.41195 2.25484 9.0366 2.99168 9.58922C4.26852 10.5468 5.8273 11.2117 7.52379 11.5397C7.69512 12.7532 8.73996 13.6898 10 13.6898C11.26 13.6898 12.3049 12.7532 12.4762 11.5397C14.1727 11.2117 15.7314 10.5468 17.0083 9.58922C17.7452 9.0366 18.3551 8.41191 18.8281 7.73551V14.7725Z" fill="#2F87FF"/>
</svg>
