<svg width="22" height="24" viewBox="0 0 22 24" fill="none" xmlns="http://www.w3.org/2000/svg">
<path d="M18.2187 4.21088C18.5637 3.77969 19.1929 3.70978 19.6241 4.05473C20.0553 4.39969 20.1252 5.02889 19.7802 5.46009L11.7814 15.4586C11.4092 15.9239 10.7151 15.9624 10.2937 15.541L6.2943 11.5416C5.90383 11.1511 5.90383 10.518 6.2943 10.1276C6.68476 9.73711 7.31783 9.73711 7.7083 10.1276L10.9178 13.3371L18.2187 4.21088Z" fill="#2F87FF" stroke="white" stroke-width="0.5"/>
<path d="M16 14.3379C16 13.7856 16.4477 13.3379 17 13.3379C17.5523 13.3379 18 13.7856 18 14.3379V19.9629C18 21.5507 16.7128 22.8379 15.125 22.8379H3.875C2.28718 22.8379 1 21.5507 1 19.9629L1 8.71288C1 7.12507 2.28718 5.83789 3.875 5.83789C7.90694 5.83789 7.90694 5.83789 9.96876 5.83789C10.521 5.83789 10.9688 6.28561 10.9688 6.83789C10.9688 7.39018 10.521 7.83789 9.96876 7.83789C7.90694 7.83789 7.90694 7.83789 3.875 7.83789C3.39175 7.83789 3 8.22964 3 8.71288L3 19.9629C3 20.4461 3.39175 20.8379 3.875 20.8379H15.125C15.6083 20.8379 16 20.4461 16 19.9629V14.3379Z" fill="#2F87FF" stroke="white" stroke-width="0.5"/>
</svg>
